%TF.GenerationSoftware,KiCad,Pcbnew,7.0.11*%
%TF.CreationDate,2024-04-12T16:05:31+08:00*%
%TF.ProjectId,UINIO-MCU-STM32F401CCU6,55494e49-4f2d-44d4-9355-2d53544d3332,Version 3.1.0*%
%TF.SameCoordinates,PX72c1710PY5584170*%
%TF.FileFunction,Copper,L2,Bot*%
%TF.FilePolarity,Positive*%
%FSLAX46Y46*%
G04 Gerber Fmt 4.6, Leading zero omitted, Abs format (unit mm)*
G04 Created by KiCad (PCBNEW 7.0.11) date 2024-04-12 16:05:31*
%MOMM*%
%LPD*%
G01*
G04 APERTURE LIST*
%TA.AperFunction,ComponentPad*%
%ADD10R,1.700000X1.700000*%
%TD*%
%TA.AperFunction,ComponentPad*%
%ADD11O,1.700000X1.700000*%
%TD*%
%TA.AperFunction,ComponentPad*%
%ADD12C,1.200000*%
%TD*%
%TA.AperFunction,ComponentPad*%
%ADD13O,2.100000X1.000000*%
%TD*%
%TA.AperFunction,ComponentPad*%
%ADD14O,1.900000X1.000000*%
%TD*%
%TA.AperFunction,ViaPad*%
%ADD15C,0.500000*%
%TD*%
%TA.AperFunction,ViaPad*%
%ADD16C,0.700000*%
%TD*%
%TA.AperFunction,ViaPad*%
%ADD17C,0.900000*%
%TD*%
%TA.AperFunction,Conductor*%
%ADD18C,0.300000*%
%TD*%
%TA.AperFunction,Conductor*%
%ADD19C,0.200000*%
%TD*%
%TA.AperFunction,Conductor*%
%ADD20C,0.500000*%
%TD*%
G04 APERTURE END LIST*
D10*
%TO.P,J3,1,Pin_1*%
%TO.N,GND*%
X63960000Y-6367130D03*
D11*
%TO.P,J3,2,Pin_2*%
%TO.N,/PA14{slash}SWCLK*%
X63960000Y-8907130D03*
%TO.P,J3,3,Pin_3*%
%TO.N,/PA13{slash}SWDIO*%
X63960000Y-11447130D03*
%TO.P,J3,4,Pin_4*%
%TO.N,/VDD_3.3V*%
X63960000Y-13987130D03*
%TD*%
D12*
%TO.P,HOLE\u002A\u002A,*%
%TO.N,*%
X-920940Y-2190000D03*
%TD*%
%TO.P,HOLE\u002A\u002A,*%
%TO.N,*%
X63339060Y-2190000D03*
%TD*%
%TO.P,HOLE\u002A\u002A,*%
%TO.N,*%
X63290000Y-18130000D03*
%TD*%
D13*
%TO.P,USB1,13,GND*%
%TO.N,GND*%
X3068060Y-5847130D03*
%TO.P,USB1,14,GND*%
X3068060Y-14497130D03*
D14*
%TO.P,USB1,15,GND*%
X-1131940Y-5847130D03*
%TO.P,USB1,16,GND*%
X-1131940Y-14497130D03*
%TD*%
D12*
%TO.P,HOLE\u002A\u002A,*%
%TO.N,*%
X-970000Y-18130000D03*
%TD*%
D10*
%TO.P,J1,1,Pin_1*%
%TO.N,GND*%
X1999060Y-1342130D03*
D11*
%TO.P,J1,2,Pin_2*%
%TO.N,/VDD_3.3V*%
X4539060Y-1342130D03*
%TO.P,J1,3,Pin_3*%
%TO.N,/PA13{slash}SWDIO*%
X7079060Y-1342130D03*
%TO.P,J1,4,Pin_4*%
%TO.N,/PA12*%
X9619060Y-1342130D03*
%TO.P,J1,5,Pin_5*%
%TO.N,/PA11*%
X12159060Y-1342130D03*
%TO.P,J1,6,Pin_6*%
%TO.N,/PA10*%
X14699060Y-1342130D03*
%TO.P,J1,7,Pin_7*%
%TO.N,/PA9*%
X17239060Y-1342130D03*
%TO.P,J1,8,Pin_8*%
%TO.N,/PA8*%
X19779060Y-1342130D03*
%TO.P,J1,9,Pin_9*%
%TO.N,/PB15*%
X22319060Y-1342130D03*
%TO.P,J1,10,Pin_10*%
%TO.N,/PB14*%
X24859060Y-1342130D03*
%TO.P,J1,11,Pin_11*%
%TO.N,/PB13*%
X27399060Y-1342130D03*
%TO.P,J1,12,Pin_12*%
%TO.N,/PB12*%
X29939060Y-1342130D03*
%TO.P,J1,13,Pin_13*%
%TO.N,GND*%
X32479060Y-1342130D03*
%TO.P,J1,14,Pin_14*%
%TO.N,/VDD_3.3V*%
X35019060Y-1342130D03*
%TO.P,J1,15,Pin_15*%
%TO.N,/PB11*%
X37559060Y-1342130D03*
%TO.P,J1,16,Pin_16*%
%TO.N,/PB10*%
X40099060Y-1342130D03*
%TO.P,J1,17,Pin_17*%
%TO.N,/PB2{slash}BOOT1*%
X42639060Y-1342130D03*
%TO.P,J1,18,Pin_18*%
%TO.N,/PB1*%
X45179060Y-1342130D03*
%TO.P,J1,19,Pin_19*%
%TO.N,/PB0*%
X47719060Y-1342130D03*
%TO.P,J1,20,Pin_20*%
%TO.N,/PA7*%
X50259060Y-1342130D03*
%TO.P,J1,21,Pin_21*%
%TO.N,/PA6*%
X52799060Y-1342130D03*
%TO.P,J1,22,Pin_22*%
%TO.N,/PA5*%
X55339060Y-1342130D03*
%TO.P,J1,23,Pin_23*%
%TO.N,/PA4*%
X57879060Y-1342130D03*
%TO.P,J1,24,Pin_24*%
%TO.N,/PA3*%
X60419060Y-1342130D03*
%TD*%
D10*
%TO.P,J2,1,Pin_1*%
%TO.N,GND*%
X1999060Y-18982130D03*
D11*
%TO.P,J2,2,Pin_2*%
%TO.N,/VDD_5V*%
X4539060Y-18982130D03*
%TO.P,J2,3,Pin_3*%
%TO.N,/PA14{slash}SWCLK*%
X7079060Y-18982130D03*
%TO.P,J2,4,Pin_4*%
%TO.N,/PA15*%
X9619060Y-18982130D03*
%TO.P,J2,5,Pin_5*%
%TO.N,/PB3*%
X12159060Y-18982130D03*
%TO.P,J2,6,Pin_6*%
%TO.N,/PB4*%
X14699060Y-18982130D03*
%TO.P,J2,7,Pin_7*%
%TO.N,/PB5*%
X17239060Y-18982130D03*
%TO.P,J2,8,Pin_8*%
%TO.N,/PB6*%
X19779060Y-18982130D03*
%TO.P,J2,9,Pin_9*%
%TO.N,/PB7*%
X22319060Y-18982130D03*
%TO.P,J2,10,Pin_10*%
%TO.N,/BOOT0*%
X24859060Y-18982130D03*
%TO.P,J2,11,Pin_11*%
%TO.N,/PB8*%
X27399060Y-18982130D03*
%TO.P,J2,12,Pin_12*%
%TO.N,/PB9*%
X29939060Y-18982130D03*
%TO.P,J2,13,Pin_13*%
%TO.N,GND*%
X32479060Y-18982130D03*
%TO.P,J2,14,Pin_14*%
%TO.N,/VDD_3.3V*%
X35019060Y-18982130D03*
%TO.P,J2,15,Pin_15*%
%TO.N,/VBAT*%
X37559060Y-18982130D03*
%TO.P,J2,16,Pin_16*%
%TO.N,/PC13*%
X40099060Y-18982130D03*
%TO.P,J2,17,Pin_17*%
%TO.N,/VDD_3.3V*%
X42639060Y-18982130D03*
%TO.P,J2,18,Pin_18*%
%TO.N,GND*%
X45179060Y-18982130D03*
%TO.P,J2,19,Pin_19*%
%TO.N,/NRST*%
X47719060Y-18982130D03*
%TO.P,J2,20,Pin_20*%
%TO.N,/VDD_3.3V*%
X50259060Y-18982130D03*
%TO.P,J2,21,Pin_21*%
%TO.N,GND*%
X52799060Y-18982130D03*
%TO.P,J2,22,Pin_22*%
%TO.N,/PA0*%
X55339060Y-18982130D03*
%TO.P,J2,23,Pin_23*%
%TO.N,/PA1*%
X57879060Y-18982130D03*
%TO.P,J2,24,Pin_24*%
%TO.N,/PA2*%
X60419060Y-18982130D03*
%TD*%
D15*
%TO.N,GND*%
X60593330Y-10190000D03*
X36020000Y-16090000D03*
X36110000Y-9410000D03*
D16*
X19780000Y-5030000D03*
D15*
X26120000Y-16230000D03*
X55510000Y-10190000D03*
D16*
X43350000Y-5770000D03*
D15*
X29939060Y-10072485D03*
X60490000Y-12680000D03*
D16*
X55540000Y-15360000D03*
D15*
X26090000Y-2890000D03*
X10910000Y-3410000D03*
X15790000Y-14472130D03*
X29939060Y-11072485D03*
X48930000Y-15910000D03*
X8340000Y-10880000D03*
X46800000Y-15107870D03*
X28939060Y-10072485D03*
X29939060Y-9072485D03*
X61610000Y-10190000D03*
X57543332Y-10190000D03*
X53139060Y-15512130D03*
D16*
X43670000Y-16590000D03*
D15*
X57139060Y-3322130D03*
X29200000Y-2890000D03*
X59576664Y-10190000D03*
X60490000Y-15650000D03*
D16*
X32480000Y-15880000D03*
D15*
X56526666Y-10190000D03*
X28939060Y-9072485D03*
D16*
X42469060Y-7162130D03*
D15*
X49466560Y-3322130D03*
X8340000Y-8680000D03*
X48930000Y-15110000D03*
X52024060Y-3322130D03*
X46050000Y-15110000D03*
X28939060Y-11072485D03*
D16*
X52150000Y-12000000D03*
X18610000Y-5030000D03*
X31240000Y-4250000D03*
D15*
X15550000Y-4400000D03*
X30939060Y-10072485D03*
D16*
X42469060Y-15392130D03*
X13870000Y-4400000D03*
D15*
X30939060Y-11072485D03*
D16*
X47830000Y-5811630D03*
D15*
X21840000Y-10210000D03*
X58559998Y-10190000D03*
D16*
X24100000Y-8250000D03*
D15*
X30939060Y-9072485D03*
X54581560Y-3322130D03*
%TO.N,/PB2{slash}BOOT1*%
X45230000Y-5430000D03*
D17*
%TO.N,/VDD_5V*%
X6169060Y-7762130D03*
X6169060Y-12562130D03*
D16*
%TO.N,/VDD_3.3V*%
X10043465Y-6836535D03*
D15*
X33832879Y-12199950D03*
D16*
X21840000Y-4860000D03*
D17*
X15783465Y-12576535D03*
D15*
X23102485Y-10552485D03*
%TO.N,/BOOT0*%
X38460000Y-16090000D03*
%TO.N,/NRST*%
X20710000Y-10210000D03*
X36970000Y-13210000D03*
%TO.N,/PA13{slash}SWDIO*%
X24030000Y-6630000D03*
%TO.N,/PA12*%
X16580000Y-5910000D03*
%TO.N,/PA14{slash}SWCLK*%
X24890522Y-11230522D03*
X55090000Y-9410000D03*
%TO.N,/PA0*%
X36100000Y-12066666D03*
%TO.N,/PA1*%
X36090000Y-11430000D03*
%TO.N,/PA2*%
X36110000Y-10810000D03*
%TO.N,/USB_Data-*%
X2899060Y-9422130D03*
X2899060Y-10422130D03*
%TO.N,Net-(USB1-CC2)*%
X13180000Y-10850000D03*
X10410000Y-10850000D03*
%TD*%
D18*
%TO.N,GND*%
X43350000Y-5770000D02*
X43770000Y-6190000D01*
X31240000Y-4250000D02*
X32479060Y-3010940D01*
X32480000Y-15900000D02*
X32480000Y-18981190D01*
X44389060Y-3322130D02*
X57139060Y-3322130D01*
X30070000Y-10220000D02*
X29930000Y-10080000D01*
X32460000Y-15880000D02*
X32480000Y-15900000D01*
X43770000Y-6190000D02*
X47451630Y-6190000D01*
X47451630Y-6190000D02*
X47830000Y-5811630D01*
X42472130Y-15392130D02*
X42469060Y-15392130D01*
X43670000Y-16590000D02*
X42472130Y-15392130D01*
X29930000Y-10080000D02*
X30070000Y-9940000D01*
X32479060Y-3010940D02*
X32479060Y-1342130D01*
D19*
%TO.N,/PB2{slash}BOOT1*%
X45230000Y-5430000D02*
X42639060Y-2839060D01*
X42639060Y-2839060D02*
X42639060Y-1342130D01*
D20*
%TO.N,/VDD_5V*%
X6169060Y-7782130D02*
X6169060Y-12562130D01*
D18*
%TO.N,/VDD_3.3V*%
X36821190Y-17180000D02*
X40836930Y-17180000D01*
X10043465Y-6836535D02*
X4549060Y-1342130D01*
X42639060Y-18982130D02*
X38186930Y-14530000D01*
X24749950Y-12199950D02*
X23102485Y-10552485D01*
X33832879Y-12199950D02*
X24749950Y-12199950D01*
X38186930Y-14530000D02*
X17736930Y-14530000D01*
X36821190Y-17180000D02*
X35019060Y-18982130D01*
X40836930Y-17180000D02*
X42639060Y-18982130D01*
X31500000Y-4860000D02*
X35017870Y-1342130D01*
X21840000Y-4860000D02*
X31500000Y-4860000D01*
X15783465Y-12576535D02*
X10043465Y-6836535D01*
X17736930Y-14530000D02*
X15783465Y-12576535D01*
D19*
%TO.N,/BOOT0*%
X28511190Y-15330000D02*
X24859060Y-18982130D01*
X38460000Y-16090000D02*
X37700000Y-15330000D01*
X37700000Y-15330000D02*
X28511190Y-15330000D01*
%TO.N,/NRST*%
X20710000Y-10220000D02*
X20710000Y-10210000D01*
X36970000Y-13210000D02*
X23700000Y-13210000D01*
X23700000Y-13210000D02*
X20710000Y-10220000D01*
X41946930Y-13210000D02*
X47719060Y-18982130D01*
X36970000Y-13210000D02*
X41946930Y-13210000D01*
%TO.N,/PA13{slash}SWDIO*%
X59077870Y-6570000D02*
X63960000Y-11452130D01*
X24030000Y-6630000D02*
X24090000Y-6570000D01*
X12376930Y-6630000D02*
X7089060Y-1342130D01*
X24090000Y-6570000D02*
X59077870Y-6570000D01*
X12376930Y-6630000D02*
X24030000Y-6630000D01*
%TO.N,/PA12*%
X16580000Y-5910000D02*
X14196930Y-5910000D01*
X14196930Y-5910000D02*
X9629060Y-1342130D01*
%TO.N,/PA14{slash}SWCLK*%
X27498559Y-8622485D02*
X24890522Y-11230522D01*
X54302485Y-8622485D02*
X27498559Y-8622485D01*
X55090000Y-9410000D02*
X54302485Y-8622485D01*
%TO.N,/PA0*%
X36100000Y-12066666D02*
X48426666Y-12066666D01*
X48426666Y-12066666D02*
X55339060Y-18979060D01*
%TO.N,/PA1*%
X36090000Y-11430000D02*
X50326930Y-11430000D01*
X50326930Y-11430000D02*
X57879060Y-18982130D01*
%TO.N,/PA2*%
X52226930Y-10790000D02*
X60419060Y-18982130D01*
X36130000Y-10790000D02*
X52226930Y-10790000D01*
X36110000Y-10810000D02*
X36130000Y-10790000D01*
%TO.N,/USB_Data-*%
X2899060Y-10422130D02*
X2899060Y-9422130D01*
%TO.N,Net-(USB1-CC2)*%
X10410000Y-10850000D02*
X13180000Y-10850000D01*
%TD*%
%TA.AperFunction,Conductor*%
%TO.N,GND*%
G36*
X598660Y-272315D02*
G01*
X644415Y-325119D01*
X654910Y-389886D01*
X649060Y-444285D01*
X649060Y-1092130D01*
X1565374Y-1092130D01*
X1539567Y-1132286D01*
X1499060Y-1270241D01*
X1499060Y-1414019D01*
X1539567Y-1551974D01*
X1565374Y-1592130D01*
X649060Y-1592130D01*
X649060Y-2239974D01*
X655461Y-2299502D01*
X655463Y-2299509D01*
X705705Y-2434216D01*
X705709Y-2434223D01*
X791869Y-2549317D01*
X791872Y-2549320D01*
X906966Y-2635480D01*
X906973Y-2635484D01*
X1041680Y-2685726D01*
X1041687Y-2685728D01*
X1101215Y-2692129D01*
X1101232Y-2692130D01*
X1749060Y-2692130D01*
X1749060Y-1777631D01*
X1856745Y-1826810D01*
X1963297Y-1842130D01*
X2034823Y-1842130D01*
X2141375Y-1826810D01*
X2249060Y-1777631D01*
X2249060Y-2692130D01*
X2896888Y-2692130D01*
X2896904Y-2692129D01*
X2956432Y-2685728D01*
X2956439Y-2685726D01*
X3091146Y-2635484D01*
X3091153Y-2635480D01*
X3206247Y-2549320D01*
X3206250Y-2549317D01*
X3292410Y-2434223D01*
X3292414Y-2434216D01*
X3338741Y-2310007D01*
X3380612Y-2254073D01*
X3446076Y-2229656D01*
X3514349Y-2244507D01*
X3546149Y-2269353D01*
X3615820Y-2345036D01*
X3793484Y-2483319D01*
X3793485Y-2483319D01*
X3793487Y-2483321D01*
X3915438Y-2549317D01*
X3991486Y-2590472D01*
X4007539Y-2595982D01*
X4021433Y-2600753D01*
X4039596Y-2608661D01*
X4050214Y-2614334D01*
X5329915Y-3078390D01*
X5341881Y-3082729D01*
X5387290Y-3111620D01*
X9003835Y-6728165D01*
X9025667Y-6757684D01*
X9261613Y-7201947D01*
X9276339Y-7227833D01*
X9279365Y-7232226D01*
X9279298Y-7232271D01*
X9287265Y-7243760D01*
X9345096Y-7343926D01*
X9465846Y-7478034D01*
X9465849Y-7478036D01*
X9465852Y-7478039D01*
X9611850Y-7584113D01*
X9649177Y-7600732D01*
X9671889Y-7613886D01*
X9678031Y-7618373D01*
X9678034Y-7618375D01*
X10043625Y-7812539D01*
X10122313Y-7854330D01*
X10151832Y-7876162D01*
X12305489Y-10029819D01*
X12338974Y-10091142D01*
X12333990Y-10160834D01*
X12292118Y-10216767D01*
X12226654Y-10241184D01*
X12217808Y-10241500D01*
X11026112Y-10241500D01*
X10987901Y-10235466D01*
X10674135Y-10133831D01*
X10641808Y-10124519D01*
X10636465Y-10123477D01*
X10636540Y-10123090D01*
X10615933Y-10118463D01*
X10595515Y-10111319D01*
X10579850Y-10105838D01*
X10579848Y-10105837D01*
X10579843Y-10105836D01*
X10410004Y-10086701D01*
X10409996Y-10086701D01*
X10240155Y-10105836D01*
X10240150Y-10105837D01*
X10078816Y-10162291D01*
X9934091Y-10253228D01*
X9813228Y-10374091D01*
X9722291Y-10518816D01*
X9665837Y-10680150D01*
X9665836Y-10680155D01*
X9646701Y-10849996D01*
X9646701Y-10850003D01*
X9665836Y-11019844D01*
X9665837Y-11019849D01*
X9722291Y-11181183D01*
X9771909Y-11260150D01*
X9813229Y-11325909D01*
X9934091Y-11446771D01*
X10078817Y-11537709D01*
X10204067Y-11581536D01*
X10240150Y-11594162D01*
X10240155Y-11594163D01*
X10409996Y-11613299D01*
X10410000Y-11613299D01*
X10410004Y-11613299D01*
X10579843Y-11594163D01*
X10579843Y-11594162D01*
X10579850Y-11594162D01*
X10636302Y-11574407D01*
X10656209Y-11569250D01*
X10674149Y-11566163D01*
X10987899Y-11464534D01*
X11026110Y-11458500D01*
X12563889Y-11458500D01*
X12602100Y-11464534D01*
X12915849Y-11566163D01*
X12948194Y-11575480D01*
X12948207Y-11575481D01*
X12953540Y-11576522D01*
X12953463Y-11576913D01*
X12974064Y-11581534D01*
X13010150Y-11594162D01*
X13010154Y-11594162D01*
X13010156Y-11594163D01*
X13179996Y-11613299D01*
X13180000Y-11613299D01*
X13180004Y-11613299D01*
X13349844Y-11594163D01*
X13349847Y-11594162D01*
X13349850Y-11594162D01*
X13511183Y-11537709D01*
X13613038Y-11473708D01*
X13680273Y-11454708D01*
X13747109Y-11475075D01*
X13766691Y-11491021D01*
X14592029Y-12316359D01*
X14616784Y-12351751D01*
X14897387Y-12955131D01*
X14917395Y-12993779D01*
X14917400Y-12993788D01*
X14917985Y-12994537D01*
X14929604Y-13012393D01*
X14982643Y-13111624D01*
X14982645Y-13111627D01*
X15102423Y-13257576D01*
X15248372Y-13377354D01*
X15248375Y-13377356D01*
X15258048Y-13382526D01*
X15386464Y-13451165D01*
X15395750Y-13456662D01*
X15404867Y-13462611D01*
X15404871Y-13462612D01*
X15404873Y-13462614D01*
X15518269Y-13515349D01*
X16008247Y-13743214D01*
X16043638Y-13767968D01*
X17210210Y-14934540D01*
X17220360Y-14947208D01*
X17220536Y-14947064D01*
X17225510Y-14953076D01*
X17277202Y-15001618D01*
X17280001Y-15004331D01*
X17300592Y-15024923D01*
X17304172Y-15027700D01*
X17313054Y-15035286D01*
X17346794Y-15066970D01*
X17346796Y-15066971D01*
X17346797Y-15066972D01*
X17365733Y-15077382D01*
X17381979Y-15088053D01*
X17399062Y-15101304D01*
X17399067Y-15101306D01*
X17441544Y-15119688D01*
X17452035Y-15124827D01*
X17492593Y-15147124D01*
X17508753Y-15151272D01*
X17513513Y-15152495D01*
X17531916Y-15158795D01*
X17551754Y-15167380D01*
X17597483Y-15174621D01*
X17608909Y-15176988D01*
X17653742Y-15188500D01*
X17675349Y-15188500D01*
X17694746Y-15190026D01*
X17716082Y-15193406D01*
X17762165Y-15189049D01*
X17773833Y-15188500D01*
X27492779Y-15188500D01*
X27559818Y-15208185D01*
X27605573Y-15260989D01*
X27615517Y-15330147D01*
X27586492Y-15393703D01*
X27580460Y-15400181D01*
X25744090Y-17236549D01*
X25695763Y-17266458D01*
X24382653Y-17705914D01*
X24365396Y-17712034D01*
X24364692Y-17712298D01*
X24364683Y-17712301D01*
X24364680Y-17712303D01*
X24354938Y-17716755D01*
X24341851Y-17722735D01*
X24330585Y-17727230D01*
X24311493Y-17733785D01*
X24311483Y-17733789D01*
X24113487Y-17840939D01*
X24113482Y-17840942D01*
X23935821Y-17979222D01*
X23935816Y-17979227D01*
X23783344Y-18144853D01*
X23783336Y-18144864D01*
X23692868Y-18283336D01*
X23639722Y-18328692D01*
X23570491Y-18338116D01*
X23507155Y-18308614D01*
X23485252Y-18283336D01*
X23419686Y-18182981D01*
X23394782Y-18144862D01*
X23394779Y-18144859D01*
X23394775Y-18144853D01*
X23242303Y-17979227D01*
X23242298Y-17979222D01*
X23076127Y-17849885D01*
X23064636Y-17840941D01*
X23064635Y-17840940D01*
X23064632Y-17840938D01*
X22866640Y-17733791D01*
X22866637Y-17733789D01*
X22866634Y-17733788D01*
X22866631Y-17733787D01*
X22866629Y-17733786D01*
X22653697Y-17660686D01*
X22431629Y-17623630D01*
X22206491Y-17623630D01*
X21984422Y-17660686D01*
X21771490Y-17733786D01*
X21771479Y-17733791D01*
X21573487Y-17840938D01*
X21573482Y-17840942D01*
X21395821Y-17979222D01*
X21395816Y-17979227D01*
X21243344Y-18144853D01*
X21243336Y-18144864D01*
X21152868Y-18283336D01*
X21099722Y-18328692D01*
X21030491Y-18338116D01*
X20967155Y-18308614D01*
X20945252Y-18283336D01*
X20879686Y-18182981D01*
X20854782Y-18144862D01*
X20854779Y-18144859D01*
X20854775Y-18144853D01*
X20702303Y-17979227D01*
X20702298Y-17979222D01*
X20536127Y-17849885D01*
X20524636Y-17840941D01*
X20524635Y-17840940D01*
X20524632Y-17840938D01*
X20326640Y-17733791D01*
X20326637Y-17733789D01*
X20326634Y-17733788D01*
X20326631Y-17733787D01*
X20326629Y-17733786D01*
X20113697Y-17660686D01*
X19891629Y-17623630D01*
X19666491Y-17623630D01*
X19444422Y-17660686D01*
X19231490Y-17733786D01*
X19231479Y-17733791D01*
X19033487Y-17840938D01*
X19033482Y-17840942D01*
X18855821Y-17979222D01*
X18855816Y-17979227D01*
X18703344Y-18144853D01*
X18703336Y-18144864D01*
X18612868Y-18283336D01*
X18559722Y-18328692D01*
X18490491Y-18338116D01*
X18427155Y-18308614D01*
X18405252Y-18283336D01*
X18339686Y-18182981D01*
X18314782Y-18144862D01*
X18314779Y-18144859D01*
X18314775Y-18144853D01*
X18162303Y-17979227D01*
X18162298Y-17979222D01*
X17996127Y-17849885D01*
X17984636Y-17840941D01*
X17984635Y-17840940D01*
X17984632Y-17840938D01*
X17786640Y-17733791D01*
X17786637Y-17733789D01*
X17786634Y-17733788D01*
X17786631Y-17733787D01*
X17786629Y-17733786D01*
X17573697Y-17660686D01*
X17351629Y-17623630D01*
X17126491Y-17623630D01*
X16904422Y-17660686D01*
X16691490Y-17733786D01*
X16691479Y-17733791D01*
X16493487Y-17840938D01*
X16493482Y-17840942D01*
X16315821Y-17979222D01*
X16315816Y-17979227D01*
X16163344Y-18144853D01*
X16163336Y-18144864D01*
X16072868Y-18283336D01*
X16019722Y-18328692D01*
X15950491Y-18338116D01*
X15887155Y-18308614D01*
X15865252Y-18283336D01*
X15799686Y-18182981D01*
X15774782Y-18144862D01*
X15774779Y-18144859D01*
X15774775Y-18144853D01*
X15622303Y-17979227D01*
X15622298Y-17979222D01*
X15456127Y-17849885D01*
X15444636Y-17840941D01*
X15444635Y-17840940D01*
X15444632Y-17840938D01*
X15246640Y-17733791D01*
X15246637Y-17733789D01*
X15246634Y-17733788D01*
X15246631Y-17733787D01*
X15246629Y-17733786D01*
X15033697Y-17660686D01*
X14811629Y-17623630D01*
X14586491Y-17623630D01*
X14364422Y-17660686D01*
X14151490Y-17733786D01*
X14151479Y-17733791D01*
X13953487Y-17840938D01*
X13953482Y-17840942D01*
X13775821Y-17979222D01*
X13775816Y-17979227D01*
X13623344Y-18144853D01*
X13623336Y-18144864D01*
X13532868Y-18283336D01*
X13479722Y-18328692D01*
X13410491Y-18338116D01*
X13347155Y-18308614D01*
X13325252Y-18283336D01*
X13259686Y-18182981D01*
X13234782Y-18144862D01*
X13234779Y-18144859D01*
X13234775Y-18144853D01*
X13082303Y-17979227D01*
X13082298Y-17979222D01*
X12916127Y-17849885D01*
X12904636Y-17840941D01*
X12904635Y-17840940D01*
X12904632Y-17840938D01*
X12706640Y-17733791D01*
X12706637Y-17733789D01*
X12706634Y-17733788D01*
X12706631Y-17733787D01*
X12706629Y-17733786D01*
X12493697Y-17660686D01*
X12271629Y-17623630D01*
X12046491Y-17623630D01*
X11824422Y-17660686D01*
X11611490Y-17733786D01*
X11611479Y-17733791D01*
X11413487Y-17840938D01*
X11413482Y-17840942D01*
X11235821Y-17979222D01*
X11235816Y-17979227D01*
X11083344Y-18144853D01*
X11083336Y-18144864D01*
X10992868Y-18283336D01*
X10939722Y-18328692D01*
X10870491Y-18338116D01*
X10807155Y-18308614D01*
X10785252Y-18283336D01*
X10719686Y-18182981D01*
X10694782Y-18144862D01*
X10694779Y-18144859D01*
X10694775Y-18144853D01*
X10542303Y-17979227D01*
X10542298Y-17979222D01*
X10376127Y-17849885D01*
X10364636Y-17840941D01*
X10364635Y-17840940D01*
X10364632Y-17840938D01*
X10166640Y-17733791D01*
X10166637Y-17733789D01*
X10166634Y-17733788D01*
X10166631Y-17733787D01*
X10166629Y-17733786D01*
X9953697Y-17660686D01*
X9731629Y-17623630D01*
X9506491Y-17623630D01*
X9284422Y-17660686D01*
X9071490Y-17733786D01*
X9071479Y-17733791D01*
X8873487Y-17840938D01*
X8873482Y-17840942D01*
X8695821Y-17979222D01*
X8695816Y-17979227D01*
X8543344Y-18144853D01*
X8543336Y-18144864D01*
X8452868Y-18283336D01*
X8399722Y-18328692D01*
X8330491Y-18338116D01*
X8267155Y-18308614D01*
X8245252Y-18283336D01*
X8179686Y-18182981D01*
X8154782Y-18144862D01*
X8154779Y-18144859D01*
X8154775Y-18144853D01*
X8002303Y-17979227D01*
X8002298Y-17979222D01*
X7836127Y-17849885D01*
X7824636Y-17840941D01*
X7824635Y-17840940D01*
X7824632Y-17840938D01*
X7626640Y-17733791D01*
X7626637Y-17733789D01*
X7626634Y-17733788D01*
X7626631Y-17733787D01*
X7626629Y-17733786D01*
X7413697Y-17660686D01*
X7191629Y-17623630D01*
X6966491Y-17623630D01*
X6744422Y-17660686D01*
X6531490Y-17733786D01*
X6531479Y-17733791D01*
X6333487Y-17840938D01*
X6333482Y-17840942D01*
X6155821Y-17979222D01*
X6155816Y-17979227D01*
X6003344Y-18144853D01*
X6003336Y-18144864D01*
X5912868Y-18283336D01*
X5859722Y-18328692D01*
X5790491Y-18338116D01*
X5727155Y-18308614D01*
X5705252Y-18283336D01*
X5639686Y-18182981D01*
X5614782Y-18144862D01*
X5614779Y-18144859D01*
X5614775Y-18144853D01*
X5462303Y-17979227D01*
X5462298Y-17979222D01*
X5296127Y-17849885D01*
X5284636Y-17840941D01*
X5284635Y-17840940D01*
X5284632Y-17840938D01*
X5086640Y-17733791D01*
X5086637Y-17733789D01*
X5086634Y-17733788D01*
X5086631Y-17733787D01*
X5086629Y-17733786D01*
X4873697Y-17660686D01*
X4651629Y-17623630D01*
X4426491Y-17623630D01*
X4204422Y-17660686D01*
X3991490Y-17733786D01*
X3991479Y-17733791D01*
X3793487Y-17840938D01*
X3793482Y-17840942D01*
X3615821Y-17979222D01*
X3546152Y-18054903D01*
X3486265Y-18090893D01*
X3416427Y-18088792D01*
X3358811Y-18049267D01*
X3338741Y-18014252D01*
X3292414Y-17890043D01*
X3292410Y-17890036D01*
X3206250Y-17774942D01*
X3206247Y-17774939D01*
X3091153Y-17688779D01*
X3091146Y-17688775D01*
X2956439Y-17638533D01*
X2956432Y-17638531D01*
X2896904Y-17632130D01*
X2249060Y-17632130D01*
X2249060Y-18546628D01*
X2141375Y-18497450D01*
X2034823Y-18482130D01*
X1963297Y-18482130D01*
X1856745Y-18497450D01*
X1749060Y-18546628D01*
X1749060Y-17632130D01*
X1101215Y-17632130D01*
X1041687Y-17638531D01*
X1041680Y-17638533D01*
X906973Y-17688775D01*
X906966Y-17688779D01*
X791872Y-17774939D01*
X791869Y-17774942D01*
X705709Y-17890036D01*
X705705Y-17890043D01*
X655463Y-18024750D01*
X655461Y-18024757D01*
X649060Y-18084285D01*
X649060Y-18732130D01*
X1565374Y-18732130D01*
X1539567Y-18772286D01*
X1499060Y-18910241D01*
X1499060Y-19054019D01*
X1539567Y-19191974D01*
X1565374Y-19232130D01*
X649060Y-19232130D01*
X649060Y-19879974D01*
X655884Y-19943434D01*
X643479Y-20012194D01*
X595869Y-20063331D01*
X532595Y-20080690D01*
X-1015572Y-20080690D01*
X-1024418Y-20080374D01*
X-1260134Y-20063515D01*
X-1277646Y-20060997D01*
X-1504220Y-20011709D01*
X-1521196Y-20006725D01*
X-1738461Y-19925689D01*
X-1754554Y-19918339D01*
X-1958062Y-19807214D01*
X-1972945Y-19797649D01*
X-2158578Y-19658686D01*
X-2171943Y-19647106D01*
X-2335916Y-19483132D01*
X-2347489Y-19469776D01*
X-2486462Y-19284129D01*
X-2496012Y-19269270D01*
X-2607147Y-19065739D01*
X-2614494Y-19049650D01*
X-2668358Y-18905231D01*
X-2695529Y-18832384D01*
X-2700511Y-18815413D01*
X-2709103Y-18775918D01*
X-2749800Y-18588832D01*
X-2752317Y-18571325D01*
X-2753119Y-18560114D01*
X-2765103Y-18392535D01*
X-2769184Y-18335466D01*
X-2769500Y-18326621D01*
X-2769500Y-18130003D01*
X-2083249Y-18130003D01*
X-2076321Y-18204776D01*
X-2075933Y-18210313D01*
X-2072209Y-18288470D01*
X-2072208Y-18288475D01*
X-2068445Y-18303986D01*
X-2065479Y-18321774D01*
X-2064294Y-18334559D01*
X-2047799Y-18392535D01*
X-2042800Y-18410102D01*
X-2041562Y-18414802D01*
X-2022299Y-18494201D01*
X-2022298Y-18494206D01*
X-2017109Y-18505568D01*
X-2010641Y-18523134D01*
X-2008078Y-18532141D01*
X-2008072Y-18532157D01*
X-1971524Y-18605554D01*
X-1969730Y-18609314D01*
X-1934359Y-18686765D01*
X-1934353Y-18686776D01*
X-1929121Y-18694123D01*
X-1919132Y-18710771D01*
X-1916504Y-18716048D01*
X-1916502Y-18716052D01*
X-1865011Y-18784236D01*
X-1862958Y-18787035D01*
X-1811557Y-18859218D01*
X-1811555Y-18859219D01*
X-1807541Y-18863047D01*
X-1794163Y-18878057D01*
X-1792708Y-18879983D01*
X-1792705Y-18879987D01*
X-1792702Y-18879989D01*
X-1792701Y-18879991D01*
X-1726960Y-18939922D01*
X-1724967Y-18941780D01*
X-1658346Y-19005303D01*
X-1656602Y-19006424D01*
X-1645481Y-19014970D01*
X-1645456Y-19014938D01*
X-1640881Y-19018393D01*
X-1562315Y-19067039D01*
X-1560598Y-19068122D01*
X-1498344Y-19108130D01*
X-1480252Y-19119757D01*
X-1475000Y-19122465D01*
X-1475034Y-19122529D01*
X-1471512Y-19124308D01*
X-1471350Y-19123984D01*
X-1466227Y-19126534D01*
X-1466218Y-19126540D01*
X-1376840Y-19161164D01*
X-1375612Y-19161647D01*
X-1341838Y-19175169D01*
X-1283722Y-19198436D01*
X-1281753Y-19199013D01*
X-1275660Y-19200465D01*
X-1274661Y-19200749D01*
X-1274660Y-19200749D01*
X-1274655Y-19200751D01*
X-1176828Y-19219037D01*
X-1176717Y-19219058D01*
X-1075849Y-19238500D01*
X-1075844Y-19238500D01*
X-867284Y-19238500D01*
X-867282Y-19238500D01*
X-820603Y-19229773D01*
X-809651Y-19228229D01*
X-759261Y-19223419D01*
X-717349Y-19211112D01*
X-705214Y-19208203D01*
X-665345Y-19200751D01*
X-617873Y-19182360D01*
X-608014Y-19179009D01*
X-577128Y-19169939D01*
X-556138Y-19163777D01*
X-543606Y-19157315D01*
X-520391Y-19145348D01*
X-508366Y-19139937D01*
X-473782Y-19126540D01*
X-427543Y-19097909D01*
X-419081Y-19093118D01*
X-370651Y-19068151D01*
X-367974Y-19066771D01*
X-339078Y-19044046D01*
X-327718Y-19036099D01*
X-299118Y-19018392D01*
X-256367Y-18979417D01*
X-249506Y-18973606D01*
X-201568Y-18935908D01*
X-179769Y-18910749D01*
X-169595Y-18900316D01*
X-163556Y-18894809D01*
X-147299Y-18879991D01*
X-110346Y-18831055D01*
X-105136Y-18824618D01*
X-62935Y-18775918D01*
X-48011Y-18750066D01*
X-39592Y-18737361D01*
X-23497Y-18716050D01*
X5364Y-18658088D01*
X8977Y-18651360D01*
X8993Y-18651332D01*
X42913Y-18592582D01*
X51537Y-18567661D01*
X57709Y-18552965D01*
X68074Y-18532152D01*
X86745Y-18466527D01*
X88827Y-18459921D01*
X112150Y-18392535D01*
X112153Y-18392527D01*
X115412Y-18369857D01*
X118878Y-18353590D01*
X124294Y-18334559D01*
X130906Y-18263199D01*
X131638Y-18257003D01*
X138352Y-18210313D01*
X142281Y-18182984D01*
X141356Y-18163578D01*
X141743Y-18146238D01*
X143249Y-18130000D01*
X136318Y-18055214D01*
X135930Y-18049679D01*
X135910Y-18049267D01*
X132208Y-17971526D01*
X128441Y-17956002D01*
X125478Y-17938229D01*
X124294Y-17925441D01*
X102783Y-17849840D01*
X101556Y-17845182D01*
X82298Y-17765796D01*
X77107Y-17754430D01*
X70636Y-17736853D01*
X69763Y-17733785D01*
X68074Y-17727848D01*
X37981Y-17667414D01*
X31511Y-17654421D01*
X29716Y-17650659D01*
X24178Y-17638533D01*
X-5644Y-17573229D01*
X-10879Y-17565877D01*
X-20871Y-17549224D01*
X-23497Y-17543950D01*
X-46651Y-17513290D01*
X-74990Y-17475763D01*
X-77044Y-17472963D01*
X-128441Y-17400785D01*
X-128446Y-17400780D01*
X-132454Y-17396958D01*
X-145847Y-17381931D01*
X-147292Y-17380018D01*
X-147295Y-17380014D01*
X-147296Y-17380013D01*
X-147299Y-17380009D01*
X-213087Y-17320036D01*
X-214998Y-17318253D01*
X-281654Y-17254697D01*
X-281657Y-17254694D01*
X-283399Y-17253575D01*
X-294520Y-17245029D01*
X-294544Y-17245062D01*
X-299123Y-17241604D01*
X-377673Y-17192967D01*
X-379433Y-17191857D01*
X-459742Y-17140246D01*
X-465001Y-17137535D01*
X-464968Y-17137470D01*
X-468488Y-17135692D01*
X-468649Y-17136016D01*
X-473787Y-17133457D01*
X-563117Y-17098851D01*
X-564409Y-17098343D01*
X-656278Y-17061564D01*
X-658239Y-17060988D01*
X-664320Y-17059540D01*
X-665340Y-17059250D01*
X-762983Y-17040996D01*
X-763663Y-17040867D01*
X-864150Y-17021500D01*
X-864151Y-17021500D01*
X-867282Y-17021500D01*
X-1072718Y-17021500D01*
X-1072724Y-17021500D01*
X-1119386Y-17030222D01*
X-1130378Y-17031771D01*
X-1180735Y-17036580D01*
X-1180739Y-17036580D01*
X-1180739Y-17036581D01*
X-1222654Y-17048888D01*
X-1234800Y-17051798D01*
X-1274649Y-17059247D01*
X-1274662Y-17059251D01*
X-1322134Y-17077641D01*
X-1331989Y-17080991D01*
X-1383860Y-17096222D01*
X-1419611Y-17114652D01*
X-1431629Y-17120059D01*
X-1466219Y-17133460D01*
X-1466220Y-17133460D01*
X-1512460Y-17162091D01*
X-1520915Y-17166878D01*
X-1572023Y-17193226D01*
X-1600918Y-17215949D01*
X-1612286Y-17223901D01*
X-1640885Y-17241609D01*
X-1683625Y-17280571D01*
X-1690506Y-17286400D01*
X-1738435Y-17324093D01*
X-1760237Y-17349253D01*
X-1770402Y-17359678D01*
X-1792699Y-17380006D01*
X-1829634Y-17428915D01*
X-1834873Y-17435387D01*
X-1877064Y-17484079D01*
X-1891986Y-17509925D01*
X-1900413Y-17522641D01*
X-1916503Y-17543950D01*
X-1916504Y-17543951D01*
X-1916504Y-17543952D01*
X-1916509Y-17543960D01*
X-1945368Y-17601914D01*
X-1948978Y-17608637D01*
X-1982912Y-17667414D01*
X-1991536Y-17692331D01*
X-1997712Y-17707036D01*
X-2008072Y-17727842D01*
X-2008077Y-17727856D01*
X-2026744Y-17793459D01*
X-2028828Y-17800077D01*
X-2052154Y-17867475D01*
X-2055413Y-17890137D01*
X-2058881Y-17906409D01*
X-2064294Y-17925437D01*
X-2070907Y-17996796D01*
X-2071640Y-18002999D01*
X-2082281Y-18077010D01*
X-2082281Y-18077015D01*
X-2081357Y-18096434D01*
X-2081746Y-18113766D01*
X-2082113Y-18117744D01*
X-2083249Y-18130003D01*
X-2769500Y-18130003D01*
X-2769500Y-14861776D01*
X-2749815Y-14794737D01*
X-2697011Y-14748982D01*
X-2627853Y-14739038D01*
X-2564297Y-14768063D01*
X-2529218Y-14818711D01*
X-2484375Y-14939795D01*
X-2376791Y-15112397D01*
X-2236676Y-15259798D01*
X-2236674Y-15259799D01*
X-2069745Y-15375986D01*
X-1882848Y-15456189D01*
X-1683630Y-15497130D01*
X-1381940Y-15497130D01*
X-1381940Y-14797130D01*
X-881940Y-14797130D01*
X-881940Y-15497130D01*
X-631227Y-15497130D01*
X-479602Y-15481711D01*
X-285559Y-15420830D01*
X-285549Y-15420825D01*
X-107725Y-15322124D01*
X-107724Y-15322124D01*
X46590Y-15189651D01*
X46591Y-15189650D01*
X171078Y-15028825D01*
X260648Y-14846223D01*
X286306Y-14747130D01*
X1544694Y-14747130D01*
X1544991Y-14749076D01*
X1544993Y-14749082D01*
X1615622Y-14939787D01*
X1615625Y-14939794D01*
X1723209Y-15112397D01*
X1863324Y-15259798D01*
X1863326Y-15259799D01*
X2030255Y-15375986D01*
X2217152Y-15456189D01*
X2416370Y-15497130D01*
X2818060Y-15497130D01*
X2818060Y-14797130D01*
X3318060Y-14797130D01*
X3318060Y-15497130D01*
X3668773Y-15497130D01*
X3820398Y-15481711D01*
X4014441Y-15420830D01*
X4014451Y-15420825D01*
X4192275Y-15322124D01*
X4192276Y-15322124D01*
X4346590Y-15189651D01*
X4346591Y-15189650D01*
X4471078Y-15028825D01*
X4560648Y-14846223D01*
X4586306Y-14747130D01*
X3834171Y-14747130D01*
X3873670Y-14722673D01*
X3941261Y-14633168D01*
X3971955Y-14525290D01*
X3961606Y-14413609D01*
X3911612Y-14313208D01*
X3839129Y-14247130D01*
X4591426Y-14247130D01*
X4591128Y-14245183D01*
X4591126Y-14245177D01*
X4520497Y-14054472D01*
X4520494Y-14054465D01*
X4412910Y-13881862D01*
X4272795Y-13734461D01*
X4272793Y-13734460D01*
X4105864Y-13618273D01*
X3918967Y-13538070D01*
X3719750Y-13497130D01*
X3318060Y-13497130D01*
X3318060Y-14197130D01*
X2818060Y-14197130D01*
X2818060Y-13595154D01*
X2837745Y-13528115D01*
X2863802Y-13498969D01*
X2955725Y-13424184D01*
X3039031Y-13306167D01*
X3087406Y-13170051D01*
X3097264Y-13025931D01*
X3067874Y-12884496D01*
X3001414Y-12756235D01*
X3001411Y-12756232D01*
X3001410Y-12756230D01*
X2902814Y-12650660D01*
X2779390Y-12575605D01*
X2779389Y-12575604D01*
X2779388Y-12575604D01*
X2731299Y-12562130D01*
X5205922Y-12562130D01*
X5224428Y-12750031D01*
X5279237Y-12930708D01*
X5368236Y-13097215D01*
X5368240Y-13097222D01*
X5488018Y-13243171D01*
X5633967Y-13362949D01*
X5633974Y-13362953D01*
X5748532Y-13424185D01*
X5800483Y-13451953D01*
X5981161Y-13506762D01*
X6169060Y-13525268D01*
X6356959Y-13506762D01*
X6537637Y-13451953D01*
X6704151Y-13362950D01*
X6850101Y-13243171D01*
X6969880Y-13097221D01*
X7058883Y-12930707D01*
X7113692Y-12750029D01*
X7132198Y-12562130D01*
X7113692Y-12374231D01*
X7088010Y-12289572D01*
X7084404Y-12270591D01*
X7083968Y-12270659D01*
X7083298Y-12266303D01*
X7083297Y-12266290D01*
X7005441Y-11924423D01*
X6930656Y-11596038D01*
X6927560Y-11568504D01*
X6927560Y-8755754D01*
X6930656Y-8728219D01*
X6932006Y-8722291D01*
X7083297Y-8057969D01*
X7085647Y-8047111D01*
X7085647Y-8047108D01*
X7086654Y-8042457D01*
X7086765Y-8042481D01*
X7089656Y-8029262D01*
X7113692Y-7950029D01*
X7132198Y-7762130D01*
X7113692Y-7574231D01*
X7058883Y-7393553D01*
X7032357Y-7343926D01*
X6969883Y-7227044D01*
X6969879Y-7227037D01*
X6850101Y-7081088D01*
X6704152Y-6961310D01*
X6704145Y-6961306D01*
X6537638Y-6872307D01*
X6356961Y-6817498D01*
X6169060Y-6798992D01*
X5981158Y-6817498D01*
X5800481Y-6872307D01*
X5633974Y-6961306D01*
X5633967Y-6961310D01*
X5488018Y-7081088D01*
X5368240Y-7227037D01*
X5368236Y-7227044D01*
X5279237Y-7393551D01*
X5224428Y-7574228D01*
X5205922Y-7762130D01*
X5224427Y-7950027D01*
X5250106Y-8034679D01*
X5253715Y-8053652D01*
X5254148Y-8053586D01*
X5254822Y-8057972D01*
X5347408Y-8464514D01*
X5407463Y-8728219D01*
X5407464Y-8728221D01*
X5410560Y-8755756D01*
X5410560Y-11568502D01*
X5407464Y-11596037D01*
X5254816Y-12266310D01*
X5251464Y-12281803D01*
X5251355Y-12281779D01*
X5248458Y-12295011D01*
X5224428Y-12374230D01*
X5205922Y-12562130D01*
X2731299Y-12562130D01*
X2640288Y-12536630D01*
X2532111Y-12536630D01*
X2532110Y-12536630D01*
X2424949Y-12551359D01*
X2292449Y-12608911D01*
X2292449Y-12608912D01*
X2180398Y-12700073D01*
X2180393Y-12700078D01*
X2097088Y-12818093D01*
X2048714Y-12954204D01*
X2048714Y-12954207D01*
X2042274Y-13048366D01*
X2038856Y-13098329D01*
X2049565Y-13149864D01*
X2068246Y-13239764D01*
X2068247Y-13239766D01*
X2101476Y-13303894D01*
X2111154Y-13322573D01*
X2134705Y-13368023D01*
X2134709Y-13368029D01*
X2148248Y-13382526D01*
X2179619Y-13444957D01*
X2172257Y-13514438D01*
X2128499Y-13568908D01*
X2117801Y-13575580D01*
X1943844Y-13672134D01*
X1943843Y-13672135D01*
X1789529Y-13804608D01*
X1789528Y-13804609D01*
X1665041Y-13965434D01*
X1575471Y-14148036D01*
X1549814Y-14247130D01*
X2301949Y-14247130D01*
X2262450Y-14271587D01*
X2194859Y-14361092D01*
X2164165Y-14468970D01*
X2174514Y-14580651D01*
X2224508Y-14681052D01*
X2296991Y-14747130D01*
X1544694Y-14747130D01*
X286306Y-14747130D01*
X-515829Y-14747130D01*
X-476330Y-14722673D01*
X-408739Y-14633168D01*
X-378045Y-14525290D01*
X-388394Y-14413609D01*
X-438388Y-14313208D01*
X-510871Y-14247130D01*
X291426Y-14247130D01*
X291128Y-14245183D01*
X291126Y-14245177D01*
X220497Y-14054472D01*
X220494Y-14054465D01*
X112910Y-13881862D01*
X-27205Y-13734461D01*
X-27207Y-13734460D01*
X-194136Y-13618273D01*
X-381033Y-13538070D01*
X-580250Y-13497130D01*
X-881940Y-13497130D01*
X-881940Y-14197130D01*
X-1381940Y-14197130D01*
X-1381940Y-13497130D01*
X-1632653Y-13497130D01*
X-1784279Y-13512548D01*
X-1978322Y-13573429D01*
X-1978332Y-13573434D01*
X-2156156Y-13672135D01*
X-2156157Y-13672135D01*
X-2310471Y-13804608D01*
X-2310472Y-13804609D01*
X-2434959Y-13965434D01*
X-2524529Y-14148035D01*
X-2525459Y-14151630D01*
X-2526512Y-14153390D01*
X-2526712Y-14153931D01*
X-2526813Y-14153893D01*
X-2561320Y-14211595D01*
X-2623907Y-14242652D01*
X-2693350Y-14234943D01*
X-2747601Y-14190913D01*
X-2769436Y-14124543D01*
X-2769500Y-14120547D01*
X-2769500Y-10422133D01*
X2135761Y-10422133D01*
X2154896Y-10591974D01*
X2154897Y-10591979D01*
X2211351Y-10753313D01*
X2302081Y-10897709D01*
X2302289Y-10898039D01*
X2423151Y-11018901D01*
X2567877Y-11109839D01*
X2729210Y-11166292D01*
X2729215Y-11166293D01*
X2899056Y-11185429D01*
X2899060Y-11185429D01*
X2899064Y-11185429D01*
X3068904Y-11166293D01*
X3068907Y-11166292D01*
X3068910Y-11166292D01*
X3230243Y-11109839D01*
X3374969Y-11018901D01*
X3495831Y-10898039D01*
X3586769Y-10753313D01*
X3643222Y-10591980D01*
X3647542Y-10553637D01*
X3662359Y-10422133D01*
X3662359Y-10422126D01*
X3643223Y-10252287D01*
X3643221Y-10252279D01*
X3637338Y-10235466D01*
X3623473Y-10195841D01*
X3618311Y-10175919D01*
X3615224Y-10157985D01*
X3615223Y-10157979D01*
X3551202Y-9960338D01*
X3549271Y-9890498D01*
X3551196Y-9883940D01*
X3615223Y-9686279D01*
X3624540Y-9653935D01*
X3624540Y-9653928D01*
X3625582Y-9648590D01*
X3625973Y-9648666D01*
X3630594Y-9628063D01*
X3643222Y-9591980D01*
X3644589Y-9579849D01*
X3662359Y-9422133D01*
X3662359Y-9422126D01*
X3643223Y-9252285D01*
X3643222Y-9252280D01*
X3638979Y-9240155D01*
X3586769Y-9090947D01*
X3495831Y-8946221D01*
X3374969Y-8825359D01*
X3374968Y-8825358D01*
X3230243Y-8734421D01*
X3068909Y-8677967D01*
X3068904Y-8677966D01*
X2899064Y-8658831D01*
X2899056Y-8658831D01*
X2729215Y-8677966D01*
X2729210Y-8677967D01*
X2567876Y-8734421D01*
X2423151Y-8825358D01*
X2302288Y-8946221D01*
X2211351Y-9090946D01*
X2154897Y-9252280D01*
X2154896Y-9252285D01*
X2135761Y-9422126D01*
X2135761Y-9422133D01*
X2154897Y-9591977D01*
X2174646Y-9648418D01*
X2179806Y-9668333D01*
X2182895Y-9686277D01*
X2182896Y-9686280D01*
X2246914Y-9883919D01*
X2248845Y-9953762D01*
X2246914Y-9960341D01*
X2182896Y-10157979D01*
X2173578Y-10190325D01*
X2172537Y-10195665D01*
X2172150Y-10195589D01*
X2167523Y-10216196D01*
X2154898Y-10252279D01*
X2154896Y-10252286D01*
X2135761Y-10422126D01*
X2135761Y-10422133D01*
X-2769500Y-10422133D01*
X-2769500Y-6211776D01*
X-2749815Y-6144737D01*
X-2697011Y-6098982D01*
X-2627853Y-6089038D01*
X-2564297Y-6118063D01*
X-2529218Y-6168711D01*
X-2484375Y-6289795D01*
X-2376791Y-6462397D01*
X-2236676Y-6609798D01*
X-2236674Y-6609799D01*
X-2069745Y-6725986D01*
X-1882848Y-6806189D01*
X-1683630Y-6847130D01*
X-1381940Y-6847130D01*
X-1381940Y-6147130D01*
X-881940Y-6147130D01*
X-881940Y-6847130D01*
X-631227Y-6847130D01*
X-479602Y-6831711D01*
X-285559Y-6770830D01*
X-285549Y-6770825D01*
X-107725Y-6672124D01*
X-107724Y-6672124D01*
X46590Y-6539651D01*
X46591Y-6539650D01*
X171078Y-6378825D01*
X260648Y-6196223D01*
X286306Y-6097130D01*
X1544694Y-6097130D01*
X1544991Y-6099076D01*
X1544993Y-6099082D01*
X1615622Y-6289787D01*
X1615625Y-6289794D01*
X1723209Y-6462397D01*
X1863324Y-6609798D01*
X1863326Y-6609799D01*
X2030256Y-6725987D01*
X2109942Y-6760182D01*
X2163786Y-6804708D01*
X2185010Y-6871276D01*
X2166875Y-6938751D01*
X2162348Y-6945641D01*
X2097088Y-7038093D01*
X2048714Y-7174204D01*
X2048714Y-7174207D01*
X2039184Y-7313540D01*
X2038856Y-7318329D01*
X2068132Y-7459216D01*
X2068246Y-7459764D01*
X2068247Y-7459766D01*
X2134705Y-7588023D01*
X2134709Y-7588029D01*
X2200794Y-7658788D01*
X2233305Y-7693599D01*
X2356732Y-7768656D01*
X2495832Y-7807630D01*
X2495833Y-7807630D01*
X2604010Y-7807630D01*
X2615562Y-7806041D01*
X2711171Y-7792901D01*
X2843669Y-7735349D01*
X2955725Y-7644184D01*
X3039031Y-7526167D01*
X3062825Y-7459216D01*
X3087405Y-7390055D01*
X3087405Y-7390053D01*
X3087406Y-7390051D01*
X3097264Y-7245931D01*
X3067874Y-7104496D01*
X3001414Y-6976235D01*
X3001411Y-6976232D01*
X3001410Y-6976230D01*
X2902815Y-6870661D01*
X2877631Y-6855346D01*
X2830579Y-6803694D01*
X2818060Y-6749398D01*
X2818060Y-6147130D01*
X3318060Y-6147130D01*
X3318060Y-6847130D01*
X3668773Y-6847130D01*
X3820398Y-6831711D01*
X4014441Y-6770830D01*
X4014451Y-6770825D01*
X4192275Y-6672124D01*
X4192276Y-6672124D01*
X4346590Y-6539651D01*
X4346591Y-6539650D01*
X4471078Y-6378825D01*
X4560648Y-6196223D01*
X4586306Y-6097130D01*
X3834171Y-6097130D01*
X3873670Y-6072673D01*
X3941261Y-5983168D01*
X3971955Y-5875290D01*
X3961606Y-5763609D01*
X3911612Y-5663208D01*
X3839129Y-5597130D01*
X4591426Y-5597130D01*
X4591128Y-5595183D01*
X4591126Y-5595177D01*
X4520497Y-5404472D01*
X4520494Y-5404465D01*
X4412910Y-5231862D01*
X4272795Y-5084461D01*
X4272793Y-5084460D01*
X4105864Y-4968273D01*
X3918967Y-4888070D01*
X3719750Y-4847130D01*
X3318060Y-4847130D01*
X3318060Y-5547130D01*
X2818060Y-5547130D01*
X2818060Y-4847130D01*
X2467347Y-4847130D01*
X2315721Y-4862548D01*
X2121678Y-4923429D01*
X2121668Y-4923434D01*
X1943844Y-5022135D01*
X1943843Y-5022135D01*
X1789529Y-5154608D01*
X1789528Y-5154609D01*
X1665041Y-5315434D01*
X1575471Y-5498036D01*
X1549814Y-5597130D01*
X2301949Y-5597130D01*
X2262450Y-5621587D01*
X2194859Y-5711092D01*
X2164165Y-5818970D01*
X2174514Y-5930651D01*
X2224508Y-6031052D01*
X2296991Y-6097130D01*
X1544694Y-6097130D01*
X286306Y-6097130D01*
X-515829Y-6097130D01*
X-476330Y-6072673D01*
X-408739Y-5983168D01*
X-378045Y-5875290D01*
X-388394Y-5763609D01*
X-438388Y-5663208D01*
X-510871Y-5597130D01*
X291426Y-5597130D01*
X291128Y-5595183D01*
X291126Y-5595177D01*
X220497Y-5404472D01*
X220494Y-5404465D01*
X112910Y-5231862D01*
X-27205Y-5084461D01*
X-27207Y-5084460D01*
X-194136Y-4968273D01*
X-381033Y-4888070D01*
X-580250Y-4847130D01*
X-881940Y-4847130D01*
X-881940Y-5547130D01*
X-1381940Y-5547130D01*
X-1381940Y-4847130D01*
X-1632653Y-4847130D01*
X-1784279Y-4862548D01*
X-1978322Y-4923429D01*
X-1978332Y-4923434D01*
X-2156156Y-5022135D01*
X-2156157Y-5022135D01*
X-2310471Y-5154608D01*
X-2310472Y-5154609D01*
X-2434959Y-5315434D01*
X-2524529Y-5498035D01*
X-2525459Y-5501630D01*
X-2526512Y-5503390D01*
X-2526712Y-5503931D01*
X-2526813Y-5503893D01*
X-2561320Y-5561595D01*
X-2623907Y-5592652D01*
X-2693350Y-5584943D01*
X-2747601Y-5540913D01*
X-2769436Y-5474543D01*
X-2769500Y-5470547D01*
X-2769500Y-2190003D01*
X-2034189Y-2190003D01*
X-2027261Y-2264776D01*
X-2026873Y-2270313D01*
X-2023149Y-2348470D01*
X-2023148Y-2348475D01*
X-2019385Y-2363986D01*
X-2016419Y-2381774D01*
X-2015234Y-2394559D01*
X-1998739Y-2452535D01*
X-1993740Y-2470102D01*
X-1992502Y-2474802D01*
X-1973239Y-2554201D01*
X-1973238Y-2554206D01*
X-1968049Y-2565568D01*
X-1961581Y-2583134D01*
X-1959018Y-2592141D01*
X-1959012Y-2592157D01*
X-1922464Y-2665554D01*
X-1920670Y-2669314D01*
X-1885299Y-2746765D01*
X-1885293Y-2746776D01*
X-1880061Y-2754123D01*
X-1870072Y-2770771D01*
X-1867444Y-2776048D01*
X-1867442Y-2776052D01*
X-1815951Y-2844236D01*
X-1813898Y-2847035D01*
X-1762497Y-2919218D01*
X-1762495Y-2919219D01*
X-1758481Y-2923047D01*
X-1745103Y-2938057D01*
X-1743648Y-2939983D01*
X-1743645Y-2939987D01*
X-1743642Y-2939989D01*
X-1743641Y-2939991D01*
X-1677900Y-2999922D01*
X-1675907Y-3001780D01*
X-1609286Y-3065303D01*
X-1607542Y-3066424D01*
X-1596421Y-3074970D01*
X-1596396Y-3074938D01*
X-1591821Y-3078393D01*
X-1513255Y-3127039D01*
X-1511538Y-3128122D01*
X-1431194Y-3179756D01*
X-1431192Y-3179757D01*
X-1425940Y-3182465D01*
X-1425974Y-3182529D01*
X-1422452Y-3184308D01*
X-1422290Y-3183984D01*
X-1417167Y-3186534D01*
X-1417158Y-3186540D01*
X-1368607Y-3205348D01*
X-1327780Y-3221164D01*
X-1326552Y-3221647D01*
X-1283186Y-3239009D01*
X-1234662Y-3258436D01*
X-1232693Y-3259013D01*
X-1226600Y-3260465D01*
X-1225601Y-3260749D01*
X-1225600Y-3260749D01*
X-1225595Y-3260751D01*
X-1127768Y-3279037D01*
X-1127657Y-3279058D01*
X-1026789Y-3298500D01*
X-1026784Y-3298500D01*
X-818224Y-3298500D01*
X-818222Y-3298500D01*
X-771543Y-3289773D01*
X-760591Y-3288229D01*
X-710201Y-3283419D01*
X-674879Y-3273047D01*
X-668289Y-3271112D01*
X-656154Y-3268203D01*
X-616285Y-3260751D01*
X-568813Y-3242360D01*
X-558954Y-3239009D01*
X-528068Y-3229939D01*
X-507078Y-3223777D01*
X-494546Y-3217315D01*
X-471331Y-3205348D01*
X-459306Y-3199937D01*
X-424722Y-3186540D01*
X-378483Y-3157909D01*
X-370021Y-3153118D01*
X-321591Y-3128151D01*
X-318914Y-3126771D01*
X-290018Y-3104046D01*
X-278658Y-3096099D01*
X-250058Y-3078392D01*
X-207307Y-3039417D01*
X-200446Y-3033606D01*
X-152508Y-2995908D01*
X-130709Y-2970749D01*
X-120535Y-2960316D01*
X-114496Y-2954809D01*
X-98239Y-2939991D01*
X-61286Y-2891055D01*
X-56076Y-2884618D01*
X-13875Y-2835918D01*
X1049Y-2810066D01*
X9468Y-2797361D01*
X25563Y-2776050D01*
X54424Y-2718088D01*
X58037Y-2711360D01*
X91973Y-2652582D01*
X100597Y-2627661D01*
X106769Y-2612965D01*
X117134Y-2592152D01*
X135805Y-2526527D01*
X137887Y-2519921D01*
X161210Y-2452535D01*
X161213Y-2452527D01*
X164472Y-2429857D01*
X167938Y-2413590D01*
X173354Y-2394559D01*
X179966Y-2323199D01*
X180698Y-2317003D01*
X183214Y-2299509D01*
X191341Y-2242984D01*
X190416Y-2223578D01*
X190803Y-2206238D01*
X192309Y-2190000D01*
X185378Y-2115214D01*
X184990Y-2109679D01*
X182619Y-2059905D01*
X181268Y-2031526D01*
X177501Y-2016002D01*
X174538Y-1998229D01*
X173354Y-1985441D01*
X151843Y-1909840D01*
X150616Y-1905182D01*
X145376Y-1883581D01*
X131358Y-1825796D01*
X126167Y-1814430D01*
X119696Y-1796853D01*
X117136Y-1787856D01*
X117134Y-1787848D01*
X80571Y-1714421D01*
X78776Y-1710659D01*
X43415Y-1633227D01*
X38181Y-1625877D01*
X28189Y-1609224D01*
X25563Y-1603950D01*
X-25938Y-1535752D01*
X-27984Y-1532963D01*
X-79381Y-1460785D01*
X-79386Y-1460780D01*
X-83394Y-1456958D01*
X-96787Y-1441931D01*
X-98232Y-1440018D01*
X-98235Y-1440014D01*
X-98236Y-1440013D01*
X-98239Y-1440009D01*
X-164027Y-1380036D01*
X-165938Y-1378253D01*
X-232594Y-1314697D01*
X-232597Y-1314694D01*
X-234339Y-1313575D01*
X-245460Y-1305029D01*
X-245484Y-1305062D01*
X-250063Y-1301604D01*
X-328613Y-1252967D01*
X-330373Y-1251857D01*
X-410682Y-1200246D01*
X-415941Y-1197535D01*
X-415908Y-1197470D01*
X-419428Y-1195692D01*
X-419589Y-1196016D01*
X-424727Y-1193457D01*
X-514057Y-1158851D01*
X-515349Y-1158343D01*
X-607218Y-1121564D01*
X-609179Y-1120988D01*
X-615260Y-1119540D01*
X-616280Y-1119250D01*
X-713923Y-1100996D01*
X-714603Y-1100867D01*
X-815090Y-1081500D01*
X-815091Y-1081500D01*
X-818222Y-1081500D01*
X-1023658Y-1081500D01*
X-1023664Y-1081500D01*
X-1070326Y-1090222D01*
X-1081318Y-1091771D01*
X-1131675Y-1096580D01*
X-1131679Y-1096580D01*
X-1131679Y-1096581D01*
X-1154685Y-1103336D01*
X-1173594Y-1108888D01*
X-1185740Y-1111798D01*
X-1225589Y-1119247D01*
X-1225602Y-1119251D01*
X-1273074Y-1137641D01*
X-1282929Y-1140991D01*
X-1334800Y-1156222D01*
X-1370551Y-1174652D01*
X-1382569Y-1180059D01*
X-1417159Y-1193460D01*
X-1417160Y-1193460D01*
X-1463400Y-1222091D01*
X-1471855Y-1226878D01*
X-1522963Y-1253226D01*
X-1551858Y-1275949D01*
X-1563226Y-1283901D01*
X-1591825Y-1301609D01*
X-1634565Y-1340571D01*
X-1641446Y-1346400D01*
X-1689375Y-1384093D01*
X-1711177Y-1409253D01*
X-1721342Y-1419678D01*
X-1743639Y-1440006D01*
X-1780574Y-1488915D01*
X-1785813Y-1495387D01*
X-1828004Y-1544079D01*
X-1842926Y-1569925D01*
X-1851353Y-1582641D01*
X-1867443Y-1603950D01*
X-1867444Y-1603951D01*
X-1867444Y-1603952D01*
X-1867449Y-1603960D01*
X-1896308Y-1661914D01*
X-1899918Y-1668637D01*
X-1933852Y-1727414D01*
X-1942476Y-1752331D01*
X-1948652Y-1767036D01*
X-1959012Y-1787842D01*
X-1959017Y-1787856D01*
X-1977684Y-1853459D01*
X-1979768Y-1860077D01*
X-2003094Y-1927475D01*
X-2006353Y-1950137D01*
X-2009821Y-1966409D01*
X-2015234Y-1985437D01*
X-2021847Y-2056796D01*
X-2022580Y-2062999D01*
X-2033221Y-2137010D01*
X-2033221Y-2137015D01*
X-2032297Y-2156434D01*
X-2032685Y-2173766D01*
X-2034189Y-2190003D01*
X-2769500Y-2190003D01*
X-2769500Y-2006550D01*
X-2769184Y-1997706D01*
X-2769174Y-1997565D01*
X-2752328Y-1761989D01*
X-2749812Y-1744482D01*
X-2742455Y-1710659D01*
X-2700521Y-1517880D01*
X-2695544Y-1500929D01*
X-2614506Y-1283650D01*
X-2607165Y-1267575D01*
X-2496029Y-1064039D01*
X-2486474Y-1049171D01*
X-2347499Y-863519D01*
X-2335925Y-850163D01*
X-2171955Y-686190D01*
X-2158600Y-674617D01*
X-1972952Y-535641D01*
X-1958079Y-526083D01*
X-1754548Y-414945D01*
X-1738484Y-407609D01*
X-1521192Y-326562D01*
X-1504236Y-321584D01*
X-1277644Y-272292D01*
X-1260143Y-269775D01*
X-1024837Y-252946D01*
X-1015991Y-252630D01*
X-975830Y-252630D01*
X531621Y-252630D01*
X598660Y-272315D01*
G37*
%TD.AperFunction*%
%TA.AperFunction,Conductor*%
G36*
X7327307Y-2857168D02*
G01*
X7920229Y-3052622D01*
X7969088Y-3082707D01*
X11912707Y-7026326D01*
X11923402Y-7038521D01*
X11942942Y-7063987D01*
X11974852Y-7088473D01*
X11974853Y-7088473D01*
X11974857Y-7088476D01*
X11974858Y-7088477D01*
X12024155Y-7126303D01*
X12024156Y-7126305D01*
X12059375Y-7153328D01*
X12070055Y-7161524D01*
X12070057Y-7161524D01*
X12070059Y-7161526D01*
X12141224Y-7191003D01*
X12218080Y-7222838D01*
X12337045Y-7238500D01*
X12337050Y-7238500D01*
X12341053Y-7239027D01*
X12341071Y-7239029D01*
X12363275Y-7241952D01*
X12376929Y-7243750D01*
X12376930Y-7243750D01*
X12376931Y-7243750D01*
X12408750Y-7239561D01*
X12424935Y-7238500D01*
X23413889Y-7238500D01*
X23452100Y-7244534D01*
X23765849Y-7346163D01*
X23798194Y-7355480D01*
X23798207Y-7355481D01*
X23803540Y-7356522D01*
X23803463Y-7356913D01*
X23824064Y-7361534D01*
X23860150Y-7374162D01*
X23860154Y-7374162D01*
X23860156Y-7374163D01*
X24029996Y-7393299D01*
X24030000Y-7393299D01*
X24030004Y-7393299D01*
X24199844Y-7374163D01*
X24199846Y-7374162D01*
X24199850Y-7374162D01*
X24199853Y-7374160D01*
X24199857Y-7374160D01*
X24359411Y-7318329D01*
X24361183Y-7317709D01*
X24361192Y-7317703D01*
X24364938Y-7315898D01*
X24369161Y-7313550D01*
X24620968Y-7191002D01*
X24675230Y-7178500D01*
X58774459Y-7178500D01*
X58841498Y-7198185D01*
X58862140Y-7214819D01*
X62212827Y-10565506D01*
X62242662Y-10613615D01*
X62664094Y-11865137D01*
X62666783Y-11874265D01*
X62670702Y-11889742D01*
X62670704Y-11889748D01*
X62675719Y-11901181D01*
X62679675Y-11911409D01*
X62684058Y-11924423D01*
X62689786Y-11940541D01*
X62690069Y-11941299D01*
X62690072Y-11941305D01*
X62720024Y-12006884D01*
X62723397Y-12012575D01*
X62722782Y-12012939D01*
X62730724Y-12026580D01*
X62761140Y-12095922D01*
X62884276Y-12284395D01*
X62884284Y-12284406D01*
X63036756Y-12450032D01*
X63036760Y-12450036D01*
X63214424Y-12588319D01*
X63214429Y-12588321D01*
X63214431Y-12588323D01*
X63250930Y-12608076D01*
X63300520Y-12657295D01*
X63315628Y-12725512D01*
X63291457Y-12791067D01*
X63250930Y-12826184D01*
X63214431Y-12845936D01*
X63214422Y-12845942D01*
X63036761Y-12984222D01*
X63036756Y-12984227D01*
X62884284Y-13149853D01*
X62884276Y-13149864D01*
X62761140Y-13338337D01*
X62670703Y-13544515D01*
X62615436Y-13762758D01*
X62615434Y-13762770D01*
X62596844Y-13987124D01*
X62596844Y-13987135D01*
X62615434Y-14211489D01*
X62615436Y-14211501D01*
X62670703Y-14429744D01*
X62761140Y-14635922D01*
X62884276Y-14824395D01*
X62884284Y-14824406D01*
X63002739Y-14953080D01*
X63036760Y-14990036D01*
X63214424Y-15128319D01*
X63214425Y-15128319D01*
X63214427Y-15128321D01*
X63299981Y-15174620D01*
X63412426Y-15235472D01*
X63625365Y-15308574D01*
X63847431Y-15345630D01*
X64072569Y-15345630D01*
X64294635Y-15308574D01*
X64507574Y-15235472D01*
X64705576Y-15128319D01*
X64883240Y-14990036D01*
X64933332Y-14935621D01*
X64993217Y-14899633D01*
X65063055Y-14901733D01*
X65120671Y-14941257D01*
X65147773Y-15005656D01*
X65148560Y-15019606D01*
X65148560Y-18326764D01*
X65148244Y-18335610D01*
X65131386Y-18571323D01*
X65128868Y-18588835D01*
X65079581Y-18815408D01*
X65074597Y-18832384D01*
X64993561Y-19049648D01*
X64986211Y-19065741D01*
X64875084Y-19269254D01*
X64865519Y-19284138D01*
X64843967Y-19312928D01*
X64727329Y-19468736D01*
X64726565Y-19469756D01*
X64714979Y-19483127D01*
X64551009Y-19647095D01*
X64537637Y-19658681D01*
X64352012Y-19797635D01*
X64337128Y-19807200D01*
X64133613Y-19918324D01*
X64117520Y-19925673D01*
X63900268Y-20006701D01*
X63883292Y-20011686D01*
X63656705Y-20060972D01*
X63639193Y-20063489D01*
X63403069Y-20080373D01*
X63394225Y-20080689D01*
X63344907Y-20080689D01*
X63344895Y-20080690D01*
X61536937Y-20080690D01*
X61469898Y-20061005D01*
X61424143Y-20008201D01*
X61414199Y-19939043D01*
X61443224Y-19875487D01*
X61445707Y-19872707D01*
X61449111Y-19869009D01*
X61494782Y-19819398D01*
X61617920Y-19630921D01*
X61708356Y-19424746D01*
X61763624Y-19206498D01*
X61764100Y-19200751D01*
X61782216Y-18982135D01*
X61782216Y-18982124D01*
X61763625Y-18757770D01*
X61763623Y-18757758D01*
X61758517Y-18737594D01*
X61708356Y-18539514D01*
X61617920Y-18333339D01*
X61616515Y-18331189D01*
X61519686Y-18182981D01*
X61494782Y-18144862D01*
X61494779Y-18144859D01*
X61494775Y-18144853D01*
X61481104Y-18130003D01*
X62176751Y-18130003D01*
X62183679Y-18204776D01*
X62184067Y-18210313D01*
X62187791Y-18288470D01*
X62187792Y-18288475D01*
X62191555Y-18303986D01*
X62194521Y-18321774D01*
X62195706Y-18334559D01*
X62212201Y-18392535D01*
X62217200Y-18410102D01*
X62218438Y-18414802D01*
X62237701Y-18494201D01*
X62237702Y-18494206D01*
X62242891Y-18505568D01*
X62249359Y-18523134D01*
X62251922Y-18532141D01*
X62251928Y-18532157D01*
X62288476Y-18605554D01*
X62290270Y-18609314D01*
X62325641Y-18686765D01*
X62325647Y-18686776D01*
X62330879Y-18694123D01*
X62340868Y-18710771D01*
X62343496Y-18716048D01*
X62343498Y-18716052D01*
X62394989Y-18784236D01*
X62397042Y-18787035D01*
X62448443Y-18859218D01*
X62448445Y-18859219D01*
X62452459Y-18863047D01*
X62465837Y-18878057D01*
X62467292Y-18879983D01*
X62467295Y-18879987D01*
X62467298Y-18879989D01*
X62467299Y-18879991D01*
X62533040Y-18939922D01*
X62535033Y-18941780D01*
X62601654Y-19005303D01*
X62603398Y-19006424D01*
X62614519Y-19014970D01*
X62614544Y-19014938D01*
X62619119Y-19018393D01*
X62697685Y-19067039D01*
X62699402Y-19068122D01*
X62761656Y-19108130D01*
X62779748Y-19119757D01*
X62785000Y-19122465D01*
X62784966Y-19122529D01*
X62788488Y-19124308D01*
X62788650Y-19123984D01*
X62793773Y-19126534D01*
X62793782Y-19126540D01*
X62883160Y-19161164D01*
X62884388Y-19161647D01*
X62918162Y-19175169D01*
X62976278Y-19198436D01*
X62978247Y-19199013D01*
X62984340Y-19200465D01*
X62985339Y-19200749D01*
X62985340Y-19200749D01*
X62985345Y-19200751D01*
X63083172Y-19219037D01*
X63083283Y-19219058D01*
X63184151Y-19238500D01*
X63184156Y-19238500D01*
X63392716Y-19238500D01*
X63392718Y-19238500D01*
X63439397Y-19229773D01*
X63450349Y-19228229D01*
X63500739Y-19223419D01*
X63542651Y-19211112D01*
X63554786Y-19208203D01*
X63594655Y-19200751D01*
X63642127Y-19182360D01*
X63651986Y-19179009D01*
X63682872Y-19169939D01*
X63703862Y-19163777D01*
X63716394Y-19157315D01*
X63739609Y-19145348D01*
X63751634Y-19139937D01*
X63786218Y-19126540D01*
X63832457Y-19097909D01*
X63840919Y-19093118D01*
X63889349Y-19068151D01*
X63892026Y-19066771D01*
X63920922Y-19044046D01*
X63932282Y-19036099D01*
X63960882Y-19018392D01*
X64003633Y-18979417D01*
X64010494Y-18973606D01*
X64058432Y-18935908D01*
X64080231Y-18910749D01*
X64090405Y-18900316D01*
X64096444Y-18894809D01*
X64112701Y-18879991D01*
X64149654Y-18831055D01*
X64154864Y-18824618D01*
X64197065Y-18775918D01*
X64211989Y-18750066D01*
X64220408Y-18737361D01*
X64236503Y-18716050D01*
X64265364Y-18658088D01*
X64268977Y-18651360D01*
X64268993Y-18651332D01*
X64302913Y-18592582D01*
X64311537Y-18567661D01*
X64317709Y-18552965D01*
X64328074Y-18532152D01*
X64346745Y-18466527D01*
X64348827Y-18459921D01*
X64372150Y-18392535D01*
X64372153Y-18392527D01*
X64375412Y-18369857D01*
X64378878Y-18353590D01*
X64384294Y-18334559D01*
X64390906Y-18263199D01*
X64391638Y-18257003D01*
X64398352Y-18210313D01*
X64402281Y-18182984D01*
X64401356Y-18163578D01*
X64401743Y-18146238D01*
X64403249Y-18130000D01*
X64396318Y-18055214D01*
X64395930Y-18049679D01*
X64395910Y-18049267D01*
X64392208Y-17971526D01*
X64388441Y-17956002D01*
X64385478Y-17938229D01*
X64384294Y-17925441D01*
X64362783Y-17849840D01*
X64361556Y-17845182D01*
X64342298Y-17765796D01*
X64337107Y-17754430D01*
X64330636Y-17736853D01*
X64329763Y-17733785D01*
X64328074Y-17727848D01*
X64297981Y-17667414D01*
X64291511Y-17654421D01*
X64289716Y-17650659D01*
X64284178Y-17638533D01*
X64254356Y-17573229D01*
X64249121Y-17565877D01*
X64239129Y-17549224D01*
X64236503Y-17543950D01*
X64213349Y-17513290D01*
X64185010Y-17475763D01*
X64182956Y-17472963D01*
X64131559Y-17400785D01*
X64131554Y-17400780D01*
X64127546Y-17396958D01*
X64114153Y-17381931D01*
X64112708Y-17380018D01*
X64112705Y-17380014D01*
X64112704Y-17380013D01*
X64112701Y-17380009D01*
X64046913Y-17320036D01*
X64045002Y-17318253D01*
X63978346Y-17254697D01*
X63978343Y-17254694D01*
X63976601Y-17253575D01*
X63965480Y-17245029D01*
X63965456Y-17245062D01*
X63960877Y-17241604D01*
X63882327Y-17192967D01*
X63880567Y-17191857D01*
X63800258Y-17140246D01*
X63794999Y-17137535D01*
X63795032Y-17137470D01*
X63791512Y-17135692D01*
X63791351Y-17136016D01*
X63786213Y-17133457D01*
X63696883Y-17098851D01*
X63695591Y-17098343D01*
X63603722Y-17061564D01*
X63601761Y-17060988D01*
X63595680Y-17059540D01*
X63594660Y-17059250D01*
X63497017Y-17040996D01*
X63496337Y-17040867D01*
X63395850Y-17021500D01*
X63395849Y-17021500D01*
X63392718Y-17021500D01*
X63187282Y-17021500D01*
X63187276Y-17021500D01*
X63140614Y-17030222D01*
X63129622Y-17031771D01*
X63079265Y-17036580D01*
X63079261Y-17036580D01*
X63079261Y-17036581D01*
X63037346Y-17048888D01*
X63025200Y-17051798D01*
X62985351Y-17059247D01*
X62985338Y-17059251D01*
X62937866Y-17077641D01*
X62928011Y-17080991D01*
X62876140Y-17096222D01*
X62840389Y-17114652D01*
X62828371Y-17120059D01*
X62793781Y-17133460D01*
X62793780Y-17133460D01*
X62747540Y-17162091D01*
X62739085Y-17166878D01*
X62687977Y-17193226D01*
X62659082Y-17215949D01*
X62647714Y-17223901D01*
X62619115Y-17241609D01*
X62576375Y-17280571D01*
X62569494Y-17286400D01*
X62521565Y-17324093D01*
X62499763Y-17349253D01*
X62489598Y-17359678D01*
X62467301Y-17380006D01*
X62430366Y-17428915D01*
X62425127Y-17435387D01*
X62382936Y-17484079D01*
X62368014Y-17509925D01*
X62359587Y-17522641D01*
X62343497Y-17543950D01*
X62343496Y-17543951D01*
X62343496Y-17543952D01*
X62343491Y-17543960D01*
X62314632Y-17601914D01*
X62311022Y-17608637D01*
X62277088Y-17667414D01*
X62268464Y-17692331D01*
X62262288Y-17707036D01*
X62251928Y-17727842D01*
X62251923Y-17727856D01*
X62233256Y-17793459D01*
X62231172Y-17800077D01*
X62207846Y-17867475D01*
X62204587Y-17890137D01*
X62201119Y-17906409D01*
X62195706Y-17925437D01*
X62189093Y-17996796D01*
X62188360Y-18002999D01*
X62177719Y-18077010D01*
X62177719Y-18077015D01*
X62178643Y-18096434D01*
X62178254Y-18113766D01*
X62177887Y-18117744D01*
X62176751Y-18130003D01*
X61481104Y-18130003D01*
X61342303Y-17979227D01*
X61342298Y-17979222D01*
X61176127Y-17849885D01*
X61164636Y-17840941D01*
X61164635Y-17840940D01*
X61164632Y-17840938D01*
X60966640Y-17733791D01*
X60966637Y-17733789D01*
X60966634Y-17733788D01*
X60966631Y-17733787D01*
X60966629Y-17733786D01*
X60924949Y-17719477D01*
X60909528Y-17712989D01*
X60895431Y-17705904D01*
X60895421Y-17705899D01*
X59582357Y-17266459D01*
X59534029Y-17236550D01*
X52691154Y-10393675D01*
X52680460Y-10381482D01*
X52678122Y-10378435D01*
X52660917Y-10356013D01*
X52660915Y-10356011D01*
X52660914Y-10356010D01*
X52629005Y-10331526D01*
X52629004Y-10331525D01*
X52629002Y-10331523D01*
X52593066Y-10303948D01*
X52533807Y-10258476D01*
X52533801Y-10258473D01*
X52385784Y-10197163D01*
X52385779Y-10197161D01*
X52366001Y-10194558D01*
X52262959Y-10180992D01*
X52262777Y-10180969D01*
X52255803Y-10180051D01*
X52226930Y-10176250D01*
X52226928Y-10176250D01*
X52226927Y-10176250D01*
X52195110Y-10180439D01*
X52178925Y-10181500D01*
X36710778Y-10181500D01*
X36677656Y-10176995D01*
X36352765Y-10086941D01*
X36330815Y-10081375D01*
X36328695Y-10081020D01*
X36308221Y-10075765D01*
X36279851Y-10065838D01*
X36279843Y-10065836D01*
X36110004Y-10046701D01*
X36109996Y-10046701D01*
X35940155Y-10065836D01*
X35940150Y-10065837D01*
X35778816Y-10122291D01*
X35634091Y-10213228D01*
X35513228Y-10334091D01*
X35422291Y-10478816D01*
X35365837Y-10640150D01*
X35365836Y-10640155D01*
X35346701Y-10809996D01*
X35346701Y-10810003D01*
X35365836Y-10979844D01*
X35365837Y-10979849D01*
X35390548Y-11050467D01*
X35394109Y-11120246D01*
X35390547Y-11132377D01*
X35345839Y-11260142D01*
X35345836Y-11260155D01*
X35326701Y-11429996D01*
X35326701Y-11430003D01*
X35345836Y-11599844D01*
X35345838Y-11599852D01*
X35388463Y-11721667D01*
X35392024Y-11791445D01*
X35388463Y-11803574D01*
X35355837Y-11896816D01*
X35355837Y-11896817D01*
X35336701Y-12066662D01*
X35336701Y-12066669D01*
X35355836Y-12236510D01*
X35355837Y-12236515D01*
X35412291Y-12397851D01*
X35420885Y-12411527D01*
X35439886Y-12478764D01*
X35419519Y-12545599D01*
X35366251Y-12590814D01*
X35315892Y-12601500D01*
X34670727Y-12601500D01*
X34603688Y-12581815D01*
X34557933Y-12529011D01*
X34547989Y-12459853D01*
X34553686Y-12436544D01*
X34577040Y-12369804D01*
X34577042Y-12369794D01*
X34596178Y-12199953D01*
X34596178Y-12199946D01*
X34577042Y-12030105D01*
X34577041Y-12030100D01*
X34545703Y-11940541D01*
X34520588Y-11868767D01*
X34429650Y-11724041D01*
X34308788Y-11603179D01*
X34308787Y-11603178D01*
X34164062Y-11512241D01*
X34002728Y-11455787D01*
X34002723Y-11455786D01*
X33832883Y-11436651D01*
X33832875Y-11436651D01*
X33663034Y-11455786D01*
X33663022Y-11455789D01*
X33642095Y-11463112D01*
X33625491Y-11467656D01*
X33309966Y-11530842D01*
X33269052Y-11539036D01*
X33244705Y-11541450D01*
X25790702Y-11541450D01*
X25723663Y-11521765D01*
X25677908Y-11468961D01*
X25667964Y-11399803D01*
X25680268Y-11361056D01*
X25731794Y-11260155D01*
X25733698Y-11256425D01*
X25756447Y-11225144D01*
X27714289Y-9267304D01*
X27775612Y-9233819D01*
X27801970Y-9230985D01*
X53999074Y-9230985D01*
X54066113Y-9250670D01*
X54086755Y-9267304D01*
X54224066Y-9404615D01*
X54246819Y-9435901D01*
X54397537Y-9731040D01*
X54399210Y-9734946D01*
X54399273Y-9734916D01*
X54402292Y-9741185D01*
X54408014Y-9750292D01*
X54411534Y-9756258D01*
X54413085Y-9759063D01*
X54416134Y-9763590D01*
X54416048Y-9763647D01*
X54419005Y-9767784D01*
X54493227Y-9885907D01*
X54493228Y-9885908D01*
X54493229Y-9885909D01*
X54614091Y-10006771D01*
X54758817Y-10097709D01*
X54862062Y-10133836D01*
X54920150Y-10154162D01*
X54920155Y-10154163D01*
X55089996Y-10173299D01*
X55090000Y-10173299D01*
X55090004Y-10173299D01*
X55259844Y-10154163D01*
X55259847Y-10154162D01*
X55259850Y-10154162D01*
X55421183Y-10097709D01*
X55565909Y-10006771D01*
X55686771Y-9885909D01*
X55777709Y-9741183D01*
X55834162Y-9579850D01*
X55835082Y-9571686D01*
X55853299Y-9410003D01*
X55853299Y-9409996D01*
X55834163Y-9240155D01*
X55834162Y-9240150D01*
X55830955Y-9230985D01*
X55777709Y-9078817D01*
X55686771Y-8934091D01*
X55565909Y-8813229D01*
X55565908Y-8813228D01*
X55421183Y-8722290D01*
X55414910Y-8719270D01*
X55414940Y-8719206D01*
X55411038Y-8717536D01*
X55115901Y-8566819D01*
X55084615Y-8544066D01*
X54766709Y-8226160D01*
X54756015Y-8213967D01*
X54736472Y-8188498D01*
X54736470Y-8188496D01*
X54736469Y-8188495D01*
X54704560Y-8164011D01*
X54704559Y-8164010D01*
X54704557Y-8164008D01*
X54668621Y-8136433D01*
X54609362Y-8090961D01*
X54609358Y-8090959D01*
X54461336Y-8029646D01*
X54444196Y-8027390D01*
X54441941Y-8027093D01*
X54441940Y-8027092D01*
X54338363Y-8013457D01*
X54338331Y-8013454D01*
X54338323Y-8013453D01*
X54327678Y-8012051D01*
X54302486Y-8008735D01*
X54302484Y-8008735D01*
X54270665Y-8012924D01*
X54254480Y-8013985D01*
X27546563Y-8013985D01*
X27530378Y-8012924D01*
X27498559Y-8008735D01*
X27498555Y-8008735D01*
X27462713Y-8013453D01*
X27462698Y-8013454D01*
X27462699Y-8013455D01*
X27339709Y-8029647D01*
X27339708Y-8029647D01*
X27191683Y-8090961D01*
X27188294Y-8093225D01*
X27185236Y-8095908D01*
X27098127Y-8162749D01*
X27098121Y-8162754D01*
X27064569Y-8188500D01*
X27045026Y-8213968D01*
X27034334Y-8226159D01*
X24895906Y-10364587D01*
X24864620Y-10387340D01*
X24569477Y-10538061D01*
X24565575Y-10539731D01*
X24565606Y-10539795D01*
X24559333Y-10542815D01*
X24550213Y-10548545D01*
X24544265Y-10552055D01*
X24541409Y-10553634D01*
X24536899Y-10556672D01*
X24536843Y-10556589D01*
X24532687Y-10559558D01*
X24414613Y-10633751D01*
X24352492Y-10695872D01*
X24291168Y-10729356D01*
X24221477Y-10724371D01*
X24177130Y-10695871D01*
X24121414Y-10640155D01*
X23984012Y-10502752D01*
X23968502Y-10483828D01*
X23766102Y-10180063D01*
X23763881Y-10176759D01*
X23761068Y-10173171D01*
X23761331Y-10172964D01*
X23752608Y-10161485D01*
X23699256Y-10076576D01*
X23578394Y-9955714D01*
X23578393Y-9955713D01*
X23433668Y-9864776D01*
X23272334Y-9808322D01*
X23272329Y-9808321D01*
X23102489Y-9789186D01*
X23102481Y-9789186D01*
X22932640Y-9808321D01*
X22932635Y-9808322D01*
X22771301Y-9864776D01*
X22626576Y-9955713D01*
X22505713Y-10076576D01*
X22414776Y-10221301D01*
X22358322Y-10382635D01*
X22358321Y-10382640D01*
X22339186Y-10552481D01*
X22339186Y-10552489D01*
X22354890Y-10691876D01*
X22342835Y-10760698D01*
X22295486Y-10812077D01*
X22227875Y-10829701D01*
X22161470Y-10807974D01*
X22143989Y-10793440D01*
X21573228Y-10222679D01*
X21549543Y-10189528D01*
X21406975Y-9898362D01*
X21406966Y-9898345D01*
X21404568Y-9893875D01*
X21400430Y-9884468D01*
X21397710Y-9878821D01*
X21397709Y-9878817D01*
X21391694Y-9869245D01*
X21390239Y-9866741D01*
X21389029Y-9864902D01*
X21389027Y-9864898D01*
X21389023Y-9864893D01*
X21388329Y-9863838D01*
X21386917Y-9861643D01*
X21386674Y-9861257D01*
X21306771Y-9734091D01*
X21185909Y-9613229D01*
X21185908Y-9613228D01*
X21041183Y-9522291D01*
X20879849Y-9465837D01*
X20879844Y-9465836D01*
X20710004Y-9446701D01*
X20709996Y-9446701D01*
X20540155Y-9465836D01*
X20540150Y-9465837D01*
X20378816Y-9522291D01*
X20234091Y-9613228D01*
X20113228Y-9734091D01*
X20022291Y-9878816D01*
X19965837Y-10040150D01*
X19965836Y-10040155D01*
X19946701Y-10209996D01*
X19946701Y-10210003D01*
X19965836Y-10379844D01*
X19965837Y-10379849D01*
X20022291Y-10541183D01*
X20084479Y-10640155D01*
X20113229Y-10685909D01*
X20234091Y-10806771D01*
X20378817Y-10897709D01*
X20378825Y-10897711D01*
X20384979Y-10900675D01*
X20389230Y-10902824D01*
X20676878Y-11055173D01*
X20706522Y-11077071D01*
X23235777Y-13606326D01*
X23246472Y-13618521D01*
X23266009Y-13643983D01*
X23266011Y-13643984D01*
X23266013Y-13643987D01*
X23272710Y-13649126D01*
X23313911Y-13705552D01*
X23318066Y-13775298D01*
X23283854Y-13836219D01*
X23222136Y-13868971D01*
X23197222Y-13871500D01*
X18061052Y-13871500D01*
X17994013Y-13851815D01*
X17973371Y-13835181D01*
X16974898Y-12836708D01*
X16950143Y-12801315D01*
X16669551Y-12197957D01*
X16669549Y-12197953D01*
X16669542Y-12197938D01*
X16649532Y-12159285D01*
X16648950Y-12158539D01*
X16637324Y-12140676D01*
X16584285Y-12041444D01*
X16547858Y-11997058D01*
X16464506Y-11895493D01*
X16318557Y-11775716D01*
X16318556Y-11775715D01*
X16180471Y-11701907D01*
X16171178Y-11696406D01*
X16162059Y-11690456D01*
X15558682Y-11409855D01*
X15523290Y-11385100D01*
X11083092Y-6944902D01*
X11061260Y-6915383D01*
X10825315Y-6471121D01*
X10810584Y-6445227D01*
X10807566Y-6440845D01*
X10807631Y-6440799D01*
X10799664Y-6429310D01*
X10741832Y-6329142D01*
X10733802Y-6320224D01*
X10621083Y-6195035D01*
X10621080Y-6195033D01*
X10621079Y-6195032D01*
X10621078Y-6195031D01*
X10513857Y-6117130D01*
X10475078Y-6088955D01*
X10437757Y-6072339D01*
X10415040Y-6059183D01*
X10408898Y-6054695D01*
X9964615Y-5818738D01*
X9935096Y-5796906D01*
X7200806Y-3062616D01*
X7167321Y-3001293D01*
X7172305Y-2931601D01*
X7214177Y-2875668D01*
X7279641Y-2851251D01*
X7327307Y-2857168D01*
G37*
%TD.AperFunction*%
%TA.AperFunction,Conductor*%
G36*
X37463628Y-15958185D02*
G01*
X37484270Y-15974819D01*
X37594066Y-16084615D01*
X37616819Y-16115901D01*
X37731824Y-16341105D01*
X37744782Y-16409762D01*
X37718565Y-16474527D01*
X37661495Y-16514835D01*
X37621390Y-16521500D01*
X36907581Y-16521500D01*
X36891438Y-16519717D01*
X36891417Y-16519945D01*
X36883655Y-16519211D01*
X36883653Y-16519211D01*
X36812771Y-16521439D01*
X36808875Y-16521500D01*
X36779758Y-16521500D01*
X36779755Y-16521500D01*
X36779739Y-16521501D01*
X36775251Y-16522068D01*
X36763623Y-16522983D01*
X36717363Y-16524437D01*
X36717353Y-16524439D01*
X36696612Y-16530464D01*
X36677572Y-16534407D01*
X36656136Y-16537116D01*
X36656121Y-16537119D01*
X36613083Y-16554158D01*
X36602040Y-16557939D01*
X36557589Y-16570855D01*
X36538998Y-16581850D01*
X36521529Y-16590408D01*
X36501436Y-16598364D01*
X36501435Y-16598364D01*
X36501434Y-16598365D01*
X36482979Y-16611772D01*
X36463986Y-16625572D01*
X36454226Y-16631983D01*
X36414382Y-16655546D01*
X36399103Y-16670826D01*
X36384317Y-16683455D01*
X36382091Y-16685073D01*
X36366830Y-16696161D01*
X36337324Y-16731827D01*
X36329463Y-16740465D01*
X35862285Y-17207643D01*
X35817415Y-17236337D01*
X34527953Y-17710689D01*
X34517647Y-17714606D01*
X34517256Y-17714759D01*
X34496221Y-17724566D01*
X34484096Y-17729458D01*
X34471490Y-17733786D01*
X34471484Y-17733788D01*
X34273487Y-17840938D01*
X34273482Y-17840942D01*
X34095821Y-17979222D01*
X34095816Y-17979227D01*
X33943344Y-18144853D01*
X33943336Y-18144864D01*
X33849311Y-18288780D01*
X33796165Y-18334137D01*
X33726933Y-18343560D01*
X33663598Y-18314058D01*
X33643928Y-18292081D01*
X33517173Y-18111056D01*
X33517168Y-18111050D01*
X33350142Y-17944024D01*
X33156638Y-17808529D01*
X32942552Y-17708700D01*
X32942546Y-17708697D01*
X32729060Y-17651494D01*
X32729060Y-18546628D01*
X32621375Y-18497450D01*
X32514823Y-18482130D01*
X32443297Y-18482130D01*
X32336745Y-18497450D01*
X32229060Y-18546628D01*
X32229060Y-17651494D01*
X32229059Y-17651494D01*
X32015573Y-17708697D01*
X32015567Y-17708700D01*
X31801482Y-17808529D01*
X31801480Y-17808530D01*
X31607986Y-17944016D01*
X31607980Y-17944021D01*
X31440951Y-18111050D01*
X31440950Y-18111052D01*
X31314191Y-18292082D01*
X31259614Y-18335707D01*
X31190115Y-18342899D01*
X31127761Y-18311377D01*
X31108812Y-18288786D01*
X31014782Y-18144862D01*
X31014775Y-18144855D01*
X31014775Y-18144853D01*
X30862303Y-17979227D01*
X30862298Y-17979222D01*
X30696127Y-17849885D01*
X30684636Y-17840941D01*
X30684635Y-17840940D01*
X30684632Y-17840938D01*
X30486640Y-17733791D01*
X30486637Y-17733789D01*
X30486634Y-17733788D01*
X30486631Y-17733787D01*
X30486629Y-17733786D01*
X30273697Y-17660686D01*
X30051629Y-17623630D01*
X29826491Y-17623630D01*
X29604422Y-17660686D01*
X29391490Y-17733786D01*
X29391479Y-17733791D01*
X29193487Y-17840938D01*
X29193482Y-17840942D01*
X29015821Y-17979222D01*
X29015816Y-17979227D01*
X28863344Y-18144853D01*
X28863336Y-18144864D01*
X28772868Y-18283336D01*
X28719722Y-18328692D01*
X28650491Y-18338116D01*
X28587155Y-18308614D01*
X28565252Y-18283336D01*
X28499686Y-18182981D01*
X28474782Y-18144862D01*
X28474779Y-18144859D01*
X28474775Y-18144853D01*
X28322303Y-17979227D01*
X28322298Y-17979222D01*
X28156127Y-17849885D01*
X28144636Y-17840941D01*
X28144635Y-17840940D01*
X28144632Y-17840938D01*
X27946640Y-17733791D01*
X27946637Y-17733789D01*
X27946634Y-17733788D01*
X27946631Y-17733787D01*
X27946629Y-17733786D01*
X27733697Y-17660686D01*
X27511629Y-17623630D01*
X27377470Y-17623630D01*
X27310431Y-17603945D01*
X27264676Y-17551141D01*
X27254732Y-17481983D01*
X27283757Y-17418427D01*
X27289789Y-17411949D01*
X27926282Y-16775457D01*
X28726920Y-15974819D01*
X28788243Y-15941334D01*
X28814601Y-15938500D01*
X37396589Y-15938500D01*
X37463628Y-15958185D01*
G37*
%TD.AperFunction*%
%TA.AperFunction,Conductor*%
G36*
X41710558Y-13838185D02*
G01*
X41731200Y-13854819D01*
X45392741Y-17516360D01*
X45426226Y-17577683D01*
X45429060Y-17604041D01*
X45429060Y-18546628D01*
X45321375Y-18497450D01*
X45214823Y-18482130D01*
X45143297Y-18482130D01*
X45036745Y-18497450D01*
X44929060Y-18546628D01*
X44929060Y-17651494D01*
X44929059Y-17651494D01*
X44715573Y-17708697D01*
X44715567Y-17708700D01*
X44501482Y-17808529D01*
X44501480Y-17808530D01*
X44307986Y-17944016D01*
X44307980Y-17944021D01*
X44140951Y-18111050D01*
X44140950Y-18111052D01*
X44014191Y-18292082D01*
X43959614Y-18335707D01*
X43890115Y-18342899D01*
X43827761Y-18311377D01*
X43808812Y-18288786D01*
X43714782Y-18144862D01*
X43714775Y-18144855D01*
X43714775Y-18144853D01*
X43562303Y-17979227D01*
X43562298Y-17979222D01*
X43396127Y-17849885D01*
X43384636Y-17840941D01*
X43384635Y-17840940D01*
X43384632Y-17840938D01*
X43186640Y-17733791D01*
X43186637Y-17733790D01*
X43186634Y-17733788D01*
X43158721Y-17724205D01*
X43140050Y-17716023D01*
X43130207Y-17710705D01*
X41840704Y-17236338D01*
X41795834Y-17207644D01*
X41363647Y-16775457D01*
X41353494Y-16762785D01*
X41353318Y-16762931D01*
X41348345Y-16756919D01*
X41296655Y-16708379D01*
X41293858Y-16705668D01*
X38713647Y-14125457D01*
X38703494Y-14112785D01*
X38703318Y-14112931D01*
X38698345Y-14106919D01*
X38646655Y-14058379D01*
X38643858Y-14055668D01*
X38620508Y-14032318D01*
X38621267Y-14031558D01*
X38586493Y-13976415D01*
X38587091Y-13906548D01*
X38625367Y-13848096D01*
X38689169Y-13819616D01*
X38705765Y-13818500D01*
X41643519Y-13818500D01*
X41710558Y-13838185D01*
G37*
%TD.AperFunction*%
%TA.AperFunction,Conductor*%
G36*
X48190294Y-12694851D02*
G01*
X48210936Y-12711485D01*
X53012741Y-17513290D01*
X53046226Y-17574613D01*
X53049060Y-17600971D01*
X53049060Y-18546628D01*
X52941375Y-18497450D01*
X52834823Y-18482130D01*
X52763297Y-18482130D01*
X52656745Y-18497450D01*
X52549060Y-18546628D01*
X52549060Y-17651494D01*
X52549059Y-17651494D01*
X52335573Y-17708697D01*
X52335567Y-17708700D01*
X52121482Y-17808529D01*
X52121480Y-17808530D01*
X51927986Y-17944016D01*
X51927980Y-17944021D01*
X51760951Y-18111050D01*
X51760950Y-18111052D01*
X51634191Y-18292082D01*
X51579614Y-18335707D01*
X51510115Y-18342899D01*
X51447761Y-18311377D01*
X51428812Y-18288786D01*
X51334782Y-18144862D01*
X51334775Y-18144855D01*
X51334775Y-18144853D01*
X51182303Y-17979227D01*
X51182298Y-17979222D01*
X51016127Y-17849885D01*
X51004636Y-17840941D01*
X51004635Y-17840940D01*
X51004632Y-17840938D01*
X50806640Y-17733791D01*
X50806637Y-17733789D01*
X50806634Y-17733788D01*
X50806631Y-17733787D01*
X50806629Y-17733786D01*
X50593697Y-17660686D01*
X50371629Y-17623630D01*
X50146491Y-17623630D01*
X49924422Y-17660686D01*
X49711490Y-17733786D01*
X49711479Y-17733791D01*
X49513487Y-17840938D01*
X49513482Y-17840942D01*
X49335821Y-17979222D01*
X49335816Y-17979227D01*
X49183344Y-18144853D01*
X49183336Y-18144864D01*
X49092868Y-18283336D01*
X49039722Y-18328692D01*
X48970491Y-18338116D01*
X48907155Y-18308614D01*
X48885252Y-18283336D01*
X48819686Y-18182981D01*
X48794782Y-18144862D01*
X48794779Y-18144859D01*
X48794775Y-18144853D01*
X48642303Y-17979227D01*
X48642298Y-17979222D01*
X48476127Y-17849885D01*
X48464636Y-17840941D01*
X48464635Y-17840940D01*
X48464632Y-17840938D01*
X48266640Y-17733791D01*
X48266637Y-17733789D01*
X48266634Y-17733788D01*
X48266631Y-17733787D01*
X48266629Y-17733786D01*
X48224949Y-17719477D01*
X48209528Y-17712989D01*
X48195431Y-17705904D01*
X48195421Y-17705899D01*
X46882357Y-17266459D01*
X46834029Y-17236550D01*
X42484326Y-12886847D01*
X42450841Y-12825524D01*
X42455825Y-12755832D01*
X42497697Y-12699899D01*
X42563161Y-12675482D01*
X42572007Y-12675166D01*
X48123255Y-12675166D01*
X48190294Y-12694851D01*
G37*
%TD.AperFunction*%
%TA.AperFunction,Conductor*%
G36*
X51990558Y-11418185D02*
G01*
X52011200Y-11434819D01*
X57873067Y-17296686D01*
X57906552Y-17358009D01*
X57901568Y-17427701D01*
X57859696Y-17483634D01*
X57794232Y-17508051D01*
X57746033Y-17501957D01*
X57042357Y-17266459D01*
X56994029Y-17236550D01*
X51367660Y-11610181D01*
X51334175Y-11548858D01*
X51339159Y-11479166D01*
X51381031Y-11423233D01*
X51446495Y-11398816D01*
X51455341Y-11398500D01*
X51923519Y-11398500D01*
X51990558Y-11418185D01*
G37*
%TD.AperFunction*%
%TA.AperFunction,Conductor*%
G36*
X50090558Y-12058185D02*
G01*
X50111200Y-12074819D01*
X55331879Y-17295498D01*
X55365364Y-17356821D01*
X55360380Y-17426513D01*
X55318508Y-17482446D01*
X55253044Y-17506863D01*
X55204711Y-17500724D01*
X54504315Y-17265436D01*
X54456121Y-17235572D01*
X49470730Y-12250181D01*
X49437245Y-12188858D01*
X49442229Y-12119166D01*
X49484101Y-12063233D01*
X49549565Y-12038816D01*
X49558411Y-12038500D01*
X50023519Y-12038500D01*
X50090558Y-12058185D01*
G37*
%TD.AperFunction*%
%TA.AperFunction,Conductor*%
G36*
X63354895Y-252631D02*
G01*
X63394641Y-252630D01*
X63403483Y-252945D01*
X63639198Y-269800D01*
X63656705Y-272316D01*
X63883297Y-321604D01*
X63900271Y-326589D01*
X64117527Y-407619D01*
X64133619Y-414967D01*
X64298250Y-504860D01*
X64337139Y-526094D01*
X64352021Y-535657D01*
X64537643Y-674611D01*
X64537658Y-674622D01*
X64551029Y-686209D01*
X64714986Y-850166D01*
X64726572Y-863536D01*
X64865538Y-1049172D01*
X64875097Y-1064047D01*
X64986227Y-1267568D01*
X64993575Y-1283659D01*
X65074609Y-1500926D01*
X65079593Y-1517901D01*
X65128880Y-1744477D01*
X65131398Y-1761989D01*
X65148244Y-1997565D01*
X65148560Y-2006410D01*
X65148560Y-4931164D01*
X65128875Y-4998203D01*
X65076071Y-5043958D01*
X65006913Y-5053902D01*
X64981228Y-5047346D01*
X64917383Y-5023533D01*
X64917372Y-5023531D01*
X64857844Y-5017130D01*
X64210000Y-5017130D01*
X64210000Y-5931628D01*
X64102315Y-5882450D01*
X63995763Y-5867130D01*
X63924237Y-5867130D01*
X63817685Y-5882450D01*
X63710000Y-5931628D01*
X63710000Y-5017130D01*
X63062155Y-5017130D01*
X63002627Y-5023531D01*
X63002620Y-5023533D01*
X62867913Y-5073775D01*
X62867906Y-5073779D01*
X62752812Y-5159939D01*
X62752809Y-5159942D01*
X62666649Y-5275036D01*
X62666645Y-5275043D01*
X62616403Y-5409750D01*
X62616401Y-5409757D01*
X62610000Y-5469285D01*
X62610000Y-6117130D01*
X63526314Y-6117130D01*
X63500507Y-6157286D01*
X63460000Y-6295241D01*
X63460000Y-6439019D01*
X63500507Y-6576974D01*
X63526314Y-6617130D01*
X62610000Y-6617130D01*
X62610000Y-7264974D01*
X62616401Y-7324502D01*
X62616403Y-7324509D01*
X62666645Y-7459216D01*
X62666649Y-7459223D01*
X62752809Y-7574317D01*
X62752812Y-7574320D01*
X62867906Y-7660480D01*
X62867913Y-7660484D01*
X62987810Y-7705203D01*
X63043744Y-7747074D01*
X63068161Y-7812539D01*
X63053309Y-7880812D01*
X63035706Y-7905368D01*
X62884284Y-8069853D01*
X62884276Y-8069864D01*
X62761140Y-8258337D01*
X62670703Y-8464515D01*
X62615436Y-8682758D01*
X62615434Y-8682770D01*
X62596844Y-8907124D01*
X62596844Y-8907126D01*
X62597939Y-8920343D01*
X62583857Y-8988778D01*
X62535011Y-9038737D01*
X62466909Y-9054357D01*
X62401174Y-9030679D01*
X62386681Y-9018262D01*
X59542094Y-6173675D01*
X59531400Y-6161482D01*
X59518551Y-6144737D01*
X59511857Y-6136013D01*
X59511855Y-6136011D01*
X59511854Y-6136010D01*
X59479945Y-6111526D01*
X59479944Y-6111525D01*
X59479942Y-6111523D01*
X59405882Y-6054694D01*
X59384747Y-6038476D01*
X59384743Y-6038474D01*
X59236721Y-5977161D01*
X59219581Y-5974905D01*
X59217326Y-5974608D01*
X59217325Y-5974607D01*
X59113748Y-5960972D01*
X59113716Y-5960969D01*
X59077871Y-5956250D01*
X59077869Y-5956250D01*
X59046050Y-5960439D01*
X59029865Y-5961500D01*
X46016203Y-5961500D01*
X45949164Y-5941815D01*
X45903409Y-5889011D01*
X45893465Y-5819853D01*
X45911210Y-5771528D01*
X45917707Y-5761187D01*
X45917707Y-5761185D01*
X45917709Y-5761183D01*
X45974162Y-5599850D01*
X45974163Y-5599844D01*
X45993299Y-5430003D01*
X45993299Y-5429996D01*
X45974163Y-5260155D01*
X45974162Y-5260150D01*
X45917709Y-5098817D01*
X45826771Y-4954091D01*
X45705909Y-4833229D01*
X45705908Y-4833228D01*
X45561183Y-4742290D01*
X45554910Y-4739270D01*
X45554940Y-4739206D01*
X45551038Y-4737536D01*
X45255901Y-4586819D01*
X45224615Y-4564066D01*
X43527804Y-2867255D01*
X43494319Y-2805932D01*
X43499303Y-2736240D01*
X43502781Y-2727865D01*
X43518349Y-2693934D01*
X43804702Y-2069807D01*
X43850549Y-2017085D01*
X43917622Y-1997518D01*
X43984627Y-2017320D01*
X44021210Y-2053692D01*
X44103338Y-2179398D01*
X44103343Y-2179403D01*
X44103344Y-2179406D01*
X44255816Y-2345032D01*
X44255820Y-2345036D01*
X44433484Y-2483319D01*
X44433485Y-2483319D01*
X44433487Y-2483321D01*
X44555438Y-2549317D01*
X44631486Y-2590472D01*
X44844425Y-2663574D01*
X45066491Y-2700630D01*
X45291629Y-2700630D01*
X45513695Y-2663574D01*
X45726634Y-2590472D01*
X45924636Y-2483319D01*
X46102300Y-2345036D01*
X46222110Y-2214889D01*
X46254775Y-2179406D01*
X46254775Y-2179405D01*
X46254782Y-2179398D01*
X46345253Y-2040920D01*
X46398398Y-1995567D01*
X46467629Y-1986143D01*
X46530965Y-2015645D01*
X46552864Y-2040917D01*
X46643338Y-2179398D01*
X46643343Y-2179403D01*
X46643344Y-2179406D01*
X46795816Y-2345032D01*
X46795820Y-2345036D01*
X46973484Y-2483319D01*
X46973485Y-2483319D01*
X46973487Y-2483321D01*
X47095438Y-2549317D01*
X47171486Y-2590472D01*
X47384425Y-2663574D01*
X47606491Y-2700630D01*
X47831629Y-2700630D01*
X48053695Y-2663574D01*
X48266634Y-2590472D01*
X48464636Y-2483319D01*
X48642300Y-2345036D01*
X48762110Y-2214889D01*
X48794775Y-2179406D01*
X48794775Y-2179405D01*
X48794782Y-2179398D01*
X48885253Y-2040920D01*
X48938398Y-1995567D01*
X49007629Y-1986143D01*
X49070965Y-2015645D01*
X49092864Y-2040917D01*
X49183338Y-2179398D01*
X49183343Y-2179403D01*
X49183344Y-2179406D01*
X49335816Y-2345032D01*
X49335820Y-2345036D01*
X49513484Y-2483319D01*
X49513485Y-2483319D01*
X49513487Y-2483321D01*
X49635438Y-2549317D01*
X49711486Y-2590472D01*
X49924425Y-2663574D01*
X50146491Y-2700630D01*
X50371629Y-2700630D01*
X50593695Y-2663574D01*
X50806634Y-2590472D01*
X51004636Y-2483319D01*
X51182300Y-2345036D01*
X51302110Y-2214889D01*
X51334775Y-2179406D01*
X51334775Y-2179405D01*
X51334782Y-2179398D01*
X51425253Y-2040920D01*
X51478398Y-1995567D01*
X51547629Y-1986143D01*
X51610965Y-2015645D01*
X51632864Y-2040917D01*
X51723338Y-2179398D01*
X51723343Y-2179403D01*
X51723344Y-2179406D01*
X51875816Y-2345032D01*
X51875820Y-2345036D01*
X52053484Y-2483319D01*
X52053485Y-2483319D01*
X52053487Y-2483321D01*
X52175438Y-2549317D01*
X52251486Y-2590472D01*
X52464425Y-2663574D01*
X52686491Y-2700630D01*
X52911629Y-2700630D01*
X53133695Y-2663574D01*
X53346634Y-2590472D01*
X53544636Y-2483319D01*
X53722300Y-2345036D01*
X53842110Y-2214889D01*
X53874775Y-2179406D01*
X53874775Y-2179405D01*
X53874782Y-2179398D01*
X53965253Y-2040920D01*
X54018398Y-1995567D01*
X54087629Y-1986143D01*
X54150965Y-2015645D01*
X54172864Y-2040917D01*
X54263338Y-2179398D01*
X54263343Y-2179403D01*
X54263344Y-2179406D01*
X54415816Y-2345032D01*
X54415820Y-2345036D01*
X54593484Y-2483319D01*
X54593485Y-2483319D01*
X54593487Y-2483321D01*
X54715438Y-2549317D01*
X54791486Y-2590472D01*
X55004425Y-2663574D01*
X55226491Y-2700630D01*
X55451629Y-2700630D01*
X55673695Y-2663574D01*
X55886634Y-2590472D01*
X56084636Y-2483319D01*
X56262300Y-2345036D01*
X56382110Y-2214889D01*
X56414775Y-2179406D01*
X56414775Y-2179405D01*
X56414782Y-2179398D01*
X56505253Y-2040920D01*
X56558398Y-1995567D01*
X56627629Y-1986143D01*
X56690965Y-2015645D01*
X56712864Y-2040917D01*
X56803338Y-2179398D01*
X56803343Y-2179403D01*
X56803344Y-2179406D01*
X56955816Y-2345032D01*
X56955820Y-2345036D01*
X57133484Y-2483319D01*
X57133485Y-2483319D01*
X57133487Y-2483321D01*
X57255438Y-2549317D01*
X57331486Y-2590472D01*
X57544425Y-2663574D01*
X57766491Y-2700630D01*
X57991629Y-2700630D01*
X58213695Y-2663574D01*
X58426634Y-2590472D01*
X58624636Y-2483319D01*
X58802300Y-2345036D01*
X58922110Y-2214889D01*
X58954775Y-2179406D01*
X58954775Y-2179405D01*
X58954782Y-2179398D01*
X59045253Y-2040920D01*
X59098398Y-1995567D01*
X59167629Y-1986143D01*
X59230965Y-2015645D01*
X59252864Y-2040917D01*
X59343338Y-2179398D01*
X59343343Y-2179403D01*
X59343344Y-2179406D01*
X59495816Y-2345032D01*
X59495820Y-2345036D01*
X59673484Y-2483319D01*
X59673485Y-2483319D01*
X59673487Y-2483321D01*
X59795438Y-2549317D01*
X59871486Y-2590472D01*
X60084425Y-2663574D01*
X60306491Y-2700630D01*
X60531629Y-2700630D01*
X60753695Y-2663574D01*
X60966634Y-2590472D01*
X61164636Y-2483319D01*
X61342300Y-2345036D01*
X61462110Y-2214889D01*
X61485020Y-2190003D01*
X62225811Y-2190003D01*
X62232739Y-2264776D01*
X62233127Y-2270313D01*
X62236851Y-2348470D01*
X62236852Y-2348475D01*
X62240615Y-2363986D01*
X62243581Y-2381774D01*
X62244766Y-2394559D01*
X62261261Y-2452535D01*
X62266260Y-2470102D01*
X62267498Y-2474802D01*
X62286761Y-2554201D01*
X62286762Y-2554206D01*
X62291951Y-2565568D01*
X62298419Y-2583134D01*
X62300982Y-2592141D01*
X62300988Y-2592157D01*
X62337536Y-2665554D01*
X62339330Y-2669314D01*
X62374701Y-2746765D01*
X62374707Y-2746776D01*
X62379939Y-2754123D01*
X62389928Y-2770771D01*
X62392556Y-2776048D01*
X62392558Y-2776052D01*
X62444049Y-2844236D01*
X62446102Y-2847035D01*
X62497503Y-2919218D01*
X62497505Y-2919219D01*
X62501519Y-2923047D01*
X62514897Y-2938057D01*
X62516352Y-2939983D01*
X62516355Y-2939987D01*
X62516358Y-2939989D01*
X62516359Y-2939991D01*
X62582100Y-2999922D01*
X62584093Y-3001780D01*
X62650714Y-3065303D01*
X62652458Y-3066424D01*
X62663579Y-3074970D01*
X62663604Y-3074938D01*
X62668179Y-3078393D01*
X62746745Y-3127039D01*
X62748462Y-3128122D01*
X62828806Y-3179756D01*
X62828808Y-3179757D01*
X62834060Y-3182465D01*
X62834026Y-3182529D01*
X62837548Y-3184308D01*
X62837710Y-3183984D01*
X62842833Y-3186534D01*
X62842842Y-3186540D01*
X62891393Y-3205348D01*
X62932220Y-3221164D01*
X62933448Y-3221647D01*
X62976814Y-3239009D01*
X63025338Y-3258436D01*
X63027307Y-3259013D01*
X63033400Y-3260465D01*
X63034399Y-3260749D01*
X63034400Y-3260749D01*
X63034405Y-3260751D01*
X63132232Y-3279037D01*
X63132343Y-3279058D01*
X63233211Y-3298500D01*
X63233216Y-3298500D01*
X63441776Y-3298500D01*
X63441778Y-3298500D01*
X63488457Y-3289773D01*
X63499409Y-3288229D01*
X63549799Y-3283419D01*
X63585121Y-3273047D01*
X63591711Y-3271112D01*
X63603846Y-3268203D01*
X63643715Y-3260751D01*
X63691187Y-3242360D01*
X63701046Y-3239009D01*
X63731932Y-3229939D01*
X63752922Y-3223777D01*
X63765454Y-3217315D01*
X63788669Y-3205348D01*
X63800694Y-3199937D01*
X63835278Y-3186540D01*
X63881517Y-3157909D01*
X63889979Y-3153118D01*
X63938409Y-3128151D01*
X63941086Y-3126771D01*
X63969982Y-3104046D01*
X63981342Y-3096099D01*
X64009942Y-3078392D01*
X64052693Y-3039417D01*
X64059554Y-3033606D01*
X64107492Y-2995908D01*
X64129291Y-2970749D01*
X64139465Y-2960316D01*
X64145504Y-2954809D01*
X64161761Y-2939991D01*
X64198714Y-2891055D01*
X64203924Y-2884618D01*
X64246125Y-2835918D01*
X64261049Y-2810066D01*
X64269468Y-2797361D01*
X64285563Y-2776050D01*
X64314424Y-2718088D01*
X64318037Y-2711360D01*
X64351973Y-2652582D01*
X64360597Y-2627661D01*
X64366769Y-2612965D01*
X64377134Y-2592152D01*
X64395805Y-2526527D01*
X64397887Y-2519921D01*
X64421210Y-2452535D01*
X64421213Y-2452527D01*
X64424472Y-2429857D01*
X64427938Y-2413590D01*
X64433354Y-2394559D01*
X64439966Y-2323199D01*
X64440698Y-2317003D01*
X64443214Y-2299509D01*
X64451341Y-2242984D01*
X64450416Y-2223578D01*
X64450803Y-2206238D01*
X64452309Y-2190000D01*
X64445378Y-2115214D01*
X64444990Y-2109679D01*
X64442619Y-2059905D01*
X64441268Y-2031526D01*
X64437501Y-2016002D01*
X64434538Y-1998229D01*
X64433354Y-1985441D01*
X64411843Y-1909840D01*
X64410616Y-1905182D01*
X64405376Y-1883581D01*
X64391358Y-1825796D01*
X64386167Y-1814430D01*
X64379696Y-1796853D01*
X64377136Y-1787856D01*
X64377134Y-1787848D01*
X64340571Y-1714421D01*
X64338776Y-1710659D01*
X64303415Y-1633227D01*
X64298181Y-1625877D01*
X64288189Y-1609224D01*
X64285563Y-1603950D01*
X64234062Y-1535752D01*
X64232016Y-1532963D01*
X64180619Y-1460785D01*
X64180614Y-1460780D01*
X64176606Y-1456958D01*
X64163213Y-1441931D01*
X64161768Y-1440018D01*
X64161765Y-1440014D01*
X64161764Y-1440013D01*
X64161761Y-1440009D01*
X64095973Y-1380036D01*
X64094062Y-1378253D01*
X64027406Y-1314697D01*
X64027403Y-1314694D01*
X64025661Y-1313575D01*
X64014540Y-1305029D01*
X64014516Y-1305062D01*
X64009937Y-1301604D01*
X63931387Y-1252967D01*
X63929627Y-1251857D01*
X63849318Y-1200246D01*
X63844059Y-1197535D01*
X63844092Y-1197470D01*
X63840572Y-1195692D01*
X63840411Y-1196016D01*
X63835273Y-1193457D01*
X63745943Y-1158851D01*
X63744651Y-1158343D01*
X63652782Y-1121564D01*
X63650821Y-1120988D01*
X63644740Y-1119540D01*
X63643720Y-1119250D01*
X63546077Y-1100996D01*
X63545397Y-1100867D01*
X63444910Y-1081500D01*
X63444909Y-1081500D01*
X63441778Y-1081500D01*
X63236342Y-1081500D01*
X63236336Y-1081500D01*
X63189674Y-1090222D01*
X63178682Y-1091771D01*
X63128325Y-1096580D01*
X63128321Y-1096580D01*
X63128321Y-1096581D01*
X63105315Y-1103336D01*
X63086406Y-1108888D01*
X63074260Y-1111798D01*
X63034411Y-1119247D01*
X63034398Y-1119251D01*
X62986926Y-1137641D01*
X62977071Y-1140991D01*
X62925200Y-1156222D01*
X62889449Y-1174652D01*
X62877431Y-1180059D01*
X62842841Y-1193460D01*
X62842840Y-1193460D01*
X62796600Y-1222091D01*
X62788145Y-1226878D01*
X62737037Y-1253226D01*
X62708142Y-1275949D01*
X62696774Y-1283901D01*
X62668175Y-1301609D01*
X62625435Y-1340571D01*
X62618554Y-1346400D01*
X62570625Y-1384093D01*
X62548823Y-1409253D01*
X62538658Y-1419678D01*
X62516361Y-1440006D01*
X62479426Y-1488915D01*
X62474187Y-1495387D01*
X62431996Y-1544079D01*
X62417074Y-1569925D01*
X62408647Y-1582641D01*
X62392557Y-1603950D01*
X62392556Y-1603951D01*
X62392556Y-1603952D01*
X62392551Y-1603960D01*
X62363692Y-1661914D01*
X62360082Y-1668637D01*
X62326148Y-1727414D01*
X62317524Y-1752331D01*
X62311348Y-1767036D01*
X62300988Y-1787842D01*
X62300983Y-1787856D01*
X62282316Y-1853459D01*
X62280232Y-1860077D01*
X62256906Y-1927475D01*
X62253647Y-1950137D01*
X62250179Y-1966409D01*
X62244766Y-1985437D01*
X62238153Y-2056796D01*
X62237420Y-2062999D01*
X62226779Y-2137010D01*
X62226779Y-2137015D01*
X62227703Y-2156434D01*
X62227315Y-2173766D01*
X62225811Y-2190003D01*
X61485020Y-2190003D01*
X61494775Y-2179406D01*
X61494779Y-2179401D01*
X61494782Y-2179398D01*
X61617920Y-1990921D01*
X61708356Y-1784746D01*
X61763624Y-1566498D01*
X61764828Y-1551974D01*
X61782216Y-1342135D01*
X61782216Y-1342124D01*
X61763625Y-1117770D01*
X61763623Y-1117758D01*
X61754441Y-1081500D01*
X61708356Y-899514D01*
X61617920Y-693339D01*
X61605684Y-674611D01*
X61556351Y-599100D01*
X61494782Y-504862D01*
X61454047Y-460612D01*
X61423125Y-397959D01*
X61430985Y-328533D01*
X61475132Y-274377D01*
X61541549Y-252686D01*
X61545277Y-252630D01*
X63354892Y-252630D01*
X63354895Y-252631D01*
G37*
%TD.AperFunction*%
%TA.AperFunction,Conductor*%
G36*
X9761824Y-2822396D02*
G01*
X10460229Y-3052622D01*
X10509088Y-3082707D01*
X13236200Y-5809819D01*
X13269685Y-5871142D01*
X13264701Y-5940834D01*
X13222829Y-5996767D01*
X13157365Y-6021184D01*
X13148519Y-6021500D01*
X12680341Y-6021500D01*
X12613302Y-6001815D01*
X12592660Y-5985181D01*
X9635323Y-3027844D01*
X9601838Y-2966521D01*
X9606822Y-2896829D01*
X9648694Y-2840896D01*
X9714158Y-2816479D01*
X9761824Y-2822396D01*
G37*
%TD.AperFunction*%
%TA.AperFunction,Conductor*%
G36*
X32729060Y-2648316D02*
G01*
X32709375Y-2715355D01*
X32692741Y-2735997D01*
X31263559Y-4165181D01*
X31202236Y-4198666D01*
X31175878Y-4201500D01*
X22651756Y-4201500D01*
X22615445Y-4196064D01*
X22134462Y-4048761D01*
X22128248Y-4047053D01*
X22110688Y-4040772D01*
X22106754Y-4039021D01*
X22106750Y-4039019D01*
X21977878Y-4011627D01*
X21930232Y-4001500D01*
X21749768Y-4001500D01*
X21718825Y-4008076D01*
X21573248Y-4039019D01*
X21573242Y-4039021D01*
X21408386Y-4112421D01*
X21408381Y-4112424D01*
X21262388Y-4218494D01*
X21262381Y-4218500D01*
X21141632Y-4352608D01*
X21051400Y-4508894D01*
X20995635Y-4680523D01*
X20976771Y-4860000D01*
X20995635Y-5039476D01*
X21045788Y-5193834D01*
X21051401Y-5211107D01*
X21141633Y-5367393D01*
X21156994Y-5384453D01*
X21262381Y-5501499D01*
X21262384Y-5501501D01*
X21262387Y-5501504D01*
X21368798Y-5578816D01*
X21408385Y-5607578D01*
X21573242Y-5680978D01*
X21573248Y-5680980D01*
X21749768Y-5718500D01*
X21749769Y-5718500D01*
X21930232Y-5718500D01*
X22059801Y-5690959D01*
X22106749Y-5680981D01*
X22106752Y-5680980D01*
X22111435Y-5678895D01*
X22130233Y-5672616D01*
X22130210Y-5672541D01*
X22133211Y-5671621D01*
X22134130Y-5671315D01*
X22134427Y-5671246D01*
X22134447Y-5671243D01*
X22615443Y-5523935D01*
X22651754Y-5518500D01*
X31413609Y-5518500D01*
X31429746Y-5520281D01*
X31429768Y-5520054D01*
X31437534Y-5520788D01*
X31437536Y-5520787D01*
X31437537Y-5520788D01*
X31508401Y-5518561D01*
X31512296Y-5518500D01*
X31541427Y-5518500D01*
X31541432Y-5518500D01*
X31545932Y-5517931D01*
X31557569Y-5517015D01*
X31603831Y-5515562D01*
X31624583Y-5509532D01*
X31643621Y-5505590D01*
X31665064Y-5502882D01*
X31708118Y-5485835D01*
X31719149Y-5482058D01*
X31763600Y-5469145D01*
X31782196Y-5458146D01*
X31799664Y-5449589D01*
X31819756Y-5441635D01*
X31857203Y-5414426D01*
X31866950Y-5408022D01*
X31906807Y-5384453D01*
X31922090Y-5369168D01*
X31936873Y-5356542D01*
X31954357Y-5343841D01*
X31983869Y-5308165D01*
X31991713Y-5299545D01*
X34175240Y-3116017D01*
X34220169Y-3087302D01*
X35509933Y-2613647D01*
X35519615Y-2609980D01*
X35520048Y-2609811D01*
X35541623Y-2599773D01*
X35553631Y-2594934D01*
X35566634Y-2590472D01*
X35764636Y-2483319D01*
X35942300Y-2345036D01*
X36062110Y-2214889D01*
X36094775Y-2179406D01*
X36094775Y-2179405D01*
X36094782Y-2179398D01*
X36185253Y-2040920D01*
X36238398Y-1995567D01*
X36307629Y-1986143D01*
X36370965Y-2015645D01*
X36392864Y-2040917D01*
X36483338Y-2179398D01*
X36483343Y-2179403D01*
X36483344Y-2179406D01*
X36635816Y-2345032D01*
X36635820Y-2345036D01*
X36813484Y-2483319D01*
X36813485Y-2483319D01*
X36813487Y-2483321D01*
X36935438Y-2549317D01*
X37011486Y-2590472D01*
X37224425Y-2663574D01*
X37446491Y-2700630D01*
X37671629Y-2700630D01*
X37893695Y-2663574D01*
X38106634Y-2590472D01*
X38304636Y-2483319D01*
X38482300Y-2345036D01*
X38602110Y-2214889D01*
X38634775Y-2179406D01*
X38634775Y-2179405D01*
X38634782Y-2179398D01*
X38725253Y-2040920D01*
X38778398Y-1995567D01*
X38847629Y-1986143D01*
X38910965Y-2015645D01*
X38932864Y-2040917D01*
X39023338Y-2179398D01*
X39023343Y-2179403D01*
X39023344Y-2179406D01*
X39175816Y-2345032D01*
X39175820Y-2345036D01*
X39353484Y-2483319D01*
X39353485Y-2483319D01*
X39353487Y-2483321D01*
X39475438Y-2549317D01*
X39551486Y-2590472D01*
X39764425Y-2663574D01*
X39986491Y-2700630D01*
X40211629Y-2700630D01*
X40433695Y-2663574D01*
X40646634Y-2590472D01*
X40844636Y-2483319D01*
X41022300Y-2345036D01*
X41142110Y-2214889D01*
X41174775Y-2179406D01*
X41174777Y-2179403D01*
X41174782Y-2179398D01*
X41265253Y-2040921D01*
X41318396Y-1995567D01*
X41387627Y-1986143D01*
X41450963Y-2015645D01*
X41472867Y-2040922D01*
X41548335Y-2156434D01*
X41563340Y-2179401D01*
X41565962Y-2182249D01*
X41580161Y-2200955D01*
X42024785Y-2919019D01*
X42042298Y-2968109D01*
X42046222Y-2997912D01*
X42107533Y-3145931D01*
X42107536Y-3145937D01*
X42148970Y-3199934D01*
X42180583Y-3241132D01*
X42180585Y-3241134D01*
X42205073Y-3273047D01*
X42230541Y-3292589D01*
X42242733Y-3303282D01*
X44364066Y-5424615D01*
X44386819Y-5455901D01*
X44537537Y-5751040D01*
X44539210Y-5754946D01*
X44539273Y-5754916D01*
X44542292Y-5761185D01*
X44548014Y-5770292D01*
X44551518Y-5776228D01*
X44552203Y-5777466D01*
X44567436Y-5845655D01*
X44543384Y-5911255D01*
X44487686Y-5953438D01*
X44443704Y-5961500D01*
X24603468Y-5961500D01*
X24580981Y-5959444D01*
X24229358Y-5894603D01*
X24210893Y-5889701D01*
X24199855Y-5885839D01*
X24199851Y-5885838D01*
X24199850Y-5885838D01*
X24173562Y-5882875D01*
X24157817Y-5881101D01*
X24149226Y-5879826D01*
X24136899Y-5877553D01*
X24091456Y-5871257D01*
X24089995Y-5871121D01*
X24089384Y-5871064D01*
X24089382Y-5871064D01*
X24089372Y-5871063D01*
X24076890Y-5871126D01*
X24062388Y-5870349D01*
X24033808Y-5867130D01*
X24030000Y-5866701D01*
X24029999Y-5866701D01*
X24029996Y-5866701D01*
X23860151Y-5885837D01*
X23860150Y-5885837D01*
X23803709Y-5905586D01*
X23783800Y-5910745D01*
X23765857Y-5913834D01*
X23765850Y-5913836D01*
X23452098Y-6015466D01*
X23413887Y-6021500D01*
X17466675Y-6021500D01*
X17399636Y-6001815D01*
X17353881Y-5949011D01*
X17343455Y-5911383D01*
X17324163Y-5740155D01*
X17324162Y-5740150D01*
X17302728Y-5678895D01*
X17267709Y-5578817D01*
X17176771Y-5434091D01*
X17055909Y-5313229D01*
X17055908Y-5313228D01*
X16911183Y-5222291D01*
X16749849Y-5165837D01*
X16749844Y-5165836D01*
X16580004Y-5146701D01*
X16579996Y-5146701D01*
X16410151Y-5165837D01*
X16410150Y-5165837D01*
X16353709Y-5185586D01*
X16333800Y-5190745D01*
X16315857Y-5193834D01*
X16315850Y-5193836D01*
X16002098Y-5295466D01*
X15963887Y-5301500D01*
X14500341Y-5301500D01*
X14433302Y-5281815D01*
X14412660Y-5265181D01*
X12059790Y-2912311D01*
X12026305Y-2850988D01*
X12031289Y-2781296D01*
X12073161Y-2725363D01*
X12138625Y-2700946D01*
X12147471Y-2700630D01*
X12271629Y-2700630D01*
X12493695Y-2663574D01*
X12706634Y-2590472D01*
X12904636Y-2483319D01*
X13082300Y-2345036D01*
X13202110Y-2214889D01*
X13234775Y-2179406D01*
X13234775Y-2179405D01*
X13234782Y-2179398D01*
X13325253Y-2040920D01*
X13378398Y-1995567D01*
X13447629Y-1986143D01*
X13510965Y-2015645D01*
X13532864Y-2040917D01*
X13623338Y-2179398D01*
X13623343Y-2179403D01*
X13623344Y-2179406D01*
X13775816Y-2345032D01*
X13775820Y-2345036D01*
X13953484Y-2483319D01*
X13953485Y-2483319D01*
X13953487Y-2483321D01*
X14075438Y-2549317D01*
X14151486Y-2590472D01*
X14364425Y-2663574D01*
X14586491Y-2700630D01*
X14811629Y-2700630D01*
X15033695Y-2663574D01*
X15246634Y-2590472D01*
X15444636Y-2483319D01*
X15622300Y-2345036D01*
X15742110Y-2214889D01*
X15774775Y-2179406D01*
X15774775Y-2179405D01*
X15774782Y-2179398D01*
X15865253Y-2040920D01*
X15918398Y-1995567D01*
X15987629Y-1986143D01*
X16050965Y-2015645D01*
X16072864Y-2040917D01*
X16163338Y-2179398D01*
X16163343Y-2179403D01*
X16163344Y-2179406D01*
X16315816Y-2345032D01*
X16315820Y-2345036D01*
X16493484Y-2483319D01*
X16493485Y-2483319D01*
X16493487Y-2483321D01*
X16615438Y-2549317D01*
X16691486Y-2590472D01*
X16904425Y-2663574D01*
X17126491Y-2700630D01*
X17351629Y-2700630D01*
X17573695Y-2663574D01*
X17786634Y-2590472D01*
X17984636Y-2483319D01*
X18162300Y-2345036D01*
X18282110Y-2214889D01*
X18314775Y-2179406D01*
X18314775Y-2179405D01*
X18314782Y-2179398D01*
X18405253Y-2040920D01*
X18458398Y-1995567D01*
X18527629Y-1986143D01*
X18590965Y-2015645D01*
X18612864Y-2040917D01*
X18703338Y-2179398D01*
X18703343Y-2179403D01*
X18703344Y-2179406D01*
X18855816Y-2345032D01*
X18855820Y-2345036D01*
X19033484Y-2483319D01*
X19033485Y-2483319D01*
X19033487Y-2483321D01*
X19155438Y-2549317D01*
X19231486Y-2590472D01*
X19444425Y-2663574D01*
X19666491Y-2700630D01*
X19891629Y-2700630D01*
X20113695Y-2663574D01*
X20326634Y-2590472D01*
X20524636Y-2483319D01*
X20702300Y-2345036D01*
X20822110Y-2214889D01*
X20854775Y-2179406D01*
X20854775Y-2179405D01*
X20854782Y-2179398D01*
X20945253Y-2040920D01*
X20998398Y-1995567D01*
X21067629Y-1986143D01*
X21130965Y-2015645D01*
X21152864Y-2040917D01*
X21243338Y-2179398D01*
X21243343Y-2179403D01*
X21243344Y-2179406D01*
X21395816Y-2345032D01*
X21395820Y-2345036D01*
X21573484Y-2483319D01*
X21573485Y-2483319D01*
X21573487Y-2483321D01*
X21695438Y-2549317D01*
X21771486Y-2590472D01*
X21984425Y-2663574D01*
X22206491Y-2700630D01*
X22431629Y-2700630D01*
X22653695Y-2663574D01*
X22866634Y-2590472D01*
X23064636Y-2483319D01*
X23242300Y-2345036D01*
X23362110Y-2214889D01*
X23394775Y-2179406D01*
X23394775Y-2179405D01*
X23394782Y-2179398D01*
X23485253Y-2040920D01*
X23538398Y-1995567D01*
X23607629Y-1986143D01*
X23670965Y-2015645D01*
X23692864Y-2040917D01*
X23783338Y-2179398D01*
X23783343Y-2179403D01*
X23783344Y-2179406D01*
X23935816Y-2345032D01*
X23935820Y-2345036D01*
X24113484Y-2483319D01*
X24113485Y-2483319D01*
X24113487Y-2483321D01*
X24235438Y-2549317D01*
X24311486Y-2590472D01*
X24524425Y-2663574D01*
X24746491Y-2700630D01*
X24971629Y-2700630D01*
X25193695Y-2663574D01*
X25406634Y-2590472D01*
X25604636Y-2483319D01*
X25782300Y-2345036D01*
X25902110Y-2214889D01*
X25934775Y-2179406D01*
X25934775Y-2179405D01*
X25934782Y-2179398D01*
X26025253Y-2040920D01*
X26078398Y-1995567D01*
X26147629Y-1986143D01*
X26210965Y-2015645D01*
X26232864Y-2040917D01*
X26323338Y-2179398D01*
X26323343Y-2179403D01*
X26323344Y-2179406D01*
X26475816Y-2345032D01*
X26475820Y-2345036D01*
X26653484Y-2483319D01*
X26653485Y-2483319D01*
X26653487Y-2483321D01*
X26775438Y-2549317D01*
X26851486Y-2590472D01*
X27064425Y-2663574D01*
X27286491Y-2700630D01*
X27511629Y-2700630D01*
X27733695Y-2663574D01*
X27946634Y-2590472D01*
X28144636Y-2483319D01*
X28322300Y-2345036D01*
X28442110Y-2214889D01*
X28474775Y-2179406D01*
X28474775Y-2179405D01*
X28474782Y-2179398D01*
X28565253Y-2040920D01*
X28618398Y-1995567D01*
X28687629Y-1986143D01*
X28750965Y-2015645D01*
X28772864Y-2040917D01*
X28863338Y-2179398D01*
X28863343Y-2179403D01*
X28863344Y-2179406D01*
X29015816Y-2345032D01*
X29015820Y-2345036D01*
X29193484Y-2483319D01*
X29193485Y-2483319D01*
X29193487Y-2483321D01*
X29315438Y-2549317D01*
X29391486Y-2590472D01*
X29604425Y-2663574D01*
X29826491Y-2700630D01*
X30051629Y-2700630D01*
X30273695Y-2663574D01*
X30486634Y-2590472D01*
X30684636Y-2483319D01*
X30862300Y-2345036D01*
X30982110Y-2214889D01*
X31014775Y-2179406D01*
X31014775Y-2179405D01*
X31014782Y-2179398D01*
X31108809Y-2035477D01*
X31161954Y-1990124D01*
X31231185Y-1980700D01*
X31294521Y-2010202D01*
X31314190Y-2032178D01*
X31440950Y-2213208D01*
X31607977Y-2380235D01*
X31801481Y-2515730D01*
X32015567Y-2615559D01*
X32015576Y-2615563D01*
X32229060Y-2672764D01*
X32229060Y-1777631D01*
X32336745Y-1826810D01*
X32443297Y-1842130D01*
X32514823Y-1842130D01*
X32621375Y-1826810D01*
X32729060Y-1777631D01*
X32729060Y-2648316D01*
G37*
%TD.AperFunction*%
%TD*%
%TA.AperFunction,Conductor*%
%TO.N,/PB2{slash}BOOT1*%
G36*
X43413144Y-1662760D02*
G01*
X43419472Y-1669093D01*
X43419468Y-1678048D01*
X43419295Y-1678445D01*
X42854237Y-2910032D01*
X42851876Y-2913426D01*
X42722385Y-3042917D01*
X42714112Y-3046344D01*
X42705839Y-3042917D01*
X42704165Y-3040803D01*
X42376843Y-2512182D01*
X41860998Y-1679098D01*
X41859557Y-1670262D01*
X41864787Y-1662994D01*
X41866453Y-1662137D01*
X42633871Y-1343284D01*
X42642820Y-1343276D01*
X43413144Y-1662760D01*
G37*
%TD.AperFunction*%
%TD*%
%TA.AperFunction,Conductor*%
%TO.N,/NRST*%
G36*
X37461906Y-13107378D02*
G01*
X37468720Y-13113187D01*
X37470000Y-13118508D01*
X37470000Y-13301491D01*
X37466573Y-13309764D01*
X37461905Y-13312622D01*
X37075912Y-13437652D01*
X37066986Y-13436941D01*
X37061514Y-13431038D01*
X36970889Y-13214515D01*
X36970857Y-13205563D01*
X37061514Y-12988960D01*
X37067870Y-12982652D01*
X37075911Y-12982347D01*
X37461906Y-13107378D01*
G37*
%TD.AperFunction*%
%TD*%
%TA.AperFunction,Conductor*%
%TO.N,/PA13{slash}SWDIO*%
G36*
X23933013Y-6403058D02*
G01*
X23938485Y-6408961D01*
X24029109Y-6625483D01*
X24029142Y-6634437D01*
X24029109Y-6634517D01*
X23938485Y-6851038D01*
X23932129Y-6857347D01*
X23924087Y-6857652D01*
X23538095Y-6732622D01*
X23531280Y-6726812D01*
X23530000Y-6721491D01*
X23530000Y-6538508D01*
X23533427Y-6530235D01*
X23538091Y-6527378D01*
X23924088Y-6402347D01*
X23933013Y-6403058D01*
G37*
%TD.AperFunction*%
%TD*%
%TA.AperFunction,Conductor*%
%TO.N,/VDD_3.3V*%
G36*
X9662196Y-6239552D02*
G01*
X10027000Y-6433298D01*
X10168038Y-6508203D01*
X10173737Y-6515110D01*
X10173371Y-6522985D01*
X10046028Y-6832726D01*
X10039713Y-6839075D01*
X10039656Y-6839098D01*
X9729915Y-6966441D01*
X9720960Y-6966418D01*
X9715133Y-6961108D01*
X9482447Y-6522985D01*
X9446482Y-6455267D01*
X9445629Y-6446355D01*
X9448541Y-6441510D01*
X9648439Y-6241612D01*
X9656711Y-6238186D01*
X9662196Y-6239552D01*
G37*
%TD.AperFunction*%
%TD*%
%TA.AperFunction,Conductor*%
%TO.N,/VDD_3.3V*%
G36*
X33736601Y-11972595D02*
G01*
X33740906Y-11977815D01*
X33831988Y-12195433D01*
X33832021Y-12204388D01*
X33831988Y-12204467D01*
X33740906Y-12422084D01*
X33734550Y-12428393D01*
X33727816Y-12429039D01*
X33342282Y-12351833D01*
X33334842Y-12346849D01*
X33332879Y-12340361D01*
X33332879Y-12059538D01*
X33336306Y-12051265D01*
X33342279Y-12048067D01*
X33727818Y-11970860D01*
X33736601Y-11972595D01*
G37*
%TD.AperFunction*%
%TD*%
%TA.AperFunction,Conductor*%
%TO.N,/VDD_5V*%
G36*
X6575709Y-7930548D02*
G01*
X6582028Y-7936893D01*
X6582617Y-7943946D01*
X6421133Y-8653028D01*
X6415955Y-8660334D01*
X6409725Y-8662130D01*
X5928395Y-8662130D01*
X5920122Y-8658703D01*
X5916987Y-8653028D01*
X5755502Y-7943946D01*
X5757006Y-7935118D01*
X5762409Y-7930548D01*
X6164561Y-7763003D01*
X6173512Y-7762985D01*
X6575709Y-7930548D01*
G37*
%TD.AperFunction*%
%TD*%
%TA.AperFunction,Conductor*%
%TO.N,/PA0*%
G36*
X36591906Y-11964044D02*
G01*
X36598720Y-11969853D01*
X36600000Y-11975174D01*
X36600000Y-12158157D01*
X36596573Y-12166430D01*
X36591905Y-12169288D01*
X36205912Y-12294318D01*
X36196986Y-12293607D01*
X36191514Y-12287704D01*
X36100889Y-12071181D01*
X36100857Y-12062229D01*
X36191514Y-11845626D01*
X36197870Y-11839318D01*
X36205911Y-11839013D01*
X36591906Y-11964044D01*
G37*
%TD.AperFunction*%
%TD*%
%TA.AperFunction,Conductor*%
%TO.N,/PA12*%
G36*
X16483013Y-5683058D02*
G01*
X16488485Y-5688961D01*
X16579109Y-5905483D01*
X16579142Y-5914437D01*
X16579109Y-5914517D01*
X16488485Y-6131038D01*
X16482129Y-6137347D01*
X16474087Y-6137652D01*
X16088095Y-6012622D01*
X16081280Y-6006812D01*
X16080000Y-6001491D01*
X16080000Y-5818508D01*
X16083427Y-5810235D01*
X16088091Y-5807378D01*
X16474088Y-5682347D01*
X16483013Y-5683058D01*
G37*
%TD.AperFunction*%
%TD*%
%TA.AperFunction,Conductor*%
%TO.N,/VDD_3.3V*%
G36*
X16197820Y-12408606D02*
G01*
X16203929Y-12414472D01*
X16522476Y-13099444D01*
X16522857Y-13108391D01*
X16520140Y-13112651D01*
X16319581Y-13313210D01*
X16311308Y-13316637D01*
X16306374Y-13315546D01*
X15860928Y-13108391D01*
X15621401Y-12996998D01*
X15615346Y-12990403D01*
X15615516Y-12981936D01*
X15780902Y-12580333D01*
X15787219Y-12573990D01*
X16188866Y-12408587D01*
X16197820Y-12408606D01*
G37*
%TD.AperFunction*%
%TD*%
%TA.AperFunction,Conductor*%
%TO.N,/NRST*%
G36*
X36873013Y-12983058D02*
G01*
X36878485Y-12988961D01*
X36969109Y-13205483D01*
X36969142Y-13214437D01*
X36969109Y-13214517D01*
X36878485Y-13431038D01*
X36872129Y-13437347D01*
X36864087Y-13437652D01*
X36478095Y-13312622D01*
X36471280Y-13306812D01*
X36470000Y-13301491D01*
X36470000Y-13118508D01*
X36473427Y-13110235D01*
X36478091Y-13107378D01*
X36864088Y-12982347D01*
X36873013Y-12983058D01*
G37*
%TD.AperFunction*%
%TD*%
%TA.AperFunction,Conductor*%
%TO.N,/PA14{slash}SWCLK*%
G36*
X25179381Y-10812274D02*
G01*
X25308769Y-10941662D01*
X25312196Y-10949935D01*
X25310916Y-10955256D01*
X25126388Y-11316605D01*
X25119573Y-11322415D01*
X25111531Y-11322110D01*
X24894344Y-11233085D01*
X24887990Y-11226777D01*
X24798933Y-11009510D01*
X24798966Y-11000558D01*
X24804435Y-10994657D01*
X25165788Y-10810126D01*
X25174713Y-10809416D01*
X25179381Y-10812274D01*
G37*
%TD.AperFunction*%
%TD*%
%TA.AperFunction,Conductor*%
%TO.N,/USB_Data-*%
G36*
X2998824Y-9925557D02*
G01*
X3001682Y-9930225D01*
X3126712Y-10316217D01*
X3126001Y-10325143D01*
X3120098Y-10330615D01*
X2903577Y-10421239D01*
X2894623Y-10421272D01*
X2894543Y-10421239D01*
X2678021Y-10330615D01*
X2671712Y-10324259D01*
X2671407Y-10316218D01*
X2796438Y-9930225D01*
X2802248Y-9923410D01*
X2807569Y-9922130D01*
X2990551Y-9922130D01*
X2998824Y-9925557D01*
G37*
%TD.AperFunction*%
%TD*%
%TA.AperFunction,Conductor*%
%TO.N,/VDD_3.3V*%
G36*
X41550061Y-17676564D02*
G01*
X42870346Y-18162254D01*
X42952921Y-18192631D01*
X42959503Y-18198704D01*
X42959863Y-18207651D01*
X42959696Y-18208078D01*
X42641622Y-18978344D01*
X42635297Y-18984683D01*
X42635274Y-18984692D01*
X41865008Y-19302766D01*
X41856053Y-19302757D01*
X41849728Y-19296418D01*
X41849561Y-19295991D01*
X41732709Y-18978344D01*
X41333495Y-17893134D01*
X41333855Y-17884189D01*
X41336200Y-17880827D01*
X41537755Y-17679272D01*
X41546027Y-17675846D01*
X41550061Y-17676564D01*
G37*
%TD.AperFunction*%
%TD*%
%TA.AperFunction,Conductor*%
%TO.N,/VDD_3.3V*%
G36*
X41550061Y-17676564D02*
G01*
X42870346Y-18162254D01*
X42952921Y-18192631D01*
X42959503Y-18198704D01*
X42959863Y-18207651D01*
X42959696Y-18208078D01*
X42641622Y-18978344D01*
X42635297Y-18984683D01*
X42635274Y-18984692D01*
X41865008Y-19302766D01*
X41856053Y-19302757D01*
X41849728Y-19296418D01*
X41849561Y-19295991D01*
X41732709Y-18978344D01*
X41333495Y-17893134D01*
X41333855Y-17884189D01*
X41336200Y-17880827D01*
X41537755Y-17679272D01*
X41546027Y-17675846D01*
X41550061Y-17676564D01*
G37*
%TD.AperFunction*%
%TD*%
%TA.AperFunction,Conductor*%
%TO.N,/PB2{slash}BOOT1*%
G36*
X44954732Y-5009604D02*
G01*
X45316084Y-5194134D01*
X45321893Y-5200948D01*
X45321588Y-5208991D01*
X45232564Y-5426176D01*
X45226255Y-5432531D01*
X45226176Y-5432564D01*
X45008991Y-5521588D01*
X45000036Y-5521555D01*
X44994134Y-5516084D01*
X44809604Y-5154733D01*
X44808894Y-5145808D01*
X44811750Y-5141142D01*
X44941141Y-5011751D01*
X44949413Y-5008325D01*
X44954732Y-5009604D01*
G37*
%TD.AperFunction*%
%TD*%
%TA.AperFunction,Conductor*%
%TO.N,/PA12*%
G36*
X10401772Y-1021623D02*
G01*
X10408097Y-1027962D01*
X10408364Y-1028674D01*
X10893523Y-2460620D01*
X10892932Y-2469555D01*
X10890715Y-2472647D01*
X10759530Y-2603832D01*
X10751257Y-2607259D01*
X10747594Y-2606671D01*
X9305735Y-2131369D01*
X9298951Y-2125524D01*
X9298286Y-2116594D01*
X9298584Y-2115791D01*
X9616498Y-1345913D01*
X9622819Y-1339578D01*
X10392818Y-1021614D01*
X10401772Y-1021623D01*
G37*
%TD.AperFunction*%
%TD*%
%TA.AperFunction,Conductor*%
%TO.N,/PA14{slash}SWCLK*%
G36*
X54814732Y-8989604D02*
G01*
X55176084Y-9174134D01*
X55181893Y-9180948D01*
X55181588Y-9188991D01*
X55092564Y-9406176D01*
X55086255Y-9412531D01*
X55086176Y-9412564D01*
X54868991Y-9501588D01*
X54860036Y-9501555D01*
X54854134Y-9496084D01*
X54669604Y-9134733D01*
X54668894Y-9125808D01*
X54671750Y-9121142D01*
X54801141Y-8991751D01*
X54809413Y-8988325D01*
X54814732Y-8989604D01*
G37*
%TD.AperFunction*%
%TD*%
%TA.AperFunction,Conductor*%
%TO.N,/VDD_5V*%
G36*
X6417998Y-11665557D02*
G01*
X6421133Y-11671232D01*
X6582617Y-12380313D01*
X6581113Y-12389141D01*
X6575709Y-12393711D01*
X6173560Y-12561255D01*
X6164605Y-12561274D01*
X6164560Y-12561255D01*
X5762410Y-12393711D01*
X5756091Y-12387366D01*
X5755502Y-12380313D01*
X5916987Y-11671232D01*
X5922165Y-11663926D01*
X5928395Y-11662130D01*
X6409725Y-11662130D01*
X6417998Y-11665557D01*
G37*
%TD.AperFunction*%
%TD*%
%TA.AperFunction,Conductor*%
%TO.N,/NRST*%
G36*
X46594550Y-17711634D02*
G01*
X48032456Y-18192854D01*
X48039214Y-18198729D01*
X48039838Y-18207662D01*
X48039557Y-18208415D01*
X47721622Y-18978344D01*
X47715297Y-18984683D01*
X47715274Y-18984692D01*
X46945345Y-19302627D01*
X46936390Y-19302618D01*
X46930065Y-19296279D01*
X46929784Y-19295526D01*
X46825755Y-18984683D01*
X46448565Y-17857622D01*
X46449189Y-17848692D01*
X46451384Y-17845642D01*
X46582570Y-17714456D01*
X46590842Y-17711030D01*
X46594550Y-17711634D01*
G37*
%TD.AperFunction*%
%TD*%
%TA.AperFunction,Conductor*%
%TO.N,/PA1*%
G36*
X36581906Y-11327378D02*
G01*
X36588720Y-11333187D01*
X36590000Y-11338508D01*
X36590000Y-11521491D01*
X36586573Y-11529764D01*
X36581905Y-11532622D01*
X36195912Y-11657652D01*
X36186986Y-11656941D01*
X36181514Y-11651038D01*
X36090889Y-11434515D01*
X36090857Y-11425563D01*
X36181514Y-11208960D01*
X36187870Y-11202652D01*
X36195911Y-11202347D01*
X36581906Y-11327378D01*
G37*
%TD.AperFunction*%
%TD*%
%TA.AperFunction,Conductor*%
%TO.N,/PA2*%
G36*
X36597447Y-10687623D02*
G01*
X36604504Y-10693135D01*
X36606022Y-10698898D01*
X36606022Y-10881908D01*
X36602595Y-10890181D01*
X36598452Y-10892854D01*
X36216233Y-11036987D01*
X36207283Y-11036699D01*
X36201312Y-11030556D01*
X36110889Y-10814515D01*
X36110857Y-10805563D01*
X36201690Y-10588540D01*
X36208045Y-10582233D01*
X36215607Y-10581784D01*
X36597447Y-10687623D01*
G37*
%TD.AperFunction*%
%TD*%
%TA.AperFunction,Conductor*%
%TO.N,/VDD_3.3V*%
G36*
X5322110Y-1021484D02*
G01*
X5328435Y-1027823D01*
X5328586Y-1028207D01*
X5848590Y-2425108D01*
X5848265Y-2434057D01*
X5845898Y-2437463D01*
X5644343Y-2639018D01*
X5636070Y-2642445D01*
X5632081Y-2641744D01*
X4225269Y-2131594D01*
X4218660Y-2125552D01*
X4218259Y-2116606D01*
X4218431Y-2116161D01*
X4536498Y-1345913D01*
X4542819Y-1339578D01*
X5313155Y-1021475D01*
X5322110Y-1021484D01*
G37*
%TD.AperFunction*%
%TD*%
%TA.AperFunction,Conductor*%
%TO.N,/VDD_3.3V*%
G36*
X34244963Y-1021474D02*
G01*
X35015275Y-1339568D01*
X35021612Y-1345891D01*
X35021622Y-1345915D01*
X35339694Y-2116175D01*
X35339685Y-2125130D01*
X35333346Y-2131455D01*
X35332913Y-2131624D01*
X33929586Y-2646986D01*
X33920639Y-2646621D01*
X33917280Y-2644276D01*
X33715729Y-2442725D01*
X33712302Y-2434452D01*
X33713022Y-2430410D01*
X34229558Y-1028259D01*
X34235634Y-1021681D01*
X34244581Y-1021325D01*
X34244963Y-1021474D01*
G37*
%TD.AperFunction*%
%TD*%
%TA.AperFunction,Conductor*%
%TO.N,/VDD_3.3V*%
G36*
X22531726Y-4707466D02*
G01*
X22538633Y-4713165D01*
X22540000Y-4718653D01*
X22540000Y-5001346D01*
X22536573Y-5009619D01*
X22531726Y-5012533D01*
X21984079Y-5180252D01*
X21975165Y-5179398D01*
X21969855Y-5173571D01*
X21840880Y-4864506D01*
X21840857Y-4855551D01*
X21840880Y-4855494D01*
X21901596Y-4710000D01*
X21969855Y-4546427D01*
X21976204Y-4540113D01*
X21984077Y-4539747D01*
X22531726Y-4707466D01*
G37*
%TD.AperFunction*%
%TD*%
%TA.AperFunction,Conductor*%
%TO.N,/PA13{slash}SWDIO*%
G36*
X62833477Y-10179610D02*
G01*
X64273360Y-10657872D01*
X64280131Y-10663732D01*
X64280776Y-10672664D01*
X64280486Y-10673442D01*
X63962562Y-11443344D01*
X63956237Y-11449683D01*
X63956214Y-11449692D01*
X63186264Y-11767636D01*
X63177309Y-11767627D01*
X63170984Y-11761288D01*
X63170710Y-11760556D01*
X63065406Y-11447837D01*
X62687520Y-10325631D01*
X62688127Y-10316698D01*
X62690332Y-10313628D01*
X62821519Y-10182441D01*
X62829791Y-10179015D01*
X62833477Y-10179610D01*
G37*
%TD.AperFunction*%
%TD*%
%TA.AperFunction,Conductor*%
%TO.N,/NRST*%
G36*
X20939793Y-10118514D02*
G01*
X20945784Y-10124162D01*
X21124593Y-10489340D01*
X21125153Y-10498277D01*
X21122358Y-10502758D01*
X20992959Y-10632157D01*
X20984686Y-10635584D01*
X20979210Y-10634223D01*
X20623701Y-10445933D01*
X20617994Y-10439033D01*
X20618351Y-10431157D01*
X20707436Y-10213822D01*
X20713743Y-10207468D01*
X20930840Y-10118481D01*
X20939793Y-10118514D01*
G37*
%TD.AperFunction*%
%TD*%
%TA.AperFunction,Conductor*%
%TO.N,/VDD_3.3V*%
G36*
X23333546Y-10460479D02*
G01*
X23338764Y-10464783D01*
X23395492Y-10549920D01*
X23556786Y-10791992D01*
X23558521Y-10800777D01*
X23555322Y-10806753D01*
X23356753Y-11005322D01*
X23348480Y-11008749D01*
X23341992Y-11006786D01*
X23138552Y-10871233D01*
X23014783Y-10788765D01*
X23009800Y-10781326D01*
X23010445Y-10774594D01*
X23099921Y-10556307D01*
X23106228Y-10549953D01*
X23324594Y-10460446D01*
X23333546Y-10460479D01*
G37*
%TD.AperFunction*%
%TD*%
%TA.AperFunction,Conductor*%
%TO.N,/VDD_3.3V*%
G36*
X36117000Y-17676925D02*
G01*
X36120365Y-17679273D01*
X36321916Y-17880824D01*
X36325343Y-17889097D01*
X36324624Y-17893136D01*
X35808558Y-19295991D01*
X35802485Y-19302573D01*
X35793538Y-19302933D01*
X35793111Y-19302766D01*
X35022845Y-18984692D01*
X35016507Y-18978368D01*
X34698423Y-18208078D01*
X34698432Y-18199123D01*
X34704771Y-18192798D01*
X34705184Y-18192636D01*
X36108055Y-17676565D01*
X36117000Y-17676925D01*
G37*
%TD.AperFunction*%
%TD*%
%TA.AperFunction,Conductor*%
%TO.N,/BOOT0*%
G36*
X25992497Y-17712259D02*
G01*
X25995550Y-17714457D01*
X26126732Y-17845639D01*
X26130159Y-17853912D01*
X26129554Y-17857625D01*
X25648335Y-19295526D01*
X25642460Y-19302284D01*
X25633527Y-19302908D01*
X25632774Y-19302627D01*
X24862845Y-18984692D01*
X24856507Y-18978368D01*
X24538562Y-18208414D01*
X24538571Y-18199460D01*
X24544910Y-18193135D01*
X24545641Y-18192861D01*
X25983566Y-17711635D01*
X25992497Y-17712259D01*
G37*
%TD.AperFunction*%
%TD*%
%TA.AperFunction,Conductor*%
%TO.N,/VDD_3.3V*%
G36*
X10365969Y-6706651D02*
G01*
X10371796Y-6711961D01*
X10640446Y-7217800D01*
X10641300Y-7226714D01*
X10638386Y-7231561D01*
X10438491Y-7431456D01*
X10430218Y-7434883D01*
X10424730Y-7433516D01*
X10420851Y-7431456D01*
X10044470Y-7231561D01*
X9918891Y-7164866D01*
X9913192Y-7157959D01*
X9913557Y-7150086D01*
X10040902Y-6840341D01*
X10047213Y-6833996D01*
X10357015Y-6706628D01*
X10365969Y-6706651D01*
G37*
%TD.AperFunction*%
%TD*%
%TA.AperFunction,Conductor*%
%TO.N,/VDD_3.3V*%
G36*
X15260552Y-11837522D02*
G01*
X15945527Y-12156071D01*
X15951583Y-12162666D01*
X15951412Y-12171134D01*
X15786028Y-12572734D01*
X15779709Y-12579079D01*
X15779664Y-12579098D01*
X15378064Y-12744482D01*
X15369109Y-12744463D01*
X15363001Y-12738598D01*
X15044452Y-12053623D01*
X15044072Y-12044678D01*
X15046787Y-12040420D01*
X15247349Y-11839858D01*
X15255621Y-11836432D01*
X15260552Y-11837522D01*
G37*
%TD.AperFunction*%
%TD*%
%TA.AperFunction,Conductor*%
%TO.N,Net-(USB1-CC2)*%
G36*
X13083013Y-10623058D02*
G01*
X13088485Y-10628961D01*
X13179109Y-10845483D01*
X13179142Y-10854437D01*
X13179109Y-10854517D01*
X13088485Y-11071038D01*
X13082129Y-11077347D01*
X13074087Y-11077652D01*
X12688095Y-10952622D01*
X12681280Y-10946812D01*
X12680000Y-10941491D01*
X12680000Y-10758508D01*
X12683427Y-10750235D01*
X12688091Y-10747378D01*
X13074088Y-10622347D01*
X13083013Y-10623058D01*
G37*
%TD.AperFunction*%
%TD*%
%TA.AperFunction,Conductor*%
%TO.N,/PA13{slash}SWDIO*%
G36*
X24043760Y-6382537D02*
G01*
X24508488Y-6468234D01*
X24516001Y-6473103D01*
X24518065Y-6479739D01*
X24518065Y-6662682D01*
X24514638Y-6670955D01*
X24511485Y-6673202D01*
X24136803Y-6855551D01*
X24127864Y-6856090D01*
X24121163Y-6850151D01*
X24120890Y-6849548D01*
X24029916Y-6632189D01*
X24029009Y-6627627D01*
X24029944Y-6393996D01*
X24033404Y-6385738D01*
X24041691Y-6382344D01*
X24043760Y-6382537D01*
G37*
%TD.AperFunction*%
%TD*%
%TA.AperFunction,Conductor*%
%TO.N,/PA13{slash}SWDIO*%
G36*
X7861772Y-1021623D02*
G01*
X7868097Y-1027962D01*
X7868364Y-1028674D01*
X8353523Y-2460620D01*
X8352932Y-2469555D01*
X8350715Y-2472647D01*
X8219530Y-2603832D01*
X8211257Y-2607259D01*
X8207594Y-2606671D01*
X6765735Y-2131369D01*
X6758951Y-2125524D01*
X6758286Y-2116594D01*
X6758584Y-2115791D01*
X7076498Y-1345913D01*
X7082819Y-1339578D01*
X7852818Y-1021614D01*
X7861772Y-1021623D01*
G37*
%TD.AperFunction*%
%TD*%
%TA.AperFunction,Conductor*%
%TO.N,/PA2*%
G36*
X59294550Y-17711634D02*
G01*
X60732456Y-18192854D01*
X60739214Y-18198729D01*
X60739838Y-18207662D01*
X60739557Y-18208415D01*
X60421622Y-18978344D01*
X60415297Y-18984683D01*
X60415274Y-18984692D01*
X59645345Y-19302627D01*
X59636390Y-19302618D01*
X59630065Y-19296279D01*
X59629784Y-19295526D01*
X59525755Y-18984683D01*
X59148565Y-17857622D01*
X59149189Y-17848692D01*
X59151384Y-17845642D01*
X59282570Y-17714456D01*
X59290842Y-17711030D01*
X59294550Y-17711634D01*
G37*
%TD.AperFunction*%
%TD*%
%TA.AperFunction,Conductor*%
%TO.N,/PA1*%
G36*
X56754550Y-17711634D02*
G01*
X58192456Y-18192854D01*
X58199214Y-18198729D01*
X58199838Y-18207662D01*
X58199557Y-18208415D01*
X57881622Y-18978344D01*
X57875297Y-18984683D01*
X57875274Y-18984692D01*
X57105345Y-19302627D01*
X57096390Y-19302618D01*
X57090065Y-19296279D01*
X57089784Y-19295526D01*
X56985755Y-18984683D01*
X56608565Y-17857622D01*
X56609189Y-17848692D01*
X56611384Y-17845642D01*
X56742570Y-17714456D01*
X56750842Y-17711030D01*
X56754550Y-17711634D01*
G37*
%TD.AperFunction*%
%TD*%
%TA.AperFunction,Conductor*%
%TO.N,/USB_Data-*%
G36*
X3120098Y-9513644D02*
G01*
X3126407Y-9520000D01*
X3126712Y-9528042D01*
X3001682Y-9914035D01*
X2995872Y-9920850D01*
X2990551Y-9922130D01*
X2807569Y-9922130D01*
X2799296Y-9918703D01*
X2796438Y-9914035D01*
X2671407Y-9528042D01*
X2672118Y-9519116D01*
X2678020Y-9513644D01*
X2894544Y-9423019D01*
X2903497Y-9422987D01*
X3120098Y-9513644D01*
G37*
%TD.AperFunction*%
%TD*%
%TA.AperFunction,Conductor*%
%TO.N,Net-(USB1-CC2)*%
G36*
X10901906Y-10747378D02*
G01*
X10908720Y-10753187D01*
X10910000Y-10758508D01*
X10910000Y-10941491D01*
X10906573Y-10949764D01*
X10901905Y-10952622D01*
X10515912Y-11077652D01*
X10506986Y-11076941D01*
X10501514Y-11071038D01*
X10410889Y-10854515D01*
X10410857Y-10845563D01*
X10501514Y-10628960D01*
X10507870Y-10622652D01*
X10515911Y-10622347D01*
X10901906Y-10747378D01*
G37*
%TD.AperFunction*%
%TD*%
%TA.AperFunction,Conductor*%
%TO.N,/PA0*%
G36*
X54216397Y-17710415D02*
G01*
X55652474Y-18192845D01*
X55659225Y-18198728D01*
X55659839Y-18207662D01*
X55659562Y-18208402D01*
X55341622Y-18978344D01*
X55335297Y-18984683D01*
X55335274Y-18984692D01*
X54565361Y-19302620D01*
X54556406Y-19302611D01*
X54550081Y-19296272D01*
X54549799Y-19295516D01*
X54070392Y-17856385D01*
X54071028Y-17847456D01*
X54073216Y-17844420D01*
X54204403Y-17713233D01*
X54212675Y-17709807D01*
X54216397Y-17710415D01*
G37*
%TD.AperFunction*%
%TD*%
%TA.AperFunction,Conductor*%
%TO.N,/BOOT0*%
G36*
X38184732Y-15669604D02*
G01*
X38546084Y-15854134D01*
X38551893Y-15860948D01*
X38551588Y-15868991D01*
X38462564Y-16086176D01*
X38456255Y-16092531D01*
X38456176Y-16092564D01*
X38238991Y-16181588D01*
X38230036Y-16181555D01*
X38224134Y-16176084D01*
X38039604Y-15814733D01*
X38038894Y-15805808D01*
X38041750Y-15801142D01*
X38171141Y-15671751D01*
X38179413Y-15668325D01*
X38184732Y-15669604D01*
G37*
%TD.AperFunction*%
%TD*%
M02*
