M48
; DRILL file {KiCad 7.0.10} date Tue Feb  6 11:27:43 2024
; FORMAT={-:-/ absolute / metric / decimal}
; #@! TF.CreationDate,2024-02-06T11:27:43+08:00
; #@! TF.GenerationSoftware,Kicad,Pcbnew,7.0.10
; #@! TF.FileFunction,MixedPlating,1,2
FMAT,2
METRIC
; #@! TA.AperFunction,Plated,PTH,ViaDrill
T1C0.300
; #@! TA.AperFunction,Plated,PTH,ViaDrill
T2C0.400
; #@! TA.AperFunction,Plated,PTH,ComponentDrill
T3C0.600
; #@! TA.AperFunction,Plated,PTH,ComponentDrill
T4C1.000
; #@! TA.AperFunction,Plated,PTH,ComponentDrill
T5C1.200
; #@! TA.AperFunction,NonPlated,NPTH,ComponentDrill
T6C0.650
%
G90
G05
T1
X2.899Y-9.422
X2.899Y-10.422
X8.34Y-8.68
X8.34Y-10.88
X8.439Y-16.652
X10.043Y-6.837
X10.41Y-10.85
X10.819Y-16.652
X10.91Y-3.41
X13.18Y-10.85
X13.459Y-16.652
X13.87Y-4.4
X15.199Y-14.472
X15.55Y-4.4
X15.929Y-16.652
X17.499Y-10.252
X18.379Y-16.652
X20.959Y-8.072
X21.635Y-11.165
X22.7Y-7.442
X23.35Y-5.91
X23.357Y-6.63
X24.029Y-16.652
X24.4Y-10.62
X25.939Y-16.652
X26.08Y-3.82
X27.214Y-9.468
X27.784Y-16.207
X29.329Y-7.442
X29.349Y-13.332
X30.06Y-11.86
X30.07Y-11.172
X30.749Y-17.112
X30.87Y-10.48
X32.09Y-10.18
X32.109Y-4.202
X33.09Y-14.81
X34.349Y-12.682
X35.139Y-9.462
X35.149Y-11.082
X35.15Y-12.18
X36.699Y-16.872
X37.12Y-7.4
X39.993Y-16.337
X42.469Y-7.162
X42.469Y-15.392
X42.639Y-5.812
X43.67Y-10.18
X44.389Y-3.322
X45.23Y-13.16
X46.409Y-15.392
X46.909Y-3.322
X47.83Y-6.0
X49.467Y-3.322
X52.024Y-3.322
X52.15Y-12.0
X53.139Y-15.512
X54.582Y-3.322
X55.52Y-9.41
X55.54Y-15.36
X57.139Y-3.322
X60.49Y-10.16
X60.49Y-12.68
T2
X6.169Y-7.762
X6.169Y-12.562
X15.783Y-12.577
T4
X1.999Y-1.342
X1.999Y-18.982
X4.539Y-1.342
X4.539Y-18.982
X7.079Y-1.342
X7.079Y-18.982
X9.619Y-1.342
X9.619Y-18.982
X12.159Y-1.342
X12.159Y-18.982
X14.699Y-1.342
X14.699Y-18.982
X17.239Y-1.342
X17.239Y-18.982
X19.779Y-1.342
X19.779Y-18.982
X22.319Y-1.342
X22.319Y-18.982
X24.859Y-1.342
X24.859Y-18.982
X27.399Y-1.342
X27.399Y-18.982
X29.939Y-1.342
X29.939Y-18.982
X32.479Y-1.342
X32.479Y-18.982
X35.019Y-1.342
X35.019Y-18.982
X37.559Y-1.342
X37.559Y-18.982
X40.099Y-1.342
X40.099Y-18.982
X42.639Y-1.342
X42.639Y-18.982
X45.179Y-1.342
X45.179Y-18.982
X47.719Y-1.342
X47.719Y-18.982
X50.259Y-1.342
X50.259Y-18.982
X52.799Y-1.342
X52.799Y-18.982
X55.339Y-1.342
X55.339Y-18.982
X57.879Y-1.342
X57.879Y-18.982
X60.419Y-1.342
X60.419Y-18.982
X63.96Y-6.367
X63.96Y-8.907
X63.96Y-11.447
X63.96Y-13.987
T5
X-0.97Y-18.13
X-0.921Y-2.19
X63.29Y-18.13
X63.339Y-2.19
T6
X2.568Y-7.282
X2.568Y-13.062
T3
G00X-0.682Y-5.847
M15
G01X-1.582Y-5.847
M16
G05
G00X-0.682Y-14.497
M15
G01X-1.582Y-14.497
M16
G05
G00X3.668Y-5.847
M15
G01X2.468Y-5.847
M16
G05
G00X3.668Y-14.497
M15
G01X2.468Y-14.497
M16
G05
M30
