%TF.GenerationSoftware,KiCad,Pcbnew,7.0.10*%
%TF.CreationDate,2024-02-06T11:27:38+08:00*%
%TF.ProjectId,UINIO-MCU-STM32F103C8T6,55494e49-4f2d-44d4-9355-2d53544d3332,Version 2.0.0*%
%TF.SameCoordinates,PX72c1710PY5584170*%
%TF.FileFunction,Copper,L2,Bot*%
%TF.FilePolarity,Positive*%
%FSLAX46Y46*%
G04 Gerber Fmt 4.6, Leading zero omitted, Abs format (unit mm)*
G04 Created by KiCad (PCBNEW 7.0.10) date 2024-02-06 11:27:38*
%MOMM*%
%LPD*%
G01*
G04 APERTURE LIST*
%TA.AperFunction,ComponentPad*%
%ADD10R,1.700000X1.700000*%
%TD*%
%TA.AperFunction,ComponentPad*%
%ADD11O,1.700000X1.700000*%
%TD*%
%TA.AperFunction,ComponentPad*%
%ADD12C,1.200000*%
%TD*%
%TA.AperFunction,ComponentPad*%
%ADD13O,2.100000X1.000000*%
%TD*%
%TA.AperFunction,ComponentPad*%
%ADD14O,1.900000X1.000000*%
%TD*%
%TA.AperFunction,ViaPad*%
%ADD15C,0.700000*%
%TD*%
%TA.AperFunction,ViaPad*%
%ADD16C,0.500000*%
%TD*%
%TA.AperFunction,ViaPad*%
%ADD17C,0.900000*%
%TD*%
%TA.AperFunction,Conductor*%
%ADD18C,0.300000*%
%TD*%
%TA.AperFunction,Conductor*%
%ADD19C,0.500000*%
%TD*%
%TA.AperFunction,Conductor*%
%ADD20C,0.200000*%
%TD*%
G04 APERTURE END LIST*
D10*
%TO.P,J3,1,Pin_1*%
%TO.N,GND*%
X63960000Y-6367130D03*
D11*
%TO.P,J3,2,Pin_2*%
%TO.N,/PA14{slash}SWCLK*%
X63960000Y-8907130D03*
%TO.P,J3,3,Pin_3*%
%TO.N,/PA13{slash}SWDIO*%
X63960000Y-11447130D03*
%TO.P,J3,4,Pin_4*%
%TO.N,/VDD_3.3V*%
X63960000Y-13987130D03*
%TD*%
D12*
%TO.P,HOLE\u002A\u002A,*%
%TO.N,*%
X-920940Y-2190000D03*
%TD*%
%TO.P,HOLE\u002A\u002A,*%
%TO.N,*%
X63339060Y-2190000D03*
%TD*%
%TO.P,HOLE\u002A\u002A,*%
%TO.N,*%
X63290000Y-18130000D03*
%TD*%
D13*
%TO.P,USB1,13,GND*%
%TO.N,GND*%
X3068060Y-5847130D03*
%TO.P,USB1,14,GND*%
X3068060Y-14497130D03*
D14*
%TO.P,USB1,15,GND*%
X-1131940Y-5847130D03*
%TO.P,USB1,16,GND*%
X-1131940Y-14497130D03*
%TD*%
D12*
%TO.P,HOLE\u002A\u002A,*%
%TO.N,*%
X-970000Y-18130000D03*
%TD*%
D10*
%TO.P,J1,1,Pin_1*%
%TO.N,GND*%
X1999060Y-1342130D03*
D11*
%TO.P,J1,2,Pin_2*%
%TO.N,/VDD_3.3V*%
X4539060Y-1342130D03*
%TO.P,J1,3,Pin_3*%
%TO.N,/PA13{slash}SWDIO*%
X7079060Y-1342130D03*
%TO.P,J1,4,Pin_4*%
%TO.N,/PA12*%
X9619060Y-1342130D03*
%TO.P,J1,5,Pin_5*%
%TO.N,/PA11*%
X12159060Y-1342130D03*
%TO.P,J1,6,Pin_6*%
%TO.N,/PA10*%
X14699060Y-1342130D03*
%TO.P,J1,7,Pin_7*%
%TO.N,/PA9*%
X17239060Y-1342130D03*
%TO.P,J1,8,Pin_8*%
%TO.N,/PA8*%
X19779060Y-1342130D03*
%TO.P,J1,9,Pin_9*%
%TO.N,/PB15*%
X22319060Y-1342130D03*
%TO.P,J1,10,Pin_10*%
%TO.N,/PB14*%
X24859060Y-1342130D03*
%TO.P,J1,11,Pin_11*%
%TO.N,/PB13*%
X27399060Y-1342130D03*
%TO.P,J1,12,Pin_12*%
%TO.N,/PB12*%
X29939060Y-1342130D03*
%TO.P,J1,13,Pin_13*%
%TO.N,GND*%
X32479060Y-1342130D03*
%TO.P,J1,14,Pin_14*%
%TO.N,/VDD_3.3V*%
X35019060Y-1342130D03*
%TO.P,J1,15,Pin_15*%
%TO.N,/PB11*%
X37559060Y-1342130D03*
%TO.P,J1,16,Pin_16*%
%TO.N,/PB10*%
X40099060Y-1342130D03*
%TO.P,J1,17,Pin_17*%
%TO.N,/PB2{slash}BOOT1*%
X42639060Y-1342130D03*
%TO.P,J1,18,Pin_18*%
%TO.N,/PB1*%
X45179060Y-1342130D03*
%TO.P,J1,19,Pin_19*%
%TO.N,/PB0*%
X47719060Y-1342130D03*
%TO.P,J1,20,Pin_20*%
%TO.N,/PA7*%
X50259060Y-1342130D03*
%TO.P,J1,21,Pin_21*%
%TO.N,/PA6*%
X52799060Y-1342130D03*
%TO.P,J1,22,Pin_22*%
%TO.N,/PA5*%
X55339060Y-1342130D03*
%TO.P,J1,23,Pin_23*%
%TO.N,/PA4*%
X57879060Y-1342130D03*
%TO.P,J1,24,Pin_24*%
%TO.N,/PA3*%
X60419060Y-1342130D03*
%TD*%
D10*
%TO.P,J2,1,Pin_1*%
%TO.N,GND*%
X1999060Y-18982130D03*
D11*
%TO.P,J2,2,Pin_2*%
%TO.N,/VDD_5V*%
X4539060Y-18982130D03*
%TO.P,J2,3,Pin_3*%
%TO.N,/PA14{slash}SWCLK*%
X7079060Y-18982130D03*
%TO.P,J2,4,Pin_4*%
%TO.N,/PA15*%
X9619060Y-18982130D03*
%TO.P,J2,5,Pin_5*%
%TO.N,/PB3*%
X12159060Y-18982130D03*
%TO.P,J2,6,Pin_6*%
%TO.N,/PB4*%
X14699060Y-18982130D03*
%TO.P,J2,7,Pin_7*%
%TO.N,/PB5*%
X17239060Y-18982130D03*
%TO.P,J2,8,Pin_8*%
%TO.N,/PB6*%
X19779060Y-18982130D03*
%TO.P,J2,9,Pin_9*%
%TO.N,/PB7*%
X22319060Y-18982130D03*
%TO.P,J2,10,Pin_10*%
%TO.N,/BOOT0*%
X24859060Y-18982130D03*
%TO.P,J2,11,Pin_11*%
%TO.N,/PB8*%
X27399060Y-18982130D03*
%TO.P,J2,12,Pin_12*%
%TO.N,/PB9*%
X29939060Y-18982130D03*
%TO.P,J2,13,Pin_13*%
%TO.N,GND*%
X32479060Y-18982130D03*
%TO.P,J2,14,Pin_14*%
%TO.N,/VDD_3.3V*%
X35019060Y-18982130D03*
%TO.P,J2,15,Pin_15*%
%TO.N,/VBAT*%
X37559060Y-18982130D03*
%TO.P,J2,16,Pin_16*%
%TO.N,/PC13*%
X40099060Y-18982130D03*
%TO.P,J2,17,Pin_17*%
%TO.N,/VDD_3.3V*%
X42639060Y-18982130D03*
%TO.P,J2,18,Pin_18*%
%TO.N,GND*%
X45179060Y-18982130D03*
%TO.P,J2,19,Pin_19*%
%TO.N,/NRST*%
X47719060Y-18982130D03*
%TO.P,J2,20,Pin_20*%
%TO.N,/VDD_3.3V*%
X50259060Y-18982130D03*
%TO.P,J2,21,Pin_21*%
%TO.N,GND*%
X52799060Y-18982130D03*
%TO.P,J2,22,Pin_22*%
%TO.N,/PA0*%
X55339060Y-18982130D03*
%TO.P,J2,23,Pin_23*%
%TO.N,/PA1*%
X57879060Y-18982130D03*
%TO.P,J2,24,Pin_24*%
%TO.N,/PA2*%
X60419060Y-18982130D03*
%TD*%
D15*
%TO.N,GND*%
X21635000Y-11165000D03*
D16*
X60490000Y-10160000D03*
X26080000Y-3820000D03*
X18379060Y-16652130D03*
X60490000Y-12680000D03*
X10819060Y-16652130D03*
D15*
X55540000Y-15360000D03*
X29329060Y-7442130D03*
D16*
X10910000Y-3410000D03*
X32109060Y-4202130D03*
X15929060Y-16652130D03*
X15199060Y-14472130D03*
X8340000Y-10880000D03*
X46909060Y-3322130D03*
X44389060Y-3322130D03*
D15*
X29349060Y-13332130D03*
D16*
X53139060Y-15512130D03*
X36699060Y-16872130D03*
X57139060Y-3322130D03*
X8439060Y-16652130D03*
D15*
X17499060Y-10252130D03*
X42469060Y-7162130D03*
D16*
X49466560Y-3322130D03*
X24029060Y-16652130D03*
X8340000Y-8680000D03*
X52024060Y-3322130D03*
X33090000Y-14810000D03*
D15*
X27784060Y-16207130D03*
X46409060Y-15392130D03*
X52150000Y-12000000D03*
D16*
X30070000Y-11172130D03*
X25939060Y-16652130D03*
X15550000Y-4400000D03*
D15*
X42469060Y-15392130D03*
X35139060Y-9462130D03*
X13870000Y-4400000D03*
D16*
X37120000Y-7400000D03*
D15*
X47830000Y-6000000D03*
X27213505Y-9468185D03*
X22700000Y-7442130D03*
D16*
X54581560Y-3322130D03*
X13459060Y-16652130D03*
%TO.N,/PB2{slash}BOOT1*%
X42639060Y-5811630D03*
D17*
%TO.N,/VDD_5V*%
X6169060Y-7762130D03*
X6169060Y-12562130D03*
D15*
%TO.N,/VDD_3.3V*%
X30749060Y-17112130D03*
X10043465Y-6836535D03*
X39993465Y-16336535D03*
D17*
X15783465Y-12576535D03*
D16*
%TO.N,/BOOT0*%
X30870000Y-10480000D03*
X45230000Y-13160000D03*
%TO.N,/NRST*%
X20959060Y-8072130D03*
X30060000Y-11860000D03*
%TO.N,/PA13{slash}SWDIO*%
X23356930Y-6630000D03*
%TO.N,/PA12*%
X23349581Y-5910419D03*
%TO.N,/PA14{slash}SWCLK*%
X55520000Y-9410000D03*
X24400000Y-10620000D03*
%TO.N,/PA0*%
X34348768Y-12681838D03*
%TO.N,/PA1*%
X35150000Y-12180000D03*
%TO.N,/PA2*%
X35149060Y-11082130D03*
%TO.N,Net-(U2-VDDA)*%
X43670000Y-10180000D03*
X32090000Y-10180000D03*
%TO.N,/USB_Data-*%
X2899060Y-9422130D03*
X2899060Y-10422130D03*
%TO.N,Net-(USB1-CC2)*%
X13180000Y-10850000D03*
X10410000Y-10850000D03*
%TD*%
D18*
%TO.N,GND*%
X35139060Y-9462130D02*
X27219560Y-9462130D01*
X30070000Y-11172130D02*
X30070000Y-9482130D01*
X27219560Y-9462130D02*
X27213505Y-9468185D01*
D19*
X20722130Y-10252130D02*
X17499060Y-10252130D01*
D18*
X44389060Y-3322130D02*
X57139060Y-3322130D01*
X22700000Y-7442130D02*
X29329060Y-7442130D01*
D19*
X29346930Y-13330000D02*
X23800000Y-13330000D01*
X21635000Y-11165000D02*
X20722130Y-10252130D01*
D20*
X27213505Y-9468185D02*
X27213505Y-9467185D01*
X27213505Y-9467185D02*
X27219060Y-9461630D01*
D19*
X29349060Y-13332130D02*
X29346930Y-13330000D01*
X23800000Y-13330000D02*
X21635000Y-11165000D01*
D20*
%TO.N,/PB2{slash}BOOT1*%
X42639060Y-5811630D02*
X42639060Y-1342130D01*
D19*
%TO.N,/VDD_5V*%
X6169060Y-7782130D02*
X6169060Y-12562130D01*
D18*
%TO.N,/VDD_3.3V*%
X10043465Y-6836535D02*
X4549060Y-1342130D01*
X33879060Y-13982130D02*
X30749060Y-13982130D01*
X15783465Y-12576535D02*
X17189060Y-13982130D01*
X39993465Y-16336535D02*
X42639060Y-18982130D01*
X30749060Y-13982130D02*
X30749060Y-17112130D01*
X39993465Y-16336535D02*
X37639060Y-13982130D01*
X15783465Y-12576535D02*
X10043465Y-6836535D01*
X37639060Y-13982130D02*
X33879060Y-13982130D01*
X17189060Y-13982130D02*
X33879060Y-13982130D01*
D20*
%TO.N,/BOOT0*%
X34112130Y-13162130D02*
X31430000Y-10480000D01*
X31430000Y-10480000D02*
X30870000Y-10480000D01*
X45230000Y-13160000D02*
X45227870Y-13162130D01*
X45227870Y-13162130D02*
X34112130Y-13162130D01*
%TO.N,/NRST*%
X30060000Y-11860000D02*
X24746930Y-11860000D01*
X24746930Y-11860000D02*
X20959060Y-8072130D01*
X30060000Y-11860000D02*
X31405000Y-11860000D01*
X42199060Y-13462130D02*
X47719060Y-18982130D01*
X33007130Y-13462130D02*
X42199060Y-13462130D01*
X31405000Y-11860000D02*
X33007130Y-13462130D01*
%TO.N,/PA13{slash}SWDIO*%
X12376930Y-6630000D02*
X7089060Y-1342130D01*
X42223372Y-6630000D02*
X42241242Y-6612130D01*
X42241242Y-6612130D02*
X59120000Y-6612130D01*
X23356930Y-6630000D02*
X42223372Y-6630000D01*
X59120000Y-6612130D02*
X63960000Y-11452130D01*
X23286930Y-6630000D02*
X12376930Y-6630000D01*
%TO.N,/PA12*%
X23349581Y-5910419D02*
X23349162Y-5910000D01*
X14196930Y-5910000D02*
X9629060Y-1342130D01*
X23349162Y-5910000D02*
X14196930Y-5910000D01*
%TO.N,/PA14{slash}SWCLK*%
X26120000Y-8910000D02*
X24410000Y-10620000D01*
X24410000Y-10620000D02*
X24400000Y-10620000D01*
X55020000Y-8910000D02*
X26120000Y-8910000D01*
X55520000Y-9410000D02*
X55020000Y-8910000D01*
%TO.N,/PA0*%
X34348768Y-12681838D02*
X49038768Y-12681838D01*
X49038768Y-12681838D02*
X55339060Y-18982130D01*
%TO.N,/PA1*%
X51076930Y-12180000D02*
X57879060Y-18982130D01*
X35150000Y-12180000D02*
X51076930Y-12180000D01*
%TO.N,/PA2*%
X52519060Y-11082130D02*
X60419060Y-18982130D01*
X35149060Y-11082130D02*
X52519060Y-11082130D01*
D18*
%TO.N,Net-(U2-VDDA)*%
X43670000Y-10180000D02*
X32090000Y-10180000D01*
D20*
%TO.N,/USB_Data-*%
X2899060Y-10422130D02*
X2899060Y-9422130D01*
%TO.N,Net-(USB1-CC2)*%
X10410000Y-10850000D02*
X13180000Y-10850000D01*
%TD*%
%TA.AperFunction,Conductor*%
%TO.N,GND*%
G36*
X598660Y-272315D02*
G01*
X644415Y-325119D01*
X654910Y-389886D01*
X649060Y-444285D01*
X649060Y-1092130D01*
X1565374Y-1092130D01*
X1539567Y-1132286D01*
X1499060Y-1270241D01*
X1499060Y-1414019D01*
X1539567Y-1551974D01*
X1565374Y-1592130D01*
X649060Y-1592130D01*
X649060Y-2239974D01*
X655461Y-2299502D01*
X655463Y-2299509D01*
X705705Y-2434216D01*
X705709Y-2434223D01*
X791869Y-2549317D01*
X791872Y-2549320D01*
X906966Y-2635480D01*
X906973Y-2635484D01*
X1041680Y-2685726D01*
X1041687Y-2685728D01*
X1101215Y-2692129D01*
X1101232Y-2692130D01*
X1749060Y-2692130D01*
X1749060Y-1777631D01*
X1856745Y-1826810D01*
X1963297Y-1842130D01*
X2034823Y-1842130D01*
X2141375Y-1826810D01*
X2249060Y-1777631D01*
X2249060Y-2692130D01*
X2896888Y-2692130D01*
X2896904Y-2692129D01*
X2956432Y-2685728D01*
X2956439Y-2685726D01*
X3091146Y-2635484D01*
X3091153Y-2635480D01*
X3206247Y-2549320D01*
X3206250Y-2549317D01*
X3292410Y-2434223D01*
X3292414Y-2434216D01*
X3338741Y-2310007D01*
X3380612Y-2254073D01*
X3446076Y-2229656D01*
X3514349Y-2244507D01*
X3546149Y-2269353D01*
X3615820Y-2345036D01*
X3793484Y-2483319D01*
X3793485Y-2483319D01*
X3793487Y-2483321D01*
X3915438Y-2549317D01*
X3991486Y-2590472D01*
X4007539Y-2595982D01*
X4021433Y-2600753D01*
X4039596Y-2608661D01*
X4050214Y-2614334D01*
X5329915Y-3078390D01*
X5341881Y-3082729D01*
X5387290Y-3111620D01*
X9003835Y-6728165D01*
X9025667Y-6757684D01*
X9261613Y-7201947D01*
X9276339Y-7227833D01*
X9279365Y-7232226D01*
X9279298Y-7232271D01*
X9287265Y-7243760D01*
X9345096Y-7343926D01*
X9465846Y-7478034D01*
X9465849Y-7478036D01*
X9465852Y-7478039D01*
X9611850Y-7584113D01*
X9649177Y-7600732D01*
X9671889Y-7613886D01*
X9678031Y-7618373D01*
X9678034Y-7618375D01*
X10043625Y-7812539D01*
X10122313Y-7854330D01*
X10151832Y-7876162D01*
X12305489Y-10029819D01*
X12338974Y-10091142D01*
X12333990Y-10160834D01*
X12292118Y-10216767D01*
X12226654Y-10241184D01*
X12217808Y-10241500D01*
X11026112Y-10241500D01*
X10987901Y-10235466D01*
X10674135Y-10133831D01*
X10641808Y-10124519D01*
X10636465Y-10123477D01*
X10636540Y-10123090D01*
X10615933Y-10118463D01*
X10595515Y-10111319D01*
X10579850Y-10105838D01*
X10579848Y-10105837D01*
X10579843Y-10105836D01*
X10410004Y-10086701D01*
X10409996Y-10086701D01*
X10240155Y-10105836D01*
X10240150Y-10105837D01*
X10078816Y-10162291D01*
X9934091Y-10253228D01*
X9813228Y-10374091D01*
X9722291Y-10518816D01*
X9665837Y-10680150D01*
X9665836Y-10680155D01*
X9646701Y-10849996D01*
X9646701Y-10850003D01*
X9665836Y-11019844D01*
X9665837Y-11019849D01*
X9705510Y-11133227D01*
X9722291Y-11181183D01*
X9813229Y-11325909D01*
X9934091Y-11446771D01*
X10078817Y-11537709D01*
X10204067Y-11581536D01*
X10240150Y-11594162D01*
X10240155Y-11594163D01*
X10409996Y-11613299D01*
X10410000Y-11613299D01*
X10410004Y-11613299D01*
X10579843Y-11594163D01*
X10579843Y-11594162D01*
X10579850Y-11594162D01*
X10636302Y-11574407D01*
X10656209Y-11569250D01*
X10674149Y-11566163D01*
X10987899Y-11464534D01*
X11026110Y-11458500D01*
X12563889Y-11458500D01*
X12602100Y-11464534D01*
X12915849Y-11566163D01*
X12948194Y-11575480D01*
X12948207Y-11575481D01*
X12953540Y-11576522D01*
X12953463Y-11576913D01*
X12974064Y-11581534D01*
X13010150Y-11594162D01*
X13010154Y-11594162D01*
X13010156Y-11594163D01*
X13179996Y-11613299D01*
X13180000Y-11613299D01*
X13180004Y-11613299D01*
X13349844Y-11594163D01*
X13349847Y-11594162D01*
X13349850Y-11594162D01*
X13511183Y-11537709D01*
X13613038Y-11473708D01*
X13680273Y-11454708D01*
X13747109Y-11475075D01*
X13766691Y-11491021D01*
X14592029Y-12316359D01*
X14616784Y-12351751D01*
X14897387Y-12955131D01*
X14917395Y-12993779D01*
X14917400Y-12993788D01*
X14917985Y-12994537D01*
X14929604Y-13012393D01*
X14982643Y-13111624D01*
X14982645Y-13111627D01*
X15102423Y-13257576D01*
X15248372Y-13377354D01*
X15248375Y-13377356D01*
X15258048Y-13382526D01*
X15386464Y-13451165D01*
X15395750Y-13456662D01*
X15404867Y-13462611D01*
X15404871Y-13462612D01*
X15404873Y-13462614D01*
X15518269Y-13515349D01*
X16008247Y-13743214D01*
X16043638Y-13767968D01*
X16662340Y-14386670D01*
X16672490Y-14399338D01*
X16672666Y-14399194D01*
X16677640Y-14405206D01*
X16729332Y-14453748D01*
X16732131Y-14456461D01*
X16752722Y-14477053D01*
X16756302Y-14479830D01*
X16765184Y-14487416D01*
X16798924Y-14519100D01*
X16798926Y-14519101D01*
X16798927Y-14519102D01*
X16817863Y-14529512D01*
X16834109Y-14540183D01*
X16851192Y-14553434D01*
X16851197Y-14553436D01*
X16893674Y-14571818D01*
X16904165Y-14576957D01*
X16944723Y-14599254D01*
X16960883Y-14603402D01*
X16965643Y-14604625D01*
X16984046Y-14610925D01*
X17003884Y-14619510D01*
X17049616Y-14626752D01*
X17061043Y-14629119D01*
X17105872Y-14640630D01*
X17127472Y-14640630D01*
X17146871Y-14642157D01*
X17168212Y-14645537D01*
X17209947Y-14641591D01*
X17214304Y-14641180D01*
X17225973Y-14640630D01*
X29966560Y-14640630D01*
X30033599Y-14660315D01*
X30079354Y-14713119D01*
X30090560Y-14764630D01*
X30090560Y-16300371D01*
X30085124Y-16336682D01*
X29937819Y-16817671D01*
X29929922Y-16846412D01*
X29928955Y-16851662D01*
X29928699Y-16851614D01*
X29924549Y-16871549D01*
X29904695Y-16932653D01*
X29904695Y-16932654D01*
X29885831Y-17112130D01*
X29904695Y-17291606D01*
X29915251Y-17324093D01*
X29949309Y-17428915D01*
X29959836Y-17461312D01*
X29961831Y-17531153D01*
X29925750Y-17590986D01*
X29863049Y-17621814D01*
X29841905Y-17623630D01*
X29826491Y-17623630D01*
X29604422Y-17660686D01*
X29391490Y-17733786D01*
X29391479Y-17733791D01*
X29193487Y-17840938D01*
X29193482Y-17840942D01*
X29015821Y-17979222D01*
X29015816Y-17979227D01*
X28863344Y-18144853D01*
X28863336Y-18144864D01*
X28772868Y-18283336D01*
X28719722Y-18328692D01*
X28650491Y-18338116D01*
X28587155Y-18308614D01*
X28565252Y-18283336D01*
X28499686Y-18182981D01*
X28474782Y-18144862D01*
X28474779Y-18144859D01*
X28474775Y-18144853D01*
X28322303Y-17979227D01*
X28322298Y-17979222D01*
X28178724Y-17867473D01*
X28144636Y-17840941D01*
X28144635Y-17840940D01*
X28144632Y-17840938D01*
X27946640Y-17733791D01*
X27946637Y-17733789D01*
X27946634Y-17733788D01*
X27946631Y-17733787D01*
X27946629Y-17733786D01*
X27733697Y-17660686D01*
X27511629Y-17623630D01*
X27286491Y-17623630D01*
X27064422Y-17660686D01*
X26851490Y-17733786D01*
X26851479Y-17733791D01*
X26653487Y-17840938D01*
X26653482Y-17840942D01*
X26475821Y-17979222D01*
X26475816Y-17979227D01*
X26323344Y-18144853D01*
X26323336Y-18144864D01*
X26232868Y-18283336D01*
X26179722Y-18328692D01*
X26110491Y-18338116D01*
X26047155Y-18308614D01*
X26025252Y-18283336D01*
X25959686Y-18182981D01*
X25934782Y-18144862D01*
X25934779Y-18144859D01*
X25934775Y-18144853D01*
X25782303Y-17979227D01*
X25782298Y-17979222D01*
X25638724Y-17867473D01*
X25604636Y-17840941D01*
X25604635Y-17840940D01*
X25604632Y-17840938D01*
X25406640Y-17733791D01*
X25406637Y-17733789D01*
X25406634Y-17733788D01*
X25406631Y-17733787D01*
X25406629Y-17733786D01*
X25193697Y-17660686D01*
X24971629Y-17623630D01*
X24746491Y-17623630D01*
X24524422Y-17660686D01*
X24311490Y-17733786D01*
X24311479Y-17733791D01*
X24113487Y-17840938D01*
X24113482Y-17840942D01*
X23935821Y-17979222D01*
X23935816Y-17979227D01*
X23783344Y-18144853D01*
X23783336Y-18144864D01*
X23692868Y-18283336D01*
X23639722Y-18328692D01*
X23570491Y-18338116D01*
X23507155Y-18308614D01*
X23485252Y-18283336D01*
X23419686Y-18182981D01*
X23394782Y-18144862D01*
X23394779Y-18144859D01*
X23394775Y-18144853D01*
X23242303Y-17979227D01*
X23242298Y-17979222D01*
X23098724Y-17867473D01*
X23064636Y-17840941D01*
X23064635Y-17840940D01*
X23064632Y-17840938D01*
X22866640Y-17733791D01*
X22866637Y-17733789D01*
X22866634Y-17733788D01*
X22866631Y-17733787D01*
X22866629Y-17733786D01*
X22653697Y-17660686D01*
X22431629Y-17623630D01*
X22206491Y-17623630D01*
X21984422Y-17660686D01*
X21771490Y-17733786D01*
X21771479Y-17733791D01*
X21573487Y-17840938D01*
X21573482Y-17840942D01*
X21395821Y-17979222D01*
X21395816Y-17979227D01*
X21243344Y-18144853D01*
X21243336Y-18144864D01*
X21152868Y-18283336D01*
X21099722Y-18328692D01*
X21030491Y-18338116D01*
X20967155Y-18308614D01*
X20945252Y-18283336D01*
X20879686Y-18182981D01*
X20854782Y-18144862D01*
X20854779Y-18144859D01*
X20854775Y-18144853D01*
X20702303Y-17979227D01*
X20702298Y-17979222D01*
X20558724Y-17867473D01*
X20524636Y-17840941D01*
X20524635Y-17840940D01*
X20524632Y-17840938D01*
X20326640Y-17733791D01*
X20326637Y-17733789D01*
X20326634Y-17733788D01*
X20326631Y-17733787D01*
X20326629Y-17733786D01*
X20113697Y-17660686D01*
X19891629Y-17623630D01*
X19666491Y-17623630D01*
X19444422Y-17660686D01*
X19231490Y-17733786D01*
X19231479Y-17733791D01*
X19033487Y-17840938D01*
X19033482Y-17840942D01*
X18855821Y-17979222D01*
X18855816Y-17979227D01*
X18703344Y-18144853D01*
X18703336Y-18144864D01*
X18612868Y-18283336D01*
X18559722Y-18328692D01*
X18490491Y-18338116D01*
X18427155Y-18308614D01*
X18405252Y-18283336D01*
X18339686Y-18182981D01*
X18314782Y-18144862D01*
X18314779Y-18144859D01*
X18314775Y-18144853D01*
X18162303Y-17979227D01*
X18162298Y-17979222D01*
X18018724Y-17867473D01*
X17984636Y-17840941D01*
X17984635Y-17840940D01*
X17984632Y-17840938D01*
X17786640Y-17733791D01*
X17786637Y-17733789D01*
X17786634Y-17733788D01*
X17786631Y-17733787D01*
X17786629Y-17733786D01*
X17573697Y-17660686D01*
X17351629Y-17623630D01*
X17126491Y-17623630D01*
X16904422Y-17660686D01*
X16691490Y-17733786D01*
X16691479Y-17733791D01*
X16493487Y-17840938D01*
X16493482Y-17840942D01*
X16315821Y-17979222D01*
X16315816Y-17979227D01*
X16163344Y-18144853D01*
X16163336Y-18144864D01*
X16072868Y-18283336D01*
X16019722Y-18328692D01*
X15950491Y-18338116D01*
X15887155Y-18308614D01*
X15865252Y-18283336D01*
X15799686Y-18182981D01*
X15774782Y-18144862D01*
X15774779Y-18144859D01*
X15774775Y-18144853D01*
X15622303Y-17979227D01*
X15622298Y-17979222D01*
X15478724Y-17867473D01*
X15444636Y-17840941D01*
X15444635Y-17840940D01*
X15444632Y-17840938D01*
X15246640Y-17733791D01*
X15246637Y-17733789D01*
X15246634Y-17733788D01*
X15246631Y-17733787D01*
X15246629Y-17733786D01*
X15033697Y-17660686D01*
X14811629Y-17623630D01*
X14586491Y-17623630D01*
X14364422Y-17660686D01*
X14151490Y-17733786D01*
X14151479Y-17733791D01*
X13953487Y-17840938D01*
X13953482Y-17840942D01*
X13775821Y-17979222D01*
X13775816Y-17979227D01*
X13623344Y-18144853D01*
X13623336Y-18144864D01*
X13532868Y-18283336D01*
X13479722Y-18328692D01*
X13410491Y-18338116D01*
X13347155Y-18308614D01*
X13325252Y-18283336D01*
X13259686Y-18182981D01*
X13234782Y-18144862D01*
X13234779Y-18144859D01*
X13234775Y-18144853D01*
X13082303Y-17979227D01*
X13082298Y-17979222D01*
X12938724Y-17867473D01*
X12904636Y-17840941D01*
X12904635Y-17840940D01*
X12904632Y-17840938D01*
X12706640Y-17733791D01*
X12706637Y-17733789D01*
X12706634Y-17733788D01*
X12706631Y-17733787D01*
X12706629Y-17733786D01*
X12493697Y-17660686D01*
X12271629Y-17623630D01*
X12046491Y-17623630D01*
X11824422Y-17660686D01*
X11611490Y-17733786D01*
X11611479Y-17733791D01*
X11413487Y-17840938D01*
X11413482Y-17840942D01*
X11235821Y-17979222D01*
X11235816Y-17979227D01*
X11083344Y-18144853D01*
X11083336Y-18144864D01*
X10992868Y-18283336D01*
X10939722Y-18328692D01*
X10870491Y-18338116D01*
X10807155Y-18308614D01*
X10785252Y-18283336D01*
X10719686Y-18182981D01*
X10694782Y-18144862D01*
X10694779Y-18144859D01*
X10694775Y-18144853D01*
X10542303Y-17979227D01*
X10542298Y-17979222D01*
X10398724Y-17867473D01*
X10364636Y-17840941D01*
X10364635Y-17840940D01*
X10364632Y-17840938D01*
X10166640Y-17733791D01*
X10166637Y-17733789D01*
X10166634Y-17733788D01*
X10166631Y-17733787D01*
X10166629Y-17733786D01*
X9953697Y-17660686D01*
X9731629Y-17623630D01*
X9506491Y-17623630D01*
X9284422Y-17660686D01*
X9071490Y-17733786D01*
X9071479Y-17733791D01*
X8873487Y-17840938D01*
X8873482Y-17840942D01*
X8695821Y-17979222D01*
X8695816Y-17979227D01*
X8543344Y-18144853D01*
X8543336Y-18144864D01*
X8452868Y-18283336D01*
X8399722Y-18328692D01*
X8330491Y-18338116D01*
X8267155Y-18308614D01*
X8245252Y-18283336D01*
X8179686Y-18182981D01*
X8154782Y-18144862D01*
X8154779Y-18144859D01*
X8154775Y-18144853D01*
X8002303Y-17979227D01*
X8002298Y-17979222D01*
X7858724Y-17867473D01*
X7824636Y-17840941D01*
X7824635Y-17840940D01*
X7824632Y-17840938D01*
X7626640Y-17733791D01*
X7626637Y-17733789D01*
X7626634Y-17733788D01*
X7626631Y-17733787D01*
X7626629Y-17733786D01*
X7413697Y-17660686D01*
X7191629Y-17623630D01*
X6966491Y-17623630D01*
X6744422Y-17660686D01*
X6531490Y-17733786D01*
X6531479Y-17733791D01*
X6333487Y-17840938D01*
X6333482Y-17840942D01*
X6155821Y-17979222D01*
X6155816Y-17979227D01*
X6003344Y-18144853D01*
X6003336Y-18144864D01*
X5912868Y-18283336D01*
X5859722Y-18328692D01*
X5790491Y-18338116D01*
X5727155Y-18308614D01*
X5705252Y-18283336D01*
X5639686Y-18182981D01*
X5614782Y-18144862D01*
X5614779Y-18144859D01*
X5614775Y-18144853D01*
X5462303Y-17979227D01*
X5462298Y-17979222D01*
X5318724Y-17867473D01*
X5284636Y-17840941D01*
X5284635Y-17840940D01*
X5284632Y-17840938D01*
X5086640Y-17733791D01*
X5086637Y-17733789D01*
X5086634Y-17733788D01*
X5086631Y-17733787D01*
X5086629Y-17733786D01*
X4873697Y-17660686D01*
X4651629Y-17623630D01*
X4426491Y-17623630D01*
X4204422Y-17660686D01*
X3991490Y-17733786D01*
X3991479Y-17733791D01*
X3793487Y-17840938D01*
X3793482Y-17840942D01*
X3615821Y-17979222D01*
X3546152Y-18054903D01*
X3486265Y-18090893D01*
X3416427Y-18088792D01*
X3358811Y-18049267D01*
X3338741Y-18014252D01*
X3292414Y-17890043D01*
X3292410Y-17890036D01*
X3206250Y-17774942D01*
X3206247Y-17774939D01*
X3091153Y-17688779D01*
X3091146Y-17688775D01*
X2956439Y-17638533D01*
X2956432Y-17638531D01*
X2896904Y-17632130D01*
X2249060Y-17632130D01*
X2249060Y-18546628D01*
X2141375Y-18497450D01*
X2034823Y-18482130D01*
X1963297Y-18482130D01*
X1856745Y-18497450D01*
X1749060Y-18546628D01*
X1749060Y-17632130D01*
X1101215Y-17632130D01*
X1041687Y-17638531D01*
X1041680Y-17638533D01*
X906973Y-17688775D01*
X906966Y-17688779D01*
X791872Y-17774939D01*
X791869Y-17774942D01*
X705709Y-17890036D01*
X705705Y-17890043D01*
X655463Y-18024750D01*
X655461Y-18024757D01*
X649060Y-18084285D01*
X649060Y-18732130D01*
X1565374Y-18732130D01*
X1539567Y-18772286D01*
X1499060Y-18910241D01*
X1499060Y-19054019D01*
X1539567Y-19191974D01*
X1565374Y-19232130D01*
X649060Y-19232130D01*
X649060Y-19879974D01*
X655884Y-19943434D01*
X643479Y-20012194D01*
X595869Y-20063331D01*
X532595Y-20080690D01*
X-1015572Y-20080690D01*
X-1024418Y-20080374D01*
X-1260134Y-20063515D01*
X-1277646Y-20060997D01*
X-1504220Y-20011709D01*
X-1521196Y-20006725D01*
X-1738461Y-19925689D01*
X-1754554Y-19918339D01*
X-1958062Y-19807214D01*
X-1972945Y-19797649D01*
X-2158578Y-19658686D01*
X-2171943Y-19647106D01*
X-2335916Y-19483132D01*
X-2347489Y-19469776D01*
X-2486462Y-19284129D01*
X-2496012Y-19269270D01*
X-2607147Y-19065739D01*
X-2614494Y-19049650D01*
X-2668358Y-18905231D01*
X-2695529Y-18832384D01*
X-2700511Y-18815413D01*
X-2709103Y-18775918D01*
X-2749800Y-18588832D01*
X-2752317Y-18571325D01*
X-2753119Y-18560114D01*
X-2765103Y-18392535D01*
X-2769184Y-18335466D01*
X-2769500Y-18326621D01*
X-2769500Y-18130003D01*
X-2083249Y-18130003D01*
X-2076321Y-18204776D01*
X-2075933Y-18210313D01*
X-2072209Y-18288470D01*
X-2072208Y-18288475D01*
X-2068445Y-18303986D01*
X-2065479Y-18321774D01*
X-2064294Y-18334559D01*
X-2047799Y-18392535D01*
X-2042800Y-18410102D01*
X-2041562Y-18414802D01*
X-2022299Y-18494201D01*
X-2022298Y-18494206D01*
X-2017109Y-18505568D01*
X-2010641Y-18523134D01*
X-2008078Y-18532141D01*
X-2008072Y-18532157D01*
X-1971524Y-18605554D01*
X-1969730Y-18609314D01*
X-1934359Y-18686765D01*
X-1934353Y-18686776D01*
X-1929121Y-18694123D01*
X-1919132Y-18710771D01*
X-1916504Y-18716048D01*
X-1916502Y-18716052D01*
X-1865011Y-18784236D01*
X-1862958Y-18787035D01*
X-1811557Y-18859218D01*
X-1811555Y-18859219D01*
X-1807541Y-18863047D01*
X-1794163Y-18878057D01*
X-1792708Y-18879983D01*
X-1792705Y-18879987D01*
X-1792702Y-18879989D01*
X-1792701Y-18879991D01*
X-1726960Y-18939922D01*
X-1724967Y-18941780D01*
X-1658346Y-19005303D01*
X-1656602Y-19006424D01*
X-1645481Y-19014970D01*
X-1645456Y-19014938D01*
X-1640881Y-19018393D01*
X-1562315Y-19067039D01*
X-1560598Y-19068122D01*
X-1498344Y-19108130D01*
X-1480252Y-19119757D01*
X-1475000Y-19122465D01*
X-1475034Y-19122529D01*
X-1471512Y-19124308D01*
X-1471350Y-19123984D01*
X-1466227Y-19126534D01*
X-1466218Y-19126540D01*
X-1376840Y-19161164D01*
X-1375612Y-19161647D01*
X-1341838Y-19175169D01*
X-1283722Y-19198436D01*
X-1281753Y-19199013D01*
X-1275660Y-19200465D01*
X-1274661Y-19200749D01*
X-1274660Y-19200749D01*
X-1274655Y-19200751D01*
X-1176828Y-19219037D01*
X-1176717Y-19219058D01*
X-1075849Y-19238500D01*
X-1075844Y-19238500D01*
X-867284Y-19238500D01*
X-867282Y-19238500D01*
X-820603Y-19229773D01*
X-809651Y-19228229D01*
X-759261Y-19223419D01*
X-717349Y-19211112D01*
X-705214Y-19208203D01*
X-665345Y-19200751D01*
X-617873Y-19182360D01*
X-608014Y-19179009D01*
X-577128Y-19169939D01*
X-556138Y-19163777D01*
X-543606Y-19157315D01*
X-520391Y-19145348D01*
X-508366Y-19139937D01*
X-473782Y-19126540D01*
X-427543Y-19097909D01*
X-419081Y-19093118D01*
X-370651Y-19068151D01*
X-367974Y-19066771D01*
X-339078Y-19044046D01*
X-327718Y-19036099D01*
X-299118Y-19018392D01*
X-256367Y-18979417D01*
X-249506Y-18973606D01*
X-201568Y-18935908D01*
X-179769Y-18910749D01*
X-169595Y-18900316D01*
X-163556Y-18894809D01*
X-147299Y-18879991D01*
X-110346Y-18831055D01*
X-105136Y-18824618D01*
X-62935Y-18775918D01*
X-48011Y-18750066D01*
X-39592Y-18737361D01*
X-23497Y-18716050D01*
X5364Y-18658088D01*
X8977Y-18651360D01*
X8993Y-18651332D01*
X42913Y-18592582D01*
X51537Y-18567661D01*
X57709Y-18552965D01*
X68074Y-18532152D01*
X86745Y-18466527D01*
X88827Y-18459921D01*
X112150Y-18392535D01*
X112153Y-18392527D01*
X115412Y-18369857D01*
X118878Y-18353590D01*
X124294Y-18334559D01*
X130906Y-18263199D01*
X131638Y-18257003D01*
X138352Y-18210313D01*
X142281Y-18182984D01*
X141356Y-18163578D01*
X141743Y-18146238D01*
X143249Y-18130000D01*
X136318Y-18055214D01*
X135930Y-18049679D01*
X135910Y-18049267D01*
X132208Y-17971526D01*
X128441Y-17956002D01*
X125478Y-17938229D01*
X124294Y-17925441D01*
X102783Y-17849840D01*
X101556Y-17845182D01*
X82298Y-17765796D01*
X77107Y-17754430D01*
X70636Y-17736853D01*
X68076Y-17727856D01*
X68074Y-17727848D01*
X37981Y-17667414D01*
X31511Y-17654421D01*
X29716Y-17650659D01*
X24178Y-17638533D01*
X-5644Y-17573229D01*
X-10879Y-17565877D01*
X-20871Y-17549224D01*
X-23497Y-17543950D01*
X-24242Y-17542964D01*
X-74990Y-17475763D01*
X-77044Y-17472963D01*
X-83971Y-17463235D01*
X-128441Y-17400785D01*
X-128446Y-17400780D01*
X-132454Y-17396958D01*
X-145847Y-17381931D01*
X-147292Y-17380018D01*
X-147295Y-17380014D01*
X-147296Y-17380013D01*
X-147299Y-17380009D01*
X-213087Y-17320036D01*
X-214998Y-17318253D01*
X-281654Y-17254697D01*
X-281657Y-17254694D01*
X-283399Y-17253575D01*
X-294520Y-17245029D01*
X-294544Y-17245062D01*
X-299123Y-17241604D01*
X-377673Y-17192967D01*
X-379433Y-17191857D01*
X-459742Y-17140246D01*
X-465001Y-17137535D01*
X-464968Y-17137470D01*
X-468488Y-17135692D01*
X-468649Y-17136016D01*
X-473787Y-17133457D01*
X-563117Y-17098851D01*
X-564409Y-17098343D01*
X-656278Y-17061564D01*
X-658239Y-17060988D01*
X-664320Y-17059540D01*
X-665340Y-17059250D01*
X-762983Y-17040996D01*
X-763663Y-17040867D01*
X-864150Y-17021500D01*
X-864151Y-17021500D01*
X-867282Y-17021500D01*
X-1072718Y-17021500D01*
X-1072724Y-17021500D01*
X-1119386Y-17030222D01*
X-1130378Y-17031771D01*
X-1180735Y-17036580D01*
X-1180739Y-17036580D01*
X-1180739Y-17036581D01*
X-1222654Y-17048888D01*
X-1234800Y-17051798D01*
X-1274649Y-17059247D01*
X-1274662Y-17059251D01*
X-1322134Y-17077641D01*
X-1331989Y-17080991D01*
X-1383860Y-17096222D01*
X-1419611Y-17114652D01*
X-1431629Y-17120059D01*
X-1466219Y-17133460D01*
X-1466220Y-17133460D01*
X-1512460Y-17162091D01*
X-1520915Y-17166878D01*
X-1572023Y-17193226D01*
X-1600918Y-17215949D01*
X-1612286Y-17223901D01*
X-1640885Y-17241609D01*
X-1683625Y-17280571D01*
X-1690506Y-17286400D01*
X-1738435Y-17324093D01*
X-1760237Y-17349253D01*
X-1770402Y-17359678D01*
X-1792699Y-17380006D01*
X-1829634Y-17428915D01*
X-1834873Y-17435387D01*
X-1877064Y-17484079D01*
X-1891986Y-17509925D01*
X-1900413Y-17522641D01*
X-1916503Y-17543950D01*
X-1916504Y-17543951D01*
X-1916504Y-17543952D01*
X-1916509Y-17543960D01*
X-1945368Y-17601914D01*
X-1948978Y-17608637D01*
X-1982912Y-17667414D01*
X-1991536Y-17692331D01*
X-1997712Y-17707036D01*
X-2008072Y-17727842D01*
X-2008077Y-17727856D01*
X-2026744Y-17793459D01*
X-2028828Y-17800077D01*
X-2052154Y-17867475D01*
X-2055413Y-17890137D01*
X-2058881Y-17906409D01*
X-2064294Y-17925437D01*
X-2070907Y-17996796D01*
X-2071640Y-18002999D01*
X-2082281Y-18077010D01*
X-2082281Y-18077015D01*
X-2081357Y-18096434D01*
X-2081746Y-18113766D01*
X-2082113Y-18117744D01*
X-2083249Y-18130003D01*
X-2769500Y-18130003D01*
X-2769500Y-14861776D01*
X-2749815Y-14794737D01*
X-2697011Y-14748982D01*
X-2627853Y-14739038D01*
X-2564297Y-14768063D01*
X-2529218Y-14818711D01*
X-2484375Y-14939795D01*
X-2376791Y-15112397D01*
X-2236676Y-15259798D01*
X-2236674Y-15259799D01*
X-2069745Y-15375986D01*
X-1882848Y-15456189D01*
X-1683630Y-15497130D01*
X-1381940Y-15497130D01*
X-1381940Y-14797130D01*
X-881940Y-14797130D01*
X-881940Y-15497130D01*
X-631227Y-15497130D01*
X-479602Y-15481711D01*
X-285559Y-15420830D01*
X-285549Y-15420825D01*
X-107725Y-15322124D01*
X-107724Y-15322124D01*
X46590Y-15189651D01*
X46591Y-15189650D01*
X171078Y-15028825D01*
X260648Y-14846223D01*
X286306Y-14747130D01*
X1544694Y-14747130D01*
X1544991Y-14749076D01*
X1544993Y-14749082D01*
X1615622Y-14939787D01*
X1615625Y-14939794D01*
X1723209Y-15112397D01*
X1863324Y-15259798D01*
X1863326Y-15259799D01*
X2030255Y-15375986D01*
X2217152Y-15456189D01*
X2416370Y-15497130D01*
X2818060Y-15497130D01*
X2818060Y-14797130D01*
X3318060Y-14797130D01*
X3318060Y-15497130D01*
X3668773Y-15497130D01*
X3820398Y-15481711D01*
X4014441Y-15420830D01*
X4014451Y-15420825D01*
X4192275Y-15322124D01*
X4192276Y-15322124D01*
X4346590Y-15189651D01*
X4346591Y-15189650D01*
X4471078Y-15028825D01*
X4560648Y-14846223D01*
X4586306Y-14747130D01*
X3834171Y-14747130D01*
X3873670Y-14722673D01*
X3941261Y-14633168D01*
X3971955Y-14525290D01*
X3961606Y-14413609D01*
X3911612Y-14313208D01*
X3839129Y-14247130D01*
X4591426Y-14247130D01*
X4591128Y-14245183D01*
X4591126Y-14245177D01*
X4520497Y-14054472D01*
X4520494Y-14054465D01*
X4412910Y-13881862D01*
X4272795Y-13734461D01*
X4272793Y-13734460D01*
X4105864Y-13618273D01*
X3918967Y-13538070D01*
X3719750Y-13497130D01*
X3318060Y-13497130D01*
X3318060Y-14197130D01*
X2818060Y-14197130D01*
X2818060Y-13595154D01*
X2837745Y-13528115D01*
X2863802Y-13498969D01*
X2955725Y-13424184D01*
X3039031Y-13306167D01*
X3062630Y-13239764D01*
X3087405Y-13170055D01*
X3087405Y-13170053D01*
X3087406Y-13170051D01*
X3097264Y-13025931D01*
X3067874Y-12884496D01*
X3001414Y-12756235D01*
X3001411Y-12756232D01*
X3001410Y-12756230D01*
X2902814Y-12650660D01*
X2779390Y-12575605D01*
X2779389Y-12575604D01*
X2779388Y-12575604D01*
X2731299Y-12562130D01*
X5205922Y-12562130D01*
X5224428Y-12750031D01*
X5279237Y-12930708D01*
X5368236Y-13097215D01*
X5368240Y-13097222D01*
X5488018Y-13243171D01*
X5633967Y-13362949D01*
X5633974Y-13362953D01*
X5748532Y-13424185D01*
X5800483Y-13451953D01*
X5981161Y-13506762D01*
X6169060Y-13525268D01*
X6356959Y-13506762D01*
X6537637Y-13451953D01*
X6704151Y-13362950D01*
X6850101Y-13243171D01*
X6969880Y-13097221D01*
X7058883Y-12930707D01*
X7113692Y-12750029D01*
X7132198Y-12562130D01*
X7113692Y-12374231D01*
X7088010Y-12289572D01*
X7084404Y-12270591D01*
X7083968Y-12270659D01*
X7083298Y-12266303D01*
X7083297Y-12266290D01*
X7009112Y-11940541D01*
X6930656Y-11596038D01*
X6927560Y-11568504D01*
X6927560Y-8755754D01*
X6930656Y-8728219D01*
X6932006Y-8722291D01*
X7083297Y-8057969D01*
X7085647Y-8047111D01*
X7085647Y-8047108D01*
X7086654Y-8042457D01*
X7086765Y-8042481D01*
X7089656Y-8029262D01*
X7113692Y-7950029D01*
X7132198Y-7762130D01*
X7113692Y-7574231D01*
X7058883Y-7393553D01*
X7023827Y-7327968D01*
X6969883Y-7227044D01*
X6969879Y-7227037D01*
X6850101Y-7081088D01*
X6704152Y-6961310D01*
X6704145Y-6961306D01*
X6537638Y-6872307D01*
X6356961Y-6817498D01*
X6169060Y-6798992D01*
X5981158Y-6817498D01*
X5800481Y-6872307D01*
X5633974Y-6961306D01*
X5633967Y-6961310D01*
X5488018Y-7081088D01*
X5368240Y-7227037D01*
X5368236Y-7227044D01*
X5279237Y-7393551D01*
X5224428Y-7574228D01*
X5205922Y-7762130D01*
X5224427Y-7950027D01*
X5250106Y-8034679D01*
X5253715Y-8053652D01*
X5254148Y-8053586D01*
X5254822Y-8057972D01*
X5368679Y-8557915D01*
X5407463Y-8728219D01*
X5407464Y-8728221D01*
X5410560Y-8755756D01*
X5410560Y-11568502D01*
X5407464Y-11596037D01*
X5254816Y-12266310D01*
X5251464Y-12281803D01*
X5251355Y-12281779D01*
X5248458Y-12295011D01*
X5224428Y-12374230D01*
X5205922Y-12562130D01*
X2731299Y-12562130D01*
X2640288Y-12536630D01*
X2532111Y-12536630D01*
X2532110Y-12536630D01*
X2424949Y-12551359D01*
X2292449Y-12608911D01*
X2292449Y-12608912D01*
X2180398Y-12700073D01*
X2180393Y-12700078D01*
X2097088Y-12818093D01*
X2048714Y-12954204D01*
X2048714Y-12954207D01*
X2042274Y-13048366D01*
X2038856Y-13098329D01*
X2049565Y-13149864D01*
X2068246Y-13239764D01*
X2068247Y-13239766D01*
X2092883Y-13287311D01*
X2111154Y-13322573D01*
X2134705Y-13368023D01*
X2134709Y-13368029D01*
X2148248Y-13382526D01*
X2179619Y-13444957D01*
X2172257Y-13514438D01*
X2128499Y-13568908D01*
X2117801Y-13575580D01*
X1943844Y-13672134D01*
X1943843Y-13672135D01*
X1789529Y-13804608D01*
X1789528Y-13804609D01*
X1665041Y-13965434D01*
X1575471Y-14148036D01*
X1549814Y-14247130D01*
X2301949Y-14247130D01*
X2262450Y-14271587D01*
X2194859Y-14361092D01*
X2164165Y-14468970D01*
X2174514Y-14580651D01*
X2224508Y-14681052D01*
X2296991Y-14747130D01*
X1544694Y-14747130D01*
X286306Y-14747130D01*
X-515829Y-14747130D01*
X-476330Y-14722673D01*
X-408739Y-14633168D01*
X-378045Y-14525290D01*
X-388394Y-14413609D01*
X-438388Y-14313208D01*
X-510871Y-14247130D01*
X291426Y-14247130D01*
X291128Y-14245183D01*
X291126Y-14245177D01*
X220497Y-14054472D01*
X220494Y-14054465D01*
X112910Y-13881862D01*
X-27205Y-13734461D01*
X-27207Y-13734460D01*
X-194136Y-13618273D01*
X-381033Y-13538070D01*
X-580250Y-13497130D01*
X-881940Y-13497130D01*
X-881940Y-14197130D01*
X-1381940Y-14197130D01*
X-1381940Y-13497130D01*
X-1632653Y-13497130D01*
X-1784279Y-13512548D01*
X-1978322Y-13573429D01*
X-1978332Y-13573434D01*
X-2156156Y-13672135D01*
X-2156157Y-13672135D01*
X-2310471Y-13804608D01*
X-2310472Y-13804609D01*
X-2434959Y-13965434D01*
X-2524529Y-14148035D01*
X-2525459Y-14151630D01*
X-2526512Y-14153390D01*
X-2526712Y-14153931D01*
X-2526813Y-14153893D01*
X-2561320Y-14211595D01*
X-2623907Y-14242652D01*
X-2693350Y-14234943D01*
X-2747601Y-14190913D01*
X-2769436Y-14124543D01*
X-2769500Y-14120547D01*
X-2769500Y-10422133D01*
X2135761Y-10422133D01*
X2154896Y-10591974D01*
X2154897Y-10591979D01*
X2211351Y-10753313D01*
X2266641Y-10841307D01*
X2302289Y-10898039D01*
X2423151Y-11018901D01*
X2567877Y-11109839D01*
X2665035Y-11143836D01*
X2729210Y-11166292D01*
X2729215Y-11166293D01*
X2899056Y-11185429D01*
X2899060Y-11185429D01*
X2899064Y-11185429D01*
X3068904Y-11166293D01*
X3068907Y-11166292D01*
X3068910Y-11166292D01*
X3230243Y-11109839D01*
X3374969Y-11018901D01*
X3495831Y-10898039D01*
X3586769Y-10753313D01*
X3643222Y-10591980D01*
X3650493Y-10527447D01*
X3662359Y-10422133D01*
X3662359Y-10422126D01*
X3643223Y-10252287D01*
X3643221Y-10252279D01*
X3637338Y-10235466D01*
X3623473Y-10195841D01*
X3618311Y-10175919D01*
X3615224Y-10157985D01*
X3615223Y-10157979D01*
X3551202Y-9960338D01*
X3549271Y-9890498D01*
X3551196Y-9883940D01*
X3615223Y-9686279D01*
X3624540Y-9653935D01*
X3624540Y-9653928D01*
X3625582Y-9648590D01*
X3625973Y-9648666D01*
X3630594Y-9628063D01*
X3643222Y-9591980D01*
X3644589Y-9579849D01*
X3662359Y-9422133D01*
X3662359Y-9422126D01*
X3643223Y-9252285D01*
X3643222Y-9252280D01*
X3638979Y-9240155D01*
X3586769Y-9090947D01*
X3495831Y-8946221D01*
X3374969Y-8825359D01*
X3374968Y-8825358D01*
X3230243Y-8734421D01*
X3068909Y-8677967D01*
X3068904Y-8677966D01*
X2899064Y-8658831D01*
X2899056Y-8658831D01*
X2729215Y-8677966D01*
X2729210Y-8677967D01*
X2567876Y-8734421D01*
X2423151Y-8825358D01*
X2302288Y-8946221D01*
X2211351Y-9090946D01*
X2154897Y-9252280D01*
X2154896Y-9252285D01*
X2135761Y-9422126D01*
X2135761Y-9422133D01*
X2154897Y-9591977D01*
X2174646Y-9648418D01*
X2179806Y-9668333D01*
X2182893Y-9686268D01*
X2182896Y-9686281D01*
X2199223Y-9736686D01*
X2246914Y-9883919D01*
X2248845Y-9953762D01*
X2246914Y-9960341D01*
X2182896Y-10157979D01*
X2173578Y-10190325D01*
X2172537Y-10195665D01*
X2172150Y-10195589D01*
X2167523Y-10216196D01*
X2154898Y-10252279D01*
X2154896Y-10252286D01*
X2135761Y-10422126D01*
X2135761Y-10422133D01*
X-2769500Y-10422133D01*
X-2769500Y-6211776D01*
X-2749815Y-6144737D01*
X-2697011Y-6098982D01*
X-2627853Y-6089038D01*
X-2564297Y-6118063D01*
X-2529218Y-6168711D01*
X-2484375Y-6289795D01*
X-2376791Y-6462397D01*
X-2236676Y-6609798D01*
X-2236674Y-6609799D01*
X-2069745Y-6725986D01*
X-1882848Y-6806189D01*
X-1683630Y-6847130D01*
X-1381940Y-6847130D01*
X-1381940Y-6147130D01*
X-881940Y-6147130D01*
X-881940Y-6847130D01*
X-631227Y-6847130D01*
X-479602Y-6831711D01*
X-285559Y-6770830D01*
X-285549Y-6770825D01*
X-107725Y-6672124D01*
X-107724Y-6672124D01*
X46590Y-6539651D01*
X46591Y-6539650D01*
X171078Y-6378825D01*
X260648Y-6196223D01*
X286306Y-6097130D01*
X1544694Y-6097130D01*
X1544991Y-6099076D01*
X1544993Y-6099082D01*
X1615622Y-6289787D01*
X1615625Y-6289794D01*
X1723209Y-6462397D01*
X1863324Y-6609798D01*
X1863326Y-6609799D01*
X2030256Y-6725987D01*
X2109942Y-6760182D01*
X2163786Y-6804708D01*
X2185010Y-6871276D01*
X2166875Y-6938751D01*
X2162348Y-6945641D01*
X2097088Y-7038093D01*
X2048714Y-7174204D01*
X2048714Y-7174207D01*
X2039506Y-7308831D01*
X2038856Y-7318329D01*
X2058977Y-7415158D01*
X2068246Y-7459764D01*
X2068247Y-7459766D01*
X2134705Y-7588023D01*
X2134709Y-7588029D01*
X2200794Y-7658788D01*
X2233305Y-7693599D01*
X2356732Y-7768656D01*
X2495832Y-7807630D01*
X2495833Y-7807630D01*
X2604010Y-7807630D01*
X2615562Y-7806041D01*
X2711171Y-7792901D01*
X2843669Y-7735349D01*
X2955725Y-7644184D01*
X3039031Y-7526167D01*
X3078483Y-7415158D01*
X3087405Y-7390055D01*
X3087405Y-7390053D01*
X3087406Y-7390051D01*
X3097264Y-7245931D01*
X3067874Y-7104496D01*
X3001414Y-6976235D01*
X3001411Y-6976232D01*
X3001410Y-6976230D01*
X2902815Y-6870661D01*
X2877631Y-6855346D01*
X2830579Y-6803694D01*
X2818060Y-6749398D01*
X2818060Y-6147130D01*
X3318060Y-6147130D01*
X3318060Y-6847130D01*
X3668773Y-6847130D01*
X3820398Y-6831711D01*
X4014441Y-6770830D01*
X4014451Y-6770825D01*
X4192275Y-6672124D01*
X4192276Y-6672124D01*
X4346590Y-6539651D01*
X4346591Y-6539650D01*
X4471078Y-6378825D01*
X4560648Y-6196223D01*
X4586306Y-6097130D01*
X3834171Y-6097130D01*
X3873670Y-6072673D01*
X3941261Y-5983168D01*
X3971955Y-5875290D01*
X3961606Y-5763609D01*
X3911612Y-5663208D01*
X3839129Y-5597130D01*
X4591426Y-5597130D01*
X4591128Y-5595183D01*
X4591126Y-5595177D01*
X4520497Y-5404472D01*
X4520494Y-5404465D01*
X4412910Y-5231862D01*
X4272795Y-5084461D01*
X4272793Y-5084460D01*
X4105864Y-4968273D01*
X3918967Y-4888070D01*
X3719750Y-4847130D01*
X3318060Y-4847130D01*
X3318060Y-5547130D01*
X2818060Y-5547130D01*
X2818060Y-4847130D01*
X2467347Y-4847130D01*
X2315721Y-4862548D01*
X2121678Y-4923429D01*
X2121668Y-4923434D01*
X1943844Y-5022135D01*
X1943843Y-5022135D01*
X1789529Y-5154608D01*
X1789528Y-5154609D01*
X1665041Y-5315434D01*
X1575471Y-5498036D01*
X1549814Y-5597130D01*
X2301949Y-5597130D01*
X2262450Y-5621587D01*
X2194859Y-5711092D01*
X2164165Y-5818970D01*
X2174514Y-5930651D01*
X2224508Y-6031052D01*
X2296991Y-6097130D01*
X1544694Y-6097130D01*
X286306Y-6097130D01*
X-515829Y-6097130D01*
X-476330Y-6072673D01*
X-408739Y-5983168D01*
X-378045Y-5875290D01*
X-388394Y-5763609D01*
X-438388Y-5663208D01*
X-510871Y-5597130D01*
X291426Y-5597130D01*
X291128Y-5595183D01*
X291126Y-5595177D01*
X220497Y-5404472D01*
X220494Y-5404465D01*
X112910Y-5231862D01*
X-27205Y-5084461D01*
X-27207Y-5084460D01*
X-194136Y-4968273D01*
X-381033Y-4888070D01*
X-580250Y-4847130D01*
X-881940Y-4847130D01*
X-881940Y-5547130D01*
X-1381940Y-5547130D01*
X-1381940Y-4847130D01*
X-1632653Y-4847130D01*
X-1784279Y-4862548D01*
X-1978322Y-4923429D01*
X-1978332Y-4923434D01*
X-2156156Y-5022135D01*
X-2156157Y-5022135D01*
X-2310471Y-5154608D01*
X-2310472Y-5154609D01*
X-2434959Y-5315434D01*
X-2524529Y-5498035D01*
X-2525459Y-5501630D01*
X-2526512Y-5503390D01*
X-2526712Y-5503931D01*
X-2526813Y-5503893D01*
X-2561320Y-5561595D01*
X-2623907Y-5592652D01*
X-2693350Y-5584943D01*
X-2747601Y-5540913D01*
X-2769436Y-5474543D01*
X-2769500Y-5470547D01*
X-2769500Y-2190003D01*
X-2034189Y-2190003D01*
X-2027261Y-2264776D01*
X-2026873Y-2270313D01*
X-2023149Y-2348470D01*
X-2023148Y-2348475D01*
X-2019385Y-2363986D01*
X-2016419Y-2381774D01*
X-2015234Y-2394559D01*
X-1998739Y-2452535D01*
X-1993740Y-2470102D01*
X-1992502Y-2474802D01*
X-1973239Y-2554201D01*
X-1973238Y-2554206D01*
X-1968049Y-2565568D01*
X-1961581Y-2583134D01*
X-1959018Y-2592141D01*
X-1959012Y-2592157D01*
X-1922464Y-2665554D01*
X-1920670Y-2669314D01*
X-1885299Y-2746765D01*
X-1885293Y-2746776D01*
X-1880061Y-2754123D01*
X-1870072Y-2770771D01*
X-1867444Y-2776048D01*
X-1867442Y-2776052D01*
X-1815951Y-2844236D01*
X-1813898Y-2847035D01*
X-1762497Y-2919218D01*
X-1762495Y-2919219D01*
X-1758481Y-2923047D01*
X-1745103Y-2938057D01*
X-1743648Y-2939983D01*
X-1743645Y-2939987D01*
X-1743642Y-2939989D01*
X-1743641Y-2939991D01*
X-1677900Y-2999922D01*
X-1675907Y-3001780D01*
X-1609286Y-3065303D01*
X-1607542Y-3066424D01*
X-1596421Y-3074970D01*
X-1596396Y-3074938D01*
X-1591821Y-3078393D01*
X-1513255Y-3127039D01*
X-1511538Y-3128122D01*
X-1441619Y-3173056D01*
X-1431192Y-3179757D01*
X-1425940Y-3182465D01*
X-1425974Y-3182529D01*
X-1422452Y-3184308D01*
X-1422290Y-3183984D01*
X-1417167Y-3186534D01*
X-1417158Y-3186540D01*
X-1368607Y-3205348D01*
X-1327780Y-3221164D01*
X-1326552Y-3221647D01*
X-1283186Y-3239009D01*
X-1234662Y-3258436D01*
X-1232693Y-3259013D01*
X-1226600Y-3260465D01*
X-1225601Y-3260749D01*
X-1225600Y-3260749D01*
X-1225595Y-3260751D01*
X-1127768Y-3279037D01*
X-1127657Y-3279058D01*
X-1026789Y-3298500D01*
X-1026784Y-3298500D01*
X-818224Y-3298500D01*
X-818222Y-3298500D01*
X-771543Y-3289773D01*
X-760591Y-3288229D01*
X-710201Y-3283419D01*
X-668289Y-3271112D01*
X-656154Y-3268203D01*
X-616285Y-3260751D01*
X-568813Y-3242360D01*
X-558954Y-3239009D01*
X-528068Y-3229939D01*
X-507078Y-3223777D01*
X-494546Y-3217315D01*
X-471331Y-3205348D01*
X-459306Y-3199937D01*
X-424722Y-3186540D01*
X-378483Y-3157909D01*
X-370021Y-3153118D01*
X-321591Y-3128151D01*
X-318914Y-3126771D01*
X-290018Y-3104046D01*
X-278658Y-3096099D01*
X-250058Y-3078392D01*
X-207307Y-3039417D01*
X-200446Y-3033606D01*
X-152508Y-2995908D01*
X-130709Y-2970749D01*
X-120535Y-2960316D01*
X-114496Y-2954809D01*
X-98239Y-2939991D01*
X-61286Y-2891055D01*
X-56076Y-2884618D01*
X-13875Y-2835918D01*
X1049Y-2810066D01*
X9468Y-2797361D01*
X25563Y-2776050D01*
X54424Y-2718088D01*
X58037Y-2711360D01*
X91973Y-2652582D01*
X100597Y-2627661D01*
X106769Y-2612965D01*
X117134Y-2592152D01*
X135805Y-2526527D01*
X137887Y-2519921D01*
X161210Y-2452535D01*
X161213Y-2452527D01*
X164472Y-2429857D01*
X167938Y-2413590D01*
X173354Y-2394559D01*
X179966Y-2323199D01*
X180698Y-2317003D01*
X183214Y-2299509D01*
X191341Y-2242984D01*
X190416Y-2223578D01*
X190803Y-2206238D01*
X192309Y-2190000D01*
X185378Y-2115214D01*
X184990Y-2109679D01*
X182625Y-2060032D01*
X181268Y-2031526D01*
X177501Y-2016002D01*
X174538Y-1998229D01*
X173354Y-1985441D01*
X151843Y-1909840D01*
X150616Y-1905182D01*
X131358Y-1825796D01*
X126167Y-1814430D01*
X119696Y-1796853D01*
X117136Y-1787856D01*
X117134Y-1787848D01*
X80571Y-1714421D01*
X78776Y-1710659D01*
X43415Y-1633227D01*
X38181Y-1625877D01*
X28189Y-1609224D01*
X25563Y-1603950D01*
X-25938Y-1535752D01*
X-27984Y-1532963D01*
X-79381Y-1460785D01*
X-79386Y-1460780D01*
X-83394Y-1456958D01*
X-96787Y-1441931D01*
X-98232Y-1440018D01*
X-98235Y-1440014D01*
X-98236Y-1440013D01*
X-98239Y-1440009D01*
X-164027Y-1380036D01*
X-165938Y-1378253D01*
X-232594Y-1314697D01*
X-232597Y-1314694D01*
X-234339Y-1313575D01*
X-245460Y-1305029D01*
X-245484Y-1305062D01*
X-250063Y-1301604D01*
X-328613Y-1252967D01*
X-330373Y-1251857D01*
X-410682Y-1200246D01*
X-415941Y-1197535D01*
X-415908Y-1197470D01*
X-419428Y-1195692D01*
X-419589Y-1196016D01*
X-424727Y-1193457D01*
X-514057Y-1158851D01*
X-515349Y-1158343D01*
X-607218Y-1121564D01*
X-609179Y-1120988D01*
X-615260Y-1119540D01*
X-616280Y-1119250D01*
X-713923Y-1100996D01*
X-714603Y-1100867D01*
X-815090Y-1081500D01*
X-815091Y-1081500D01*
X-818222Y-1081500D01*
X-1023658Y-1081500D01*
X-1023664Y-1081500D01*
X-1070326Y-1090222D01*
X-1081318Y-1091771D01*
X-1131675Y-1096580D01*
X-1131679Y-1096580D01*
X-1131679Y-1096581D01*
X-1154685Y-1103336D01*
X-1173594Y-1108888D01*
X-1185740Y-1111798D01*
X-1225589Y-1119247D01*
X-1225602Y-1119251D01*
X-1273074Y-1137641D01*
X-1282929Y-1140991D01*
X-1334800Y-1156222D01*
X-1370551Y-1174652D01*
X-1382569Y-1180059D01*
X-1417159Y-1193460D01*
X-1417160Y-1193460D01*
X-1463400Y-1222091D01*
X-1471855Y-1226878D01*
X-1522963Y-1253226D01*
X-1551858Y-1275949D01*
X-1563226Y-1283901D01*
X-1591825Y-1301609D01*
X-1634565Y-1340571D01*
X-1641446Y-1346400D01*
X-1689375Y-1384093D01*
X-1711177Y-1409253D01*
X-1721342Y-1419678D01*
X-1743639Y-1440006D01*
X-1780574Y-1488915D01*
X-1785813Y-1495387D01*
X-1828004Y-1544079D01*
X-1842926Y-1569925D01*
X-1851353Y-1582641D01*
X-1867443Y-1603950D01*
X-1867444Y-1603951D01*
X-1867444Y-1603952D01*
X-1867449Y-1603960D01*
X-1896308Y-1661914D01*
X-1899918Y-1668637D01*
X-1933852Y-1727414D01*
X-1942476Y-1752331D01*
X-1948652Y-1767036D01*
X-1959012Y-1787842D01*
X-1959017Y-1787856D01*
X-1977684Y-1853459D01*
X-1979768Y-1860077D01*
X-2003094Y-1927475D01*
X-2006353Y-1950137D01*
X-2009821Y-1966409D01*
X-2015234Y-1985437D01*
X-2021847Y-2056796D01*
X-2022580Y-2062999D01*
X-2033221Y-2137010D01*
X-2033221Y-2137015D01*
X-2032297Y-2156434D01*
X-2032685Y-2173766D01*
X-2034189Y-2190003D01*
X-2769500Y-2190003D01*
X-2769500Y-2006550D01*
X-2769184Y-1997706D01*
X-2759766Y-1866002D01*
X-2752328Y-1761989D01*
X-2749812Y-1744482D01*
X-2742455Y-1710659D01*
X-2700521Y-1517880D01*
X-2695544Y-1500929D01*
X-2614506Y-1283650D01*
X-2607165Y-1267575D01*
X-2496029Y-1064039D01*
X-2486474Y-1049171D01*
X-2347499Y-863519D01*
X-2335925Y-850163D01*
X-2171955Y-686190D01*
X-2158600Y-674617D01*
X-1972952Y-535641D01*
X-1958079Y-526083D01*
X-1754548Y-414945D01*
X-1738484Y-407609D01*
X-1521192Y-326562D01*
X-1504236Y-321584D01*
X-1277644Y-272292D01*
X-1260143Y-269775D01*
X-1024837Y-252946D01*
X-1015991Y-252630D01*
X-975830Y-252630D01*
X531621Y-252630D01*
X598660Y-272315D01*
G37*
%TD.AperFunction*%
%TA.AperFunction,Conductor*%
G36*
X58883628Y-7240315D02*
G01*
X58904270Y-7256949D01*
X62212827Y-10565506D01*
X62242662Y-10613615D01*
X62664094Y-11865137D01*
X62666783Y-11874265D01*
X62670702Y-11889742D01*
X62670704Y-11889748D01*
X62675719Y-11901181D01*
X62679675Y-11911409D01*
X62684058Y-11924423D01*
X62689786Y-11940541D01*
X62690069Y-11941299D01*
X62690072Y-11941305D01*
X62720024Y-12006884D01*
X62723397Y-12012575D01*
X62722782Y-12012939D01*
X62730724Y-12026580D01*
X62761140Y-12095922D01*
X62884276Y-12284395D01*
X62884284Y-12284406D01*
X63036756Y-12450032D01*
X63036761Y-12450037D01*
X63061845Y-12469561D01*
X63214424Y-12588319D01*
X63214429Y-12588321D01*
X63214431Y-12588323D01*
X63250930Y-12608076D01*
X63300520Y-12657295D01*
X63315628Y-12725512D01*
X63291457Y-12791067D01*
X63250930Y-12826184D01*
X63214431Y-12845936D01*
X63214422Y-12845942D01*
X63036761Y-12984222D01*
X63036756Y-12984227D01*
X62884284Y-13149853D01*
X62884276Y-13149864D01*
X62761140Y-13338337D01*
X62670703Y-13544515D01*
X62615436Y-13762758D01*
X62615434Y-13762770D01*
X62596844Y-13987124D01*
X62596844Y-13987135D01*
X62615434Y-14211489D01*
X62615436Y-14211501D01*
X62670703Y-14429744D01*
X62761140Y-14635922D01*
X62884276Y-14824395D01*
X62884284Y-14824406D01*
X62990509Y-14939795D01*
X63036760Y-14990036D01*
X63214424Y-15128319D01*
X63214425Y-15128319D01*
X63214427Y-15128321D01*
X63327754Y-15189650D01*
X63412426Y-15235472D01*
X63625365Y-15308574D01*
X63847431Y-15345630D01*
X64072569Y-15345630D01*
X64294635Y-15308574D01*
X64507574Y-15235472D01*
X64705576Y-15128319D01*
X64883240Y-14990036D01*
X64933332Y-14935621D01*
X64993217Y-14899633D01*
X65063055Y-14901733D01*
X65120671Y-14941257D01*
X65147773Y-15005656D01*
X65148560Y-15019606D01*
X65148560Y-18326764D01*
X65148244Y-18335610D01*
X65131386Y-18571323D01*
X65128868Y-18588835D01*
X65079581Y-18815408D01*
X65074597Y-18832384D01*
X64993561Y-19049648D01*
X64986211Y-19065741D01*
X64875084Y-19269254D01*
X64865519Y-19284138D01*
X64843967Y-19312928D01*
X64727329Y-19468736D01*
X64726565Y-19469756D01*
X64714979Y-19483127D01*
X64551009Y-19647095D01*
X64537637Y-19658681D01*
X64352012Y-19797635D01*
X64337128Y-19807200D01*
X64133613Y-19918324D01*
X64117520Y-19925673D01*
X63900268Y-20006701D01*
X63883292Y-20011686D01*
X63656705Y-20060972D01*
X63639193Y-20063489D01*
X63403069Y-20080373D01*
X63394225Y-20080689D01*
X63344907Y-20080689D01*
X63344895Y-20080690D01*
X61536937Y-20080690D01*
X61469898Y-20061005D01*
X61424143Y-20008201D01*
X61414199Y-19939043D01*
X61443224Y-19875487D01*
X61445707Y-19872707D01*
X61449111Y-19869009D01*
X61494782Y-19819398D01*
X61617920Y-19630921D01*
X61708356Y-19424746D01*
X61763624Y-19206498D01*
X61764100Y-19200751D01*
X61782216Y-18982135D01*
X61782216Y-18982124D01*
X61763625Y-18757770D01*
X61763623Y-18757758D01*
X61758517Y-18737594D01*
X61708356Y-18539514D01*
X61617920Y-18333339D01*
X61616515Y-18331189D01*
X61519686Y-18182981D01*
X61494782Y-18144862D01*
X61494779Y-18144859D01*
X61494775Y-18144853D01*
X61481104Y-18130003D01*
X62176751Y-18130003D01*
X62183679Y-18204776D01*
X62184067Y-18210313D01*
X62187791Y-18288470D01*
X62187792Y-18288475D01*
X62191555Y-18303986D01*
X62194521Y-18321774D01*
X62195706Y-18334559D01*
X62212201Y-18392535D01*
X62217200Y-18410102D01*
X62218438Y-18414802D01*
X62237701Y-18494201D01*
X62237702Y-18494206D01*
X62242891Y-18505568D01*
X62249359Y-18523134D01*
X62251922Y-18532141D01*
X62251928Y-18532157D01*
X62288476Y-18605554D01*
X62290270Y-18609314D01*
X62325641Y-18686765D01*
X62325647Y-18686776D01*
X62330879Y-18694123D01*
X62340868Y-18710771D01*
X62343496Y-18716048D01*
X62343498Y-18716052D01*
X62394989Y-18784236D01*
X62397042Y-18787035D01*
X62448443Y-18859218D01*
X62448445Y-18859219D01*
X62452459Y-18863047D01*
X62465837Y-18878057D01*
X62467292Y-18879983D01*
X62467295Y-18879987D01*
X62467298Y-18879989D01*
X62467299Y-18879991D01*
X62533040Y-18939922D01*
X62535033Y-18941780D01*
X62601654Y-19005303D01*
X62603398Y-19006424D01*
X62614519Y-19014970D01*
X62614544Y-19014938D01*
X62619119Y-19018393D01*
X62697685Y-19067039D01*
X62699402Y-19068122D01*
X62761656Y-19108130D01*
X62779748Y-19119757D01*
X62785000Y-19122465D01*
X62784966Y-19122529D01*
X62788488Y-19124308D01*
X62788650Y-19123984D01*
X62793773Y-19126534D01*
X62793782Y-19126540D01*
X62883160Y-19161164D01*
X62884388Y-19161647D01*
X62918162Y-19175169D01*
X62976278Y-19198436D01*
X62978247Y-19199013D01*
X62984340Y-19200465D01*
X62985339Y-19200749D01*
X62985340Y-19200749D01*
X62985345Y-19200751D01*
X63083172Y-19219037D01*
X63083283Y-19219058D01*
X63184151Y-19238500D01*
X63184156Y-19238500D01*
X63392716Y-19238500D01*
X63392718Y-19238500D01*
X63439397Y-19229773D01*
X63450349Y-19228229D01*
X63500739Y-19223419D01*
X63542651Y-19211112D01*
X63554786Y-19208203D01*
X63594655Y-19200751D01*
X63642127Y-19182360D01*
X63651986Y-19179009D01*
X63682872Y-19169939D01*
X63703862Y-19163777D01*
X63716394Y-19157315D01*
X63739609Y-19145348D01*
X63751634Y-19139937D01*
X63786218Y-19126540D01*
X63832457Y-19097909D01*
X63840919Y-19093118D01*
X63889349Y-19068151D01*
X63892026Y-19066771D01*
X63920922Y-19044046D01*
X63932282Y-19036099D01*
X63960882Y-19018392D01*
X64003633Y-18979417D01*
X64010494Y-18973606D01*
X64058432Y-18935908D01*
X64080231Y-18910749D01*
X64090405Y-18900316D01*
X64096444Y-18894809D01*
X64112701Y-18879991D01*
X64149654Y-18831055D01*
X64154864Y-18824618D01*
X64197065Y-18775918D01*
X64211989Y-18750066D01*
X64220408Y-18737361D01*
X64236503Y-18716050D01*
X64265364Y-18658088D01*
X64268977Y-18651360D01*
X64268993Y-18651332D01*
X64302913Y-18592582D01*
X64311537Y-18567661D01*
X64317709Y-18552965D01*
X64328074Y-18532152D01*
X64346745Y-18466527D01*
X64348827Y-18459921D01*
X64372150Y-18392535D01*
X64372153Y-18392527D01*
X64375412Y-18369857D01*
X64378878Y-18353590D01*
X64384294Y-18334559D01*
X64390906Y-18263199D01*
X64391638Y-18257003D01*
X64398352Y-18210313D01*
X64402281Y-18182984D01*
X64401356Y-18163578D01*
X64401743Y-18146238D01*
X64403249Y-18130000D01*
X64396318Y-18055214D01*
X64395930Y-18049679D01*
X64395910Y-18049267D01*
X64392208Y-17971526D01*
X64388441Y-17956002D01*
X64385478Y-17938229D01*
X64384294Y-17925441D01*
X64362783Y-17849840D01*
X64361556Y-17845182D01*
X64342298Y-17765796D01*
X64337107Y-17754430D01*
X64330636Y-17736853D01*
X64328076Y-17727856D01*
X64328074Y-17727848D01*
X64297981Y-17667414D01*
X64291511Y-17654421D01*
X64289716Y-17650659D01*
X64284178Y-17638533D01*
X64254356Y-17573229D01*
X64249121Y-17565877D01*
X64239129Y-17549224D01*
X64236503Y-17543950D01*
X64235758Y-17542964D01*
X64185010Y-17475763D01*
X64182956Y-17472963D01*
X64176029Y-17463235D01*
X64131559Y-17400785D01*
X64131554Y-17400780D01*
X64127546Y-17396958D01*
X64114153Y-17381931D01*
X64112708Y-17380018D01*
X64112705Y-17380014D01*
X64112704Y-17380013D01*
X64112701Y-17380009D01*
X64046913Y-17320036D01*
X64045002Y-17318253D01*
X63978346Y-17254697D01*
X63978343Y-17254694D01*
X63976601Y-17253575D01*
X63965480Y-17245029D01*
X63965456Y-17245062D01*
X63960877Y-17241604D01*
X63882327Y-17192967D01*
X63880567Y-17191857D01*
X63800258Y-17140246D01*
X63794999Y-17137535D01*
X63795032Y-17137470D01*
X63791512Y-17135692D01*
X63791351Y-17136016D01*
X63786213Y-17133457D01*
X63696883Y-17098851D01*
X63695591Y-17098343D01*
X63603722Y-17061564D01*
X63601761Y-17060988D01*
X63595680Y-17059540D01*
X63594660Y-17059250D01*
X63497017Y-17040996D01*
X63496337Y-17040867D01*
X63395850Y-17021500D01*
X63395849Y-17021500D01*
X63392718Y-17021500D01*
X63187282Y-17021500D01*
X63187276Y-17021500D01*
X63140614Y-17030222D01*
X63129622Y-17031771D01*
X63079265Y-17036580D01*
X63079261Y-17036580D01*
X63079261Y-17036581D01*
X63037346Y-17048888D01*
X63025200Y-17051798D01*
X62985351Y-17059247D01*
X62985338Y-17059251D01*
X62937866Y-17077641D01*
X62928011Y-17080991D01*
X62876140Y-17096222D01*
X62840389Y-17114652D01*
X62828371Y-17120059D01*
X62793781Y-17133460D01*
X62793780Y-17133460D01*
X62747540Y-17162091D01*
X62739085Y-17166878D01*
X62687977Y-17193226D01*
X62659082Y-17215949D01*
X62647714Y-17223901D01*
X62619115Y-17241609D01*
X62576375Y-17280571D01*
X62569494Y-17286400D01*
X62521565Y-17324093D01*
X62499763Y-17349253D01*
X62489598Y-17359678D01*
X62467301Y-17380006D01*
X62430366Y-17428915D01*
X62425127Y-17435387D01*
X62382936Y-17484079D01*
X62368014Y-17509925D01*
X62359587Y-17522641D01*
X62343497Y-17543950D01*
X62343496Y-17543951D01*
X62343496Y-17543952D01*
X62343491Y-17543960D01*
X62314632Y-17601914D01*
X62311022Y-17608637D01*
X62277088Y-17667414D01*
X62268464Y-17692331D01*
X62262288Y-17707036D01*
X62251928Y-17727842D01*
X62251923Y-17727856D01*
X62233256Y-17793459D01*
X62231172Y-17800077D01*
X62207846Y-17867475D01*
X62204587Y-17890137D01*
X62201119Y-17906409D01*
X62195706Y-17925437D01*
X62189093Y-17996796D01*
X62188360Y-18002999D01*
X62177719Y-18077010D01*
X62177719Y-18077015D01*
X62178643Y-18096434D01*
X62178254Y-18113766D01*
X62177887Y-18117744D01*
X62176751Y-18130003D01*
X61481104Y-18130003D01*
X61342303Y-17979227D01*
X61342298Y-17979222D01*
X61198724Y-17867473D01*
X61164636Y-17840941D01*
X61164635Y-17840940D01*
X61164632Y-17840938D01*
X60966640Y-17733791D01*
X60966637Y-17733789D01*
X60966634Y-17733788D01*
X60966631Y-17733787D01*
X60966629Y-17733786D01*
X60924949Y-17719477D01*
X60909528Y-17712989D01*
X60895431Y-17705904D01*
X60895421Y-17705899D01*
X59582357Y-17266459D01*
X59534029Y-17236550D01*
X52983284Y-10685805D01*
X52972590Y-10673612D01*
X52953047Y-10648143D01*
X52953045Y-10648141D01*
X52953044Y-10648140D01*
X52921135Y-10623656D01*
X52921134Y-10623655D01*
X52921132Y-10623653D01*
X52879854Y-10591979D01*
X52825937Y-10550606D01*
X52825931Y-10550603D01*
X52677914Y-10489293D01*
X52677909Y-10489291D01*
X52655571Y-10486351D01*
X52555089Y-10473122D01*
X52554907Y-10473099D01*
X52549122Y-10472337D01*
X52519060Y-10468380D01*
X52519058Y-10468380D01*
X52519057Y-10468380D01*
X52487240Y-10472569D01*
X52471055Y-10473630D01*
X44538972Y-10473630D01*
X44471933Y-10453945D01*
X44426178Y-10401141D01*
X44415752Y-10335747D01*
X44433299Y-10180004D01*
X44433299Y-10179996D01*
X44414163Y-10010155D01*
X44414162Y-10010150D01*
X44396733Y-9960341D01*
X44357709Y-9848817D01*
X44282813Y-9729622D01*
X44269524Y-9708472D01*
X44250524Y-9641236D01*
X44270892Y-9574400D01*
X44324159Y-9529186D01*
X44374518Y-9518500D01*
X54643090Y-9518500D01*
X54710129Y-9538185D01*
X54753523Y-9586104D01*
X54791655Y-9660774D01*
X54827540Y-9731046D01*
X54829209Y-9734946D01*
X54829273Y-9734916D01*
X54832292Y-9741185D01*
X54838014Y-9750292D01*
X54841534Y-9756258D01*
X54843085Y-9759063D01*
X54846134Y-9763590D01*
X54846048Y-9763647D01*
X54849005Y-9767784D01*
X54923227Y-9885907D01*
X54923228Y-9885908D01*
X54923229Y-9885909D01*
X55044091Y-10006771D01*
X55188817Y-10097709D01*
X55292062Y-10133836D01*
X55350150Y-10154162D01*
X55350155Y-10154163D01*
X55519996Y-10173299D01*
X55520000Y-10173299D01*
X55520004Y-10173299D01*
X55689844Y-10154163D01*
X55689847Y-10154162D01*
X55689850Y-10154162D01*
X55851183Y-10097709D01*
X55995909Y-10006771D01*
X56116771Y-9885909D01*
X56207709Y-9741183D01*
X56264162Y-9579850D01*
X56265082Y-9571686D01*
X56283299Y-9410003D01*
X56283299Y-9409996D01*
X56264163Y-9240155D01*
X56264162Y-9240150D01*
X56207709Y-9078817D01*
X56116771Y-8934091D01*
X55995909Y-8813229D01*
X55995908Y-8813228D01*
X55851183Y-8722290D01*
X55844910Y-8719270D01*
X55844940Y-8719206D01*
X55841038Y-8717536D01*
X55545901Y-8566819D01*
X55514615Y-8544066D01*
X55484224Y-8513675D01*
X55473530Y-8501482D01*
X55453987Y-8476013D01*
X55453985Y-8476011D01*
X55453984Y-8476010D01*
X55422075Y-8451526D01*
X55422074Y-8451525D01*
X55422072Y-8451523D01*
X55359244Y-8403313D01*
X55326877Y-8378476D01*
X55326873Y-8378474D01*
X55178851Y-8317161D01*
X55161711Y-8314905D01*
X55159456Y-8314608D01*
X55159455Y-8314607D01*
X55055878Y-8300972D01*
X55055846Y-8300969D01*
X55055838Y-8300968D01*
X55045193Y-8299566D01*
X55020001Y-8296250D01*
X55019999Y-8296250D01*
X54988180Y-8300439D01*
X54971995Y-8301500D01*
X26168004Y-8301500D01*
X26151819Y-8300439D01*
X26120000Y-8296250D01*
X26119996Y-8296250D01*
X26084154Y-8300968D01*
X26084139Y-8300969D01*
X26084140Y-8300970D01*
X25961150Y-8317162D01*
X25961146Y-8317163D01*
X25874437Y-8353078D01*
X25874438Y-8353079D01*
X25813123Y-8378476D01*
X25719561Y-8450268D01*
X25719562Y-8450269D01*
X25686010Y-8476015D01*
X25666467Y-8501483D01*
X25655775Y-8513674D01*
X24412680Y-9756769D01*
X24379530Y-9780454D01*
X24088345Y-9923032D01*
X24083843Y-9925447D01*
X24074406Y-9929599D01*
X24068816Y-9932291D01*
X24059130Y-9938377D01*
X24056585Y-9939858D01*
X24053713Y-9941748D01*
X24051539Y-9943146D01*
X23918195Y-10026933D01*
X23917293Y-10025497D01*
X23860698Y-10048598D01*
X23792004Y-10035836D01*
X23760401Y-10012922D01*
X21824990Y-8077511D01*
X21802237Y-8046225D01*
X21799746Y-8041348D01*
X21652247Y-7752509D01*
X21651524Y-7751093D01*
X21649857Y-7747196D01*
X21649794Y-7747227D01*
X21646771Y-7740951D01*
X21646769Y-7740948D01*
X21646769Y-7740947D01*
X21641037Y-7731826D01*
X21637508Y-7725842D01*
X21635970Y-7723059D01*
X21632931Y-7718546D01*
X21633015Y-7718489D01*
X21630060Y-7714354D01*
X21555831Y-7596221D01*
X21434965Y-7475355D01*
X21422452Y-7467493D01*
X21376161Y-7415158D01*
X21365514Y-7346104D01*
X21393890Y-7282256D01*
X21452280Y-7243885D01*
X21488425Y-7238500D01*
X22740819Y-7238500D01*
X22779030Y-7244534D01*
X23092779Y-7346163D01*
X23125124Y-7355480D01*
X23125137Y-7355481D01*
X23130470Y-7356522D01*
X23130393Y-7356913D01*
X23150994Y-7361534D01*
X23187080Y-7374162D01*
X23187084Y-7374162D01*
X23187086Y-7374163D01*
X23356926Y-7393299D01*
X23356930Y-7393299D01*
X23356934Y-7393299D01*
X23526773Y-7374163D01*
X23526773Y-7374162D01*
X23526780Y-7374162D01*
X23583232Y-7354407D01*
X23603139Y-7349250D01*
X23621079Y-7346163D01*
X23934829Y-7244534D01*
X23973040Y-7238500D01*
X42175367Y-7238500D01*
X42191552Y-7239561D01*
X42223371Y-7243750D01*
X42223372Y-7243750D01*
X42223373Y-7243750D01*
X42238167Y-7241802D01*
X42259224Y-7239030D01*
X42259245Y-7239028D01*
X42263256Y-7238500D01*
X42263257Y-7238500D01*
X42362828Y-7225391D01*
X42362828Y-7225392D01*
X42362832Y-7225390D01*
X42382223Y-7222838D01*
X42382223Y-7222837D01*
X42390286Y-7221777D01*
X42390418Y-7222783D01*
X42406788Y-7220630D01*
X58816589Y-7220630D01*
X58883628Y-7240315D01*
G37*
%TD.AperFunction*%
%TA.AperFunction,Conductor*%
G36*
X37381977Y-14660315D02*
G01*
X37402619Y-14676949D01*
X38953834Y-16228163D01*
X38975666Y-16257682D01*
X39211613Y-16701947D01*
X39226339Y-16727833D01*
X39229365Y-16732226D01*
X39229298Y-16732271D01*
X39237265Y-16743760D01*
X39295096Y-16843926D01*
X39415846Y-16978034D01*
X39415849Y-16978036D01*
X39415852Y-16978039D01*
X39561850Y-17084113D01*
X39599177Y-17100732D01*
X39621889Y-17113886D01*
X39622938Y-17114652D01*
X39628034Y-17118375D01*
X40072314Y-17354331D01*
X40101833Y-17376163D01*
X40137619Y-17411949D01*
X40171104Y-17473272D01*
X40166120Y-17542964D01*
X40124248Y-17598897D01*
X40058784Y-17623314D01*
X40049938Y-17623630D01*
X39986491Y-17623630D01*
X39764422Y-17660686D01*
X39551490Y-17733786D01*
X39551479Y-17733791D01*
X39353487Y-17840938D01*
X39353482Y-17840942D01*
X39175821Y-17979222D01*
X39175816Y-17979227D01*
X39023344Y-18144853D01*
X39023336Y-18144864D01*
X38932868Y-18283336D01*
X38879722Y-18328692D01*
X38810491Y-18338116D01*
X38747155Y-18308614D01*
X38725252Y-18283336D01*
X38659686Y-18182981D01*
X38634782Y-18144862D01*
X38634779Y-18144859D01*
X38634775Y-18144853D01*
X38482303Y-17979227D01*
X38482298Y-17979222D01*
X38338724Y-17867473D01*
X38304636Y-17840941D01*
X38304635Y-17840940D01*
X38304632Y-17840938D01*
X38106640Y-17733791D01*
X38106637Y-17733789D01*
X38106634Y-17733788D01*
X38106631Y-17733787D01*
X38106629Y-17733786D01*
X37893697Y-17660686D01*
X37671629Y-17623630D01*
X37446491Y-17623630D01*
X37224422Y-17660686D01*
X37011490Y-17733786D01*
X37011479Y-17733791D01*
X36813487Y-17840938D01*
X36813482Y-17840942D01*
X36635821Y-17979222D01*
X36635816Y-17979227D01*
X36483344Y-18144853D01*
X36483336Y-18144864D01*
X36392868Y-18283336D01*
X36339722Y-18328692D01*
X36270491Y-18338116D01*
X36207155Y-18308614D01*
X36185252Y-18283336D01*
X36119686Y-18182981D01*
X36094782Y-18144862D01*
X36094779Y-18144859D01*
X36094775Y-18144853D01*
X35942303Y-17979227D01*
X35942298Y-17979222D01*
X35798724Y-17867473D01*
X35764636Y-17840941D01*
X35764635Y-17840940D01*
X35764632Y-17840938D01*
X35566640Y-17733791D01*
X35566637Y-17733789D01*
X35566634Y-17733788D01*
X35566631Y-17733787D01*
X35566629Y-17733786D01*
X35353697Y-17660686D01*
X35131629Y-17623630D01*
X34906491Y-17623630D01*
X34684422Y-17660686D01*
X34471490Y-17733786D01*
X34471479Y-17733791D01*
X34273487Y-17840938D01*
X34273482Y-17840942D01*
X34095821Y-17979222D01*
X34095816Y-17979227D01*
X33943344Y-18144853D01*
X33943336Y-18144864D01*
X33849311Y-18288780D01*
X33796165Y-18334137D01*
X33726933Y-18343560D01*
X33663598Y-18314058D01*
X33643928Y-18292081D01*
X33517173Y-18111056D01*
X33517168Y-18111050D01*
X33350142Y-17944024D01*
X33156638Y-17808529D01*
X32942552Y-17708700D01*
X32942546Y-17708697D01*
X32729060Y-17651494D01*
X32729060Y-18546628D01*
X32621375Y-18497450D01*
X32514823Y-18482130D01*
X32443297Y-18482130D01*
X32336745Y-18497450D01*
X32229060Y-18546628D01*
X32229060Y-17651494D01*
X32229059Y-17651494D01*
X32015573Y-17708697D01*
X32015567Y-17708700D01*
X31801482Y-17808529D01*
X31801480Y-17808530D01*
X31607986Y-17944016D01*
X31607980Y-17944021D01*
X31440951Y-18111050D01*
X31440950Y-18111052D01*
X31314191Y-18292082D01*
X31259614Y-18335707D01*
X31190115Y-18342899D01*
X31127761Y-18311377D01*
X31108812Y-18288786D01*
X31014782Y-18144862D01*
X31014775Y-18144855D01*
X31014775Y-18144853D01*
X30993761Y-18122026D01*
X30962839Y-18059371D01*
X30970700Y-17989945D01*
X31014847Y-17935790D01*
X31034545Y-17924769D01*
X31180675Y-17859708D01*
X31326673Y-17753634D01*
X31344543Y-17733788D01*
X31365326Y-17710705D01*
X31447427Y-17619523D01*
X31537659Y-17463237D01*
X31593425Y-17291605D01*
X31612289Y-17112130D01*
X31593425Y-16932655D01*
X31567262Y-16852133D01*
X31562668Y-16832881D01*
X31560304Y-16817692D01*
X31560303Y-16817683D01*
X31412996Y-16336684D01*
X31407560Y-16300373D01*
X31407560Y-14764630D01*
X31427245Y-14697591D01*
X31480049Y-14651836D01*
X31531560Y-14640630D01*
X33795872Y-14640630D01*
X37314938Y-14640630D01*
X37381977Y-14660315D01*
G37*
%TD.AperFunction*%
%TA.AperFunction,Conductor*%
G36*
X41962688Y-14090315D02*
G01*
X41983330Y-14106949D01*
X45392741Y-17516360D01*
X45426226Y-17577683D01*
X45429060Y-17604041D01*
X45429060Y-18546628D01*
X45321375Y-18497450D01*
X45214823Y-18482130D01*
X45143297Y-18482130D01*
X45036745Y-18497450D01*
X44929060Y-18546628D01*
X44929060Y-17651494D01*
X44929059Y-17651494D01*
X44715573Y-17708697D01*
X44715567Y-17708700D01*
X44501482Y-17808529D01*
X44501480Y-17808530D01*
X44307986Y-17944016D01*
X44307980Y-17944021D01*
X44140951Y-18111050D01*
X44140950Y-18111052D01*
X44014191Y-18292082D01*
X43959614Y-18335707D01*
X43890115Y-18342899D01*
X43827761Y-18311377D01*
X43808812Y-18288786D01*
X43714782Y-18144862D01*
X43714775Y-18144855D01*
X43714775Y-18144853D01*
X43562303Y-17979227D01*
X43562298Y-17979222D01*
X43418724Y-17867473D01*
X43384636Y-17840941D01*
X43384635Y-17840940D01*
X43384632Y-17840938D01*
X43186640Y-17733791D01*
X43186637Y-17733790D01*
X43186634Y-17733788D01*
X43158721Y-17724205D01*
X43140050Y-17716023D01*
X43130207Y-17710705D01*
X41840703Y-17236338D01*
X41795833Y-17207644D01*
X41033093Y-16444903D01*
X41011261Y-16415384D01*
X40775315Y-15971121D01*
X40760584Y-15945227D01*
X40757566Y-15940845D01*
X40757631Y-15940799D01*
X40749664Y-15929310D01*
X40691832Y-15829142D01*
X40683802Y-15820224D01*
X40571083Y-15695035D01*
X40571080Y-15695033D01*
X40571079Y-15695032D01*
X40571078Y-15695031D01*
X40498079Y-15641994D01*
X40425078Y-15588955D01*
X40387757Y-15572339D01*
X40365040Y-15559183D01*
X40358898Y-15554695D01*
X39914613Y-15318737D01*
X39885094Y-15296905D01*
X38870501Y-14282311D01*
X38837016Y-14220988D01*
X38842000Y-14151296D01*
X38883872Y-14095363D01*
X38949336Y-14070946D01*
X38958182Y-14070630D01*
X41895649Y-14070630D01*
X41962688Y-14090315D01*
G37*
%TD.AperFunction*%
%TA.AperFunction,Conductor*%
G36*
X48802396Y-13310023D02*
G01*
X48823038Y-13326657D01*
X53012741Y-17516360D01*
X53046226Y-17577683D01*
X53049060Y-17604041D01*
X53049060Y-18546628D01*
X52941375Y-18497450D01*
X52834823Y-18482130D01*
X52763297Y-18482130D01*
X52656745Y-18497450D01*
X52549060Y-18546628D01*
X52549060Y-17651494D01*
X52549059Y-17651494D01*
X52335573Y-17708697D01*
X52335567Y-17708700D01*
X52121482Y-17808529D01*
X52121480Y-17808530D01*
X51927986Y-17944016D01*
X51927980Y-17944021D01*
X51760951Y-18111050D01*
X51760950Y-18111052D01*
X51634191Y-18292082D01*
X51579614Y-18335707D01*
X51510115Y-18342899D01*
X51447761Y-18311377D01*
X51428812Y-18288786D01*
X51334782Y-18144862D01*
X51334775Y-18144855D01*
X51334775Y-18144853D01*
X51182303Y-17979227D01*
X51182298Y-17979222D01*
X51038724Y-17867473D01*
X51004636Y-17840941D01*
X51004635Y-17840940D01*
X51004632Y-17840938D01*
X50806640Y-17733791D01*
X50806637Y-17733789D01*
X50806634Y-17733788D01*
X50806631Y-17733787D01*
X50806629Y-17733786D01*
X50593697Y-17660686D01*
X50371629Y-17623630D01*
X50146491Y-17623630D01*
X49924422Y-17660686D01*
X49711490Y-17733786D01*
X49711479Y-17733791D01*
X49513487Y-17840938D01*
X49513482Y-17840942D01*
X49335821Y-17979222D01*
X49335816Y-17979227D01*
X49183344Y-18144853D01*
X49183336Y-18144864D01*
X49092868Y-18283336D01*
X49039722Y-18328692D01*
X48970491Y-18338116D01*
X48907155Y-18308614D01*
X48885252Y-18283336D01*
X48819686Y-18182981D01*
X48794782Y-18144862D01*
X48794779Y-18144859D01*
X48794775Y-18144853D01*
X48642303Y-17979227D01*
X48642298Y-17979222D01*
X48498724Y-17867473D01*
X48464636Y-17840941D01*
X48464635Y-17840940D01*
X48464632Y-17840938D01*
X48266640Y-17733791D01*
X48266637Y-17733789D01*
X48266634Y-17733788D01*
X48266631Y-17733787D01*
X48266629Y-17733786D01*
X48224949Y-17719477D01*
X48209528Y-17712989D01*
X48195431Y-17705904D01*
X48195421Y-17705899D01*
X46882357Y-17266459D01*
X46834029Y-17236550D01*
X43579790Y-13982311D01*
X43546305Y-13920988D01*
X43551289Y-13851296D01*
X43593161Y-13795363D01*
X43658625Y-13770946D01*
X43667471Y-13770630D01*
X44615537Y-13770630D01*
X44653220Y-13776495D01*
X44968068Y-13876927D01*
X44999335Y-13885820D01*
X45004661Y-13886844D01*
X45004572Y-13887303D01*
X45024986Y-13891857D01*
X45060150Y-13904162D01*
X45060154Y-13904162D01*
X45060156Y-13904163D01*
X45229996Y-13923299D01*
X45230000Y-13923299D01*
X45230004Y-13923299D01*
X45399844Y-13904163D01*
X45399847Y-13904162D01*
X45399850Y-13904162D01*
X45561183Y-13847709D01*
X45705909Y-13756771D01*
X45826771Y-13635909D01*
X45917709Y-13491183D01*
X45958929Y-13373381D01*
X45999649Y-13316608D01*
X46064602Y-13290860D01*
X46075970Y-13290338D01*
X48735357Y-13290338D01*
X48802396Y-13310023D01*
G37*
%TD.AperFunction*%
%TA.AperFunction,Conductor*%
G36*
X50840558Y-12808185D02*
G01*
X50861200Y-12824819D01*
X55333067Y-17296686D01*
X55366552Y-17358009D01*
X55361568Y-17427701D01*
X55319696Y-17483634D01*
X55254232Y-17508051D01*
X55206033Y-17501957D01*
X54502357Y-17266459D01*
X54454029Y-17236550D01*
X50217660Y-13000181D01*
X50184175Y-12938858D01*
X50189159Y-12869166D01*
X50231031Y-12813233D01*
X50296495Y-12788816D01*
X50305341Y-12788500D01*
X50773519Y-12788500D01*
X50840558Y-12808185D01*
G37*
%TD.AperFunction*%
%TA.AperFunction,Conductor*%
G36*
X52282688Y-11710315D02*
G01*
X52303330Y-11726949D01*
X57873067Y-17296686D01*
X57906552Y-17358009D01*
X57901568Y-17427701D01*
X57859696Y-17483634D01*
X57794232Y-17508051D01*
X57746033Y-17501957D01*
X57042357Y-17266459D01*
X56994029Y-17236550D01*
X51659790Y-11902311D01*
X51626305Y-11840988D01*
X51631289Y-11771296D01*
X51673161Y-11715363D01*
X51738625Y-11690946D01*
X51747471Y-11690630D01*
X52215649Y-11690630D01*
X52282688Y-11710315D01*
G37*
%TD.AperFunction*%
%TA.AperFunction,Conductor*%
G36*
X7327307Y-2857168D02*
G01*
X7920229Y-3052622D01*
X7969088Y-3082707D01*
X11912707Y-7026326D01*
X11923402Y-7038521D01*
X11942942Y-7063987D01*
X11974852Y-7088473D01*
X11974853Y-7088473D01*
X11974857Y-7088476D01*
X11974858Y-7088477D01*
X12024155Y-7126303D01*
X12024156Y-7126305D01*
X12059375Y-7153328D01*
X12070055Y-7161524D01*
X12070057Y-7161524D01*
X12070059Y-7161526D01*
X12100667Y-7174204D01*
X12218080Y-7222838D01*
X12337045Y-7238500D01*
X12337050Y-7238500D01*
X12341053Y-7239027D01*
X12341071Y-7239029D01*
X12363275Y-7241952D01*
X12376929Y-7243750D01*
X12376930Y-7243750D01*
X12376931Y-7243750D01*
X12408750Y-7239561D01*
X12424935Y-7238500D01*
X20429695Y-7238500D01*
X20496734Y-7258185D01*
X20542489Y-7310989D01*
X20552433Y-7380147D01*
X20523408Y-7443703D01*
X20495668Y-7467493D01*
X20483154Y-7475355D01*
X20362288Y-7596221D01*
X20271351Y-7740946D01*
X20214897Y-7902280D01*
X20214896Y-7902285D01*
X20195761Y-8072126D01*
X20195761Y-8072133D01*
X20214896Y-8241974D01*
X20214897Y-8241979D01*
X20271351Y-8403313D01*
X20359792Y-8544066D01*
X20362289Y-8548039D01*
X20483151Y-8668901D01*
X20627877Y-8759839D01*
X20627881Y-8759840D01*
X20634149Y-8762859D01*
X20634118Y-8762922D01*
X20638024Y-8764594D01*
X20639434Y-8765314D01*
X20639437Y-8765316D01*
X20933157Y-8915308D01*
X20964441Y-8938060D01*
X24282707Y-12256326D01*
X24293402Y-12268521D01*
X24312942Y-12293987D01*
X24344851Y-12318472D01*
X24344855Y-12318474D01*
X24344858Y-12318477D01*
X24388221Y-12351751D01*
X24440052Y-12391523D01*
X24440058Y-12391526D01*
X24514066Y-12422181D01*
X24588079Y-12452838D01*
X24607466Y-12455390D01*
X24607473Y-12455393D01*
X24607473Y-12455391D01*
X24707045Y-12468500D01*
X24707047Y-12468500D01*
X24711058Y-12469028D01*
X24711084Y-12469031D01*
X24746929Y-12473750D01*
X24746930Y-12473750D01*
X24746931Y-12473750D01*
X24778750Y-12469561D01*
X24794935Y-12468500D01*
X29443889Y-12468500D01*
X29482100Y-12474534D01*
X29795849Y-12576163D01*
X29828194Y-12585480D01*
X29828207Y-12585481D01*
X29833540Y-12586522D01*
X29833463Y-12586913D01*
X29854064Y-12591534D01*
X29890150Y-12604162D01*
X29890154Y-12604162D01*
X29890156Y-12604163D01*
X30059996Y-12623299D01*
X30060000Y-12623299D01*
X30060004Y-12623299D01*
X30229843Y-12604163D01*
X30229843Y-12604162D01*
X30229850Y-12604162D01*
X30286302Y-12584407D01*
X30306209Y-12579250D01*
X30324149Y-12576163D01*
X30618529Y-12480808D01*
X30637899Y-12474534D01*
X30676110Y-12468500D01*
X31101589Y-12468500D01*
X31168628Y-12488185D01*
X31189270Y-12504819D01*
X31796400Y-13111949D01*
X31829885Y-13173272D01*
X31824901Y-13242964D01*
X31783029Y-13298897D01*
X31717565Y-13323314D01*
X31708719Y-13323630D01*
X30823030Y-13323630D01*
X30799795Y-13321434D01*
X30790738Y-13319706D01*
X30790733Y-13319706D01*
X30732261Y-13323385D01*
X30724475Y-13323630D01*
X17513182Y-13323630D01*
X17446143Y-13303945D01*
X17425501Y-13287311D01*
X16974898Y-12836708D01*
X16950143Y-12801315D01*
X16669551Y-12197957D01*
X16669549Y-12197953D01*
X16669542Y-12197938D01*
X16649532Y-12159285D01*
X16648950Y-12158539D01*
X16637324Y-12140676D01*
X16584285Y-12041444D01*
X16545454Y-11994129D01*
X16464506Y-11895493D01*
X16318557Y-11775716D01*
X16318556Y-11775715D01*
X16180471Y-11701907D01*
X16171178Y-11696406D01*
X16162059Y-11690456D01*
X15558682Y-11409855D01*
X15523290Y-11385100D01*
X11083092Y-6944902D01*
X11061260Y-6915383D01*
X10825315Y-6471121D01*
X10810584Y-6445227D01*
X10807566Y-6440845D01*
X10807631Y-6440799D01*
X10799664Y-6429310D01*
X10741832Y-6329142D01*
X10733802Y-6320224D01*
X10621083Y-6195035D01*
X10621080Y-6195033D01*
X10621079Y-6195032D01*
X10621078Y-6195031D01*
X10489008Y-6099076D01*
X10475078Y-6088955D01*
X10437757Y-6072339D01*
X10415040Y-6059183D01*
X10408898Y-6054695D01*
X9964615Y-5818738D01*
X9935096Y-5796906D01*
X7200806Y-3062616D01*
X7167321Y-3001293D01*
X7172305Y-2931601D01*
X7214177Y-2875668D01*
X7279641Y-2851251D01*
X7327307Y-2857168D01*
G37*
%TD.AperFunction*%
%TA.AperFunction,Conductor*%
G36*
X30658492Y-9538185D02*
G01*
X30704247Y-9590989D01*
X30714191Y-9660147D01*
X30685166Y-9723703D01*
X30632408Y-9759541D01*
X30538819Y-9792289D01*
X30394091Y-9883228D01*
X30273228Y-10004091D01*
X30182291Y-10148816D01*
X30125837Y-10310150D01*
X30125836Y-10310155D01*
X30106701Y-10479996D01*
X30106701Y-10480003D01*
X30125836Y-10649844D01*
X30125837Y-10649849D01*
X30182291Y-10811184D01*
X30247687Y-10915261D01*
X30266687Y-10982498D01*
X30246319Y-11049333D01*
X30193051Y-11094547D01*
X30128810Y-11104453D01*
X30060004Y-11096701D01*
X30059996Y-11096701D01*
X29890151Y-11115837D01*
X29890150Y-11115837D01*
X29833709Y-11135586D01*
X29813800Y-11140745D01*
X29795857Y-11143834D01*
X29795850Y-11143836D01*
X29482098Y-11245466D01*
X29443887Y-11251500D01*
X25123368Y-11251500D01*
X25056329Y-11231815D01*
X25010574Y-11179011D01*
X25000630Y-11109853D01*
X25018374Y-11061528D01*
X25044566Y-11019844D01*
X25087709Y-10951183D01*
X25087711Y-10951175D01*
X25090677Y-10945016D01*
X25092793Y-10940827D01*
X25245173Y-10653118D01*
X25267067Y-10623480D01*
X26335730Y-9554819D01*
X26397053Y-9521334D01*
X26423411Y-9518500D01*
X30591453Y-9518500D01*
X30658492Y-9538185D01*
G37*
%TD.AperFunction*%
%TA.AperFunction,Conductor*%
G36*
X31452521Y-9538185D02*
G01*
X31498276Y-9590989D01*
X31508220Y-9660147D01*
X31490475Y-9708473D01*
X31452674Y-9768632D01*
X31400339Y-9814922D01*
X31331286Y-9825570D01*
X31309470Y-9820625D01*
X31134135Y-9763831D01*
X31126575Y-9761654D01*
X31067604Y-9724181D01*
X31038255Y-9660774D01*
X31047845Y-9591566D01*
X31093329Y-9538529D01*
X31160267Y-9518502D01*
X31160901Y-9518500D01*
X31385482Y-9518500D01*
X31452521Y-9538185D01*
G37*
%TD.AperFunction*%
%TA.AperFunction,Conductor*%
G36*
X63354895Y-252631D02*
G01*
X63394641Y-252630D01*
X63403483Y-252945D01*
X63639198Y-269800D01*
X63656705Y-272316D01*
X63883297Y-321604D01*
X63900271Y-326589D01*
X64117527Y-407619D01*
X64133619Y-414967D01*
X64298250Y-504860D01*
X64337139Y-526094D01*
X64352021Y-535657D01*
X64537643Y-674611D01*
X64537658Y-674622D01*
X64551029Y-686209D01*
X64714986Y-850166D01*
X64726572Y-863536D01*
X64865538Y-1049172D01*
X64875097Y-1064047D01*
X64986227Y-1267568D01*
X64993575Y-1283659D01*
X65074609Y-1500926D01*
X65079593Y-1517901D01*
X65128880Y-1744477D01*
X65131398Y-1761989D01*
X65136171Y-1828736D01*
X65147599Y-1988553D01*
X65148244Y-1997565D01*
X65148560Y-2006410D01*
X65148560Y-4931164D01*
X65128875Y-4998203D01*
X65076071Y-5043958D01*
X65006913Y-5053902D01*
X64981228Y-5047346D01*
X64917383Y-5023533D01*
X64917372Y-5023531D01*
X64857844Y-5017130D01*
X64210000Y-5017130D01*
X64210000Y-5931628D01*
X64102315Y-5882450D01*
X63995763Y-5867130D01*
X63924237Y-5867130D01*
X63817685Y-5882450D01*
X63710000Y-5931628D01*
X63710000Y-5017130D01*
X63062155Y-5017130D01*
X63002627Y-5023531D01*
X63002620Y-5023533D01*
X62867913Y-5073775D01*
X62867906Y-5073779D01*
X62752812Y-5159939D01*
X62752809Y-5159942D01*
X62666649Y-5275036D01*
X62666645Y-5275043D01*
X62616403Y-5409750D01*
X62616401Y-5409757D01*
X62610000Y-5469285D01*
X62610000Y-6117130D01*
X63526314Y-6117130D01*
X63500507Y-6157286D01*
X63460000Y-6295241D01*
X63460000Y-6439019D01*
X63500507Y-6576974D01*
X63526314Y-6617130D01*
X62610000Y-6617130D01*
X62610000Y-7264974D01*
X62616401Y-7324502D01*
X62616403Y-7324509D01*
X62666645Y-7459216D01*
X62666649Y-7459223D01*
X62752809Y-7574317D01*
X62752812Y-7574320D01*
X62867906Y-7660480D01*
X62867913Y-7660484D01*
X62987810Y-7705203D01*
X63043744Y-7747074D01*
X63068161Y-7812539D01*
X63053309Y-7880812D01*
X63035706Y-7905368D01*
X62884284Y-8069853D01*
X62884276Y-8069864D01*
X62761140Y-8258337D01*
X62670703Y-8464515D01*
X62615436Y-8682758D01*
X62615434Y-8682770D01*
X62596844Y-8907124D01*
X62596844Y-8907126D01*
X62597939Y-8920343D01*
X62583857Y-8988778D01*
X62535011Y-9038737D01*
X62466909Y-9054357D01*
X62401174Y-9030679D01*
X62386681Y-9018262D01*
X59584224Y-6215805D01*
X59573530Y-6203612D01*
X59567860Y-6196223D01*
X59553987Y-6178143D01*
X59553985Y-6178141D01*
X59553984Y-6178140D01*
X59522075Y-6153656D01*
X59522074Y-6153655D01*
X59522072Y-6153653D01*
X59460770Y-6106614D01*
X59426877Y-6080606D01*
X59426873Y-6080604D01*
X59278851Y-6019291D01*
X59261711Y-6017035D01*
X59259456Y-6016738D01*
X59259455Y-6016737D01*
X59155878Y-6003102D01*
X59155846Y-6003099D01*
X59120001Y-5998380D01*
X59119999Y-5998380D01*
X59088180Y-6002569D01*
X59071995Y-6003630D01*
X43519482Y-6003630D01*
X43452443Y-5983945D01*
X43406688Y-5931141D01*
X43396262Y-5865747D01*
X43402359Y-5811633D01*
X43402359Y-5811626D01*
X43383223Y-5641787D01*
X43383221Y-5641779D01*
X43363473Y-5585341D01*
X43358311Y-5565419D01*
X43355224Y-5547485D01*
X43355223Y-5547479D01*
X43253594Y-5233729D01*
X43247560Y-5195519D01*
X43247560Y-3202247D01*
X43260582Y-3146930D01*
X43802403Y-2060027D01*
X43849926Y-2008816D01*
X43917597Y-1991425D01*
X43983928Y-2013380D01*
X44017184Y-2047531D01*
X44103336Y-2179395D01*
X44103344Y-2179406D01*
X44255816Y-2345032D01*
X44255820Y-2345036D01*
X44433484Y-2483319D01*
X44433485Y-2483319D01*
X44433487Y-2483321D01*
X44555438Y-2549317D01*
X44631486Y-2590472D01*
X44844425Y-2663574D01*
X45066491Y-2700630D01*
X45291629Y-2700630D01*
X45513695Y-2663574D01*
X45726634Y-2590472D01*
X45924636Y-2483319D01*
X46102300Y-2345036D01*
X46223654Y-2213212D01*
X46254775Y-2179406D01*
X46254775Y-2179405D01*
X46254782Y-2179398D01*
X46345253Y-2040920D01*
X46398398Y-1995567D01*
X46467629Y-1986143D01*
X46530965Y-2015645D01*
X46552864Y-2040917D01*
X46643338Y-2179398D01*
X46643343Y-2179403D01*
X46643344Y-2179406D01*
X46795816Y-2345032D01*
X46795820Y-2345036D01*
X46973484Y-2483319D01*
X46973485Y-2483319D01*
X46973487Y-2483321D01*
X47095438Y-2549317D01*
X47171486Y-2590472D01*
X47384425Y-2663574D01*
X47606491Y-2700630D01*
X47831629Y-2700630D01*
X48053695Y-2663574D01*
X48266634Y-2590472D01*
X48464636Y-2483319D01*
X48642300Y-2345036D01*
X48763654Y-2213212D01*
X48794775Y-2179406D01*
X48794775Y-2179405D01*
X48794782Y-2179398D01*
X48885253Y-2040920D01*
X48938398Y-1995567D01*
X49007629Y-1986143D01*
X49070965Y-2015645D01*
X49092864Y-2040917D01*
X49183338Y-2179398D01*
X49183343Y-2179403D01*
X49183344Y-2179406D01*
X49335816Y-2345032D01*
X49335820Y-2345036D01*
X49513484Y-2483319D01*
X49513485Y-2483319D01*
X49513487Y-2483321D01*
X49635438Y-2549317D01*
X49711486Y-2590472D01*
X49924425Y-2663574D01*
X50146491Y-2700630D01*
X50371629Y-2700630D01*
X50593695Y-2663574D01*
X50806634Y-2590472D01*
X51004636Y-2483319D01*
X51182300Y-2345036D01*
X51303654Y-2213212D01*
X51334775Y-2179406D01*
X51334775Y-2179405D01*
X51334782Y-2179398D01*
X51425253Y-2040920D01*
X51478398Y-1995567D01*
X51547629Y-1986143D01*
X51610965Y-2015645D01*
X51632864Y-2040917D01*
X51723338Y-2179398D01*
X51723343Y-2179403D01*
X51723344Y-2179406D01*
X51875816Y-2345032D01*
X51875820Y-2345036D01*
X52053484Y-2483319D01*
X52053485Y-2483319D01*
X52053487Y-2483321D01*
X52175438Y-2549317D01*
X52251486Y-2590472D01*
X52464425Y-2663574D01*
X52686491Y-2700630D01*
X52911629Y-2700630D01*
X53133695Y-2663574D01*
X53346634Y-2590472D01*
X53544636Y-2483319D01*
X53722300Y-2345036D01*
X53843654Y-2213212D01*
X53874775Y-2179406D01*
X53874775Y-2179405D01*
X53874782Y-2179398D01*
X53965253Y-2040920D01*
X54018398Y-1995567D01*
X54087629Y-1986143D01*
X54150965Y-2015645D01*
X54172864Y-2040917D01*
X54263338Y-2179398D01*
X54263343Y-2179403D01*
X54263344Y-2179406D01*
X54415816Y-2345032D01*
X54415820Y-2345036D01*
X54593484Y-2483319D01*
X54593485Y-2483319D01*
X54593487Y-2483321D01*
X54715438Y-2549317D01*
X54791486Y-2590472D01*
X55004425Y-2663574D01*
X55226491Y-2700630D01*
X55451629Y-2700630D01*
X55673695Y-2663574D01*
X55886634Y-2590472D01*
X56084636Y-2483319D01*
X56262300Y-2345036D01*
X56383654Y-2213212D01*
X56414775Y-2179406D01*
X56414775Y-2179405D01*
X56414782Y-2179398D01*
X56505253Y-2040920D01*
X56558398Y-1995567D01*
X56627629Y-1986143D01*
X56690965Y-2015645D01*
X56712864Y-2040917D01*
X56803338Y-2179398D01*
X56803343Y-2179403D01*
X56803344Y-2179406D01*
X56955816Y-2345032D01*
X56955820Y-2345036D01*
X57133484Y-2483319D01*
X57133485Y-2483319D01*
X57133487Y-2483321D01*
X57255438Y-2549317D01*
X57331486Y-2590472D01*
X57544425Y-2663574D01*
X57766491Y-2700630D01*
X57991629Y-2700630D01*
X58213695Y-2663574D01*
X58426634Y-2590472D01*
X58624636Y-2483319D01*
X58802300Y-2345036D01*
X58923654Y-2213212D01*
X58954775Y-2179406D01*
X58954775Y-2179405D01*
X58954782Y-2179398D01*
X59045253Y-2040920D01*
X59098398Y-1995567D01*
X59167629Y-1986143D01*
X59230965Y-2015645D01*
X59252864Y-2040917D01*
X59343338Y-2179398D01*
X59343343Y-2179403D01*
X59343344Y-2179406D01*
X59495816Y-2345032D01*
X59495820Y-2345036D01*
X59673484Y-2483319D01*
X59673485Y-2483319D01*
X59673487Y-2483321D01*
X59795438Y-2549317D01*
X59871486Y-2590472D01*
X60084425Y-2663574D01*
X60306491Y-2700630D01*
X60531629Y-2700630D01*
X60753695Y-2663574D01*
X60966634Y-2590472D01*
X61164636Y-2483319D01*
X61342300Y-2345036D01*
X61463654Y-2213212D01*
X61485020Y-2190003D01*
X62225811Y-2190003D01*
X62232739Y-2264776D01*
X62233127Y-2270313D01*
X62236851Y-2348470D01*
X62236852Y-2348475D01*
X62240615Y-2363986D01*
X62243581Y-2381774D01*
X62244766Y-2394559D01*
X62261261Y-2452535D01*
X62266260Y-2470102D01*
X62267498Y-2474802D01*
X62286761Y-2554201D01*
X62286762Y-2554206D01*
X62291951Y-2565568D01*
X62298419Y-2583134D01*
X62300982Y-2592141D01*
X62300988Y-2592157D01*
X62337536Y-2665554D01*
X62339330Y-2669314D01*
X62374701Y-2746765D01*
X62374707Y-2746776D01*
X62379939Y-2754123D01*
X62389928Y-2770771D01*
X62392556Y-2776048D01*
X62392558Y-2776052D01*
X62444049Y-2844236D01*
X62446102Y-2847035D01*
X62497503Y-2919218D01*
X62497505Y-2919219D01*
X62501519Y-2923047D01*
X62514897Y-2938057D01*
X62516352Y-2939983D01*
X62516355Y-2939987D01*
X62516358Y-2939989D01*
X62516359Y-2939991D01*
X62582100Y-2999922D01*
X62584093Y-3001780D01*
X62650714Y-3065303D01*
X62652458Y-3066424D01*
X62663579Y-3074970D01*
X62663604Y-3074938D01*
X62668179Y-3078393D01*
X62746745Y-3127039D01*
X62748462Y-3128122D01*
X62818381Y-3173056D01*
X62828808Y-3179757D01*
X62834060Y-3182465D01*
X62834026Y-3182529D01*
X62837548Y-3184308D01*
X62837710Y-3183984D01*
X62842833Y-3186534D01*
X62842842Y-3186540D01*
X62891393Y-3205348D01*
X62932220Y-3221164D01*
X62933448Y-3221647D01*
X62976814Y-3239009D01*
X63025338Y-3258436D01*
X63027307Y-3259013D01*
X63033400Y-3260465D01*
X63034399Y-3260749D01*
X63034400Y-3260749D01*
X63034405Y-3260751D01*
X63132232Y-3279037D01*
X63132343Y-3279058D01*
X63233211Y-3298500D01*
X63233216Y-3298500D01*
X63441776Y-3298500D01*
X63441778Y-3298500D01*
X63488457Y-3289773D01*
X63499409Y-3288229D01*
X63549799Y-3283419D01*
X63591711Y-3271112D01*
X63603846Y-3268203D01*
X63643715Y-3260751D01*
X63691187Y-3242360D01*
X63701046Y-3239009D01*
X63731932Y-3229939D01*
X63752922Y-3223777D01*
X63765454Y-3217315D01*
X63788669Y-3205348D01*
X63800694Y-3199937D01*
X63835278Y-3186540D01*
X63881517Y-3157909D01*
X63889979Y-3153118D01*
X63938409Y-3128151D01*
X63941086Y-3126771D01*
X63969982Y-3104046D01*
X63981342Y-3096099D01*
X64009942Y-3078392D01*
X64052693Y-3039417D01*
X64059554Y-3033606D01*
X64107492Y-2995908D01*
X64129291Y-2970749D01*
X64139465Y-2960316D01*
X64145504Y-2954809D01*
X64161761Y-2939991D01*
X64198714Y-2891055D01*
X64203924Y-2884618D01*
X64246125Y-2835918D01*
X64261049Y-2810066D01*
X64269468Y-2797361D01*
X64285563Y-2776050D01*
X64314424Y-2718088D01*
X64318037Y-2711360D01*
X64351973Y-2652582D01*
X64360597Y-2627661D01*
X64366769Y-2612965D01*
X64377134Y-2592152D01*
X64395805Y-2526527D01*
X64397887Y-2519921D01*
X64421210Y-2452535D01*
X64421213Y-2452527D01*
X64424472Y-2429857D01*
X64427938Y-2413590D01*
X64433354Y-2394559D01*
X64439966Y-2323199D01*
X64440698Y-2317003D01*
X64443214Y-2299509D01*
X64451341Y-2242984D01*
X64450416Y-2223578D01*
X64450803Y-2206238D01*
X64452309Y-2190000D01*
X64445378Y-2115214D01*
X64444990Y-2109679D01*
X64442625Y-2060032D01*
X64441268Y-2031526D01*
X64437501Y-2016002D01*
X64434538Y-1998229D01*
X64433354Y-1985441D01*
X64411843Y-1909840D01*
X64410616Y-1905182D01*
X64391358Y-1825796D01*
X64386167Y-1814430D01*
X64379696Y-1796853D01*
X64377136Y-1787856D01*
X64377134Y-1787848D01*
X64340571Y-1714421D01*
X64338776Y-1710659D01*
X64303415Y-1633227D01*
X64298181Y-1625877D01*
X64288189Y-1609224D01*
X64285563Y-1603950D01*
X64234062Y-1535752D01*
X64232016Y-1532963D01*
X64180619Y-1460785D01*
X64180614Y-1460780D01*
X64176606Y-1456958D01*
X64163213Y-1441931D01*
X64161768Y-1440018D01*
X64161765Y-1440014D01*
X64161764Y-1440013D01*
X64161761Y-1440009D01*
X64095973Y-1380036D01*
X64094062Y-1378253D01*
X64027406Y-1314697D01*
X64027403Y-1314694D01*
X64025661Y-1313575D01*
X64014540Y-1305029D01*
X64014516Y-1305062D01*
X64009937Y-1301604D01*
X63931387Y-1252967D01*
X63929627Y-1251857D01*
X63849318Y-1200246D01*
X63844059Y-1197535D01*
X63844092Y-1197470D01*
X63840572Y-1195692D01*
X63840411Y-1196016D01*
X63835273Y-1193457D01*
X63745943Y-1158851D01*
X63744651Y-1158343D01*
X63652782Y-1121564D01*
X63650821Y-1120988D01*
X63644740Y-1119540D01*
X63643720Y-1119250D01*
X63546077Y-1100996D01*
X63545397Y-1100867D01*
X63444910Y-1081500D01*
X63444909Y-1081500D01*
X63441778Y-1081500D01*
X63236342Y-1081500D01*
X63236336Y-1081500D01*
X63189674Y-1090222D01*
X63178682Y-1091771D01*
X63128325Y-1096580D01*
X63128321Y-1096580D01*
X63128321Y-1096581D01*
X63105315Y-1103336D01*
X63086406Y-1108888D01*
X63074260Y-1111798D01*
X63034411Y-1119247D01*
X63034398Y-1119251D01*
X62986926Y-1137641D01*
X62977071Y-1140991D01*
X62925200Y-1156222D01*
X62889449Y-1174652D01*
X62877431Y-1180059D01*
X62842841Y-1193460D01*
X62842840Y-1193460D01*
X62796600Y-1222091D01*
X62788145Y-1226878D01*
X62737037Y-1253226D01*
X62708142Y-1275949D01*
X62696774Y-1283901D01*
X62668175Y-1301609D01*
X62625435Y-1340571D01*
X62618554Y-1346400D01*
X62570625Y-1384093D01*
X62548823Y-1409253D01*
X62538658Y-1419678D01*
X62516361Y-1440006D01*
X62479426Y-1488915D01*
X62474187Y-1495387D01*
X62431996Y-1544079D01*
X62417074Y-1569925D01*
X62408647Y-1582641D01*
X62392557Y-1603950D01*
X62392556Y-1603951D01*
X62392556Y-1603952D01*
X62392551Y-1603960D01*
X62363692Y-1661914D01*
X62360082Y-1668637D01*
X62326148Y-1727414D01*
X62317524Y-1752331D01*
X62311348Y-1767036D01*
X62300988Y-1787842D01*
X62300983Y-1787856D01*
X62282316Y-1853459D01*
X62280232Y-1860077D01*
X62256906Y-1927475D01*
X62253647Y-1950137D01*
X62250179Y-1966409D01*
X62244766Y-1985437D01*
X62238153Y-2056796D01*
X62237420Y-2062999D01*
X62226779Y-2137010D01*
X62226779Y-2137015D01*
X62227703Y-2156434D01*
X62227315Y-2173766D01*
X62225811Y-2190003D01*
X61485020Y-2190003D01*
X61494775Y-2179406D01*
X61494777Y-2179403D01*
X61494782Y-2179398D01*
X61617920Y-1990921D01*
X61708356Y-1784746D01*
X61763624Y-1566498D01*
X61764828Y-1551974D01*
X61782216Y-1342135D01*
X61782216Y-1342124D01*
X61763625Y-1117770D01*
X61763623Y-1117758D01*
X61754441Y-1081500D01*
X61708356Y-899514D01*
X61617920Y-693339D01*
X61605684Y-674611D01*
X61556351Y-599100D01*
X61494782Y-504862D01*
X61454047Y-460612D01*
X61423125Y-397959D01*
X61430985Y-328533D01*
X61475132Y-274377D01*
X61541549Y-252686D01*
X61545277Y-252630D01*
X63354892Y-252630D01*
X63354895Y-252631D01*
G37*
%TD.AperFunction*%
%TA.AperFunction,Conductor*%
G36*
X9761824Y-2822396D02*
G01*
X10460229Y-3052622D01*
X10509088Y-3082707D01*
X13236200Y-5809819D01*
X13269685Y-5871142D01*
X13264701Y-5940834D01*
X13222829Y-5996767D01*
X13157365Y-6021184D01*
X13148519Y-6021500D01*
X12680341Y-6021500D01*
X12613302Y-6001815D01*
X12592660Y-5985181D01*
X9635323Y-3027844D01*
X9601838Y-2966521D01*
X9606822Y-2896829D01*
X9648694Y-2840896D01*
X9714158Y-2816479D01*
X9761824Y-2822396D01*
G37*
%TD.AperFunction*%
%TA.AperFunction,Conductor*%
G36*
X32729060Y-2672763D02*
G01*
X32942543Y-2615563D01*
X32942552Y-2615559D01*
X33156638Y-2515730D01*
X33350142Y-2380235D01*
X33517165Y-2213212D01*
X33643928Y-2032178D01*
X33698505Y-1988553D01*
X33768004Y-1981361D01*
X33830358Y-2012883D01*
X33849311Y-2035480D01*
X33943336Y-2179395D01*
X33943344Y-2179406D01*
X34095816Y-2345032D01*
X34095820Y-2345036D01*
X34273484Y-2483319D01*
X34273485Y-2483319D01*
X34273487Y-2483321D01*
X34395438Y-2549317D01*
X34471486Y-2590472D01*
X34684425Y-2663574D01*
X34906491Y-2700630D01*
X35131629Y-2700630D01*
X35353695Y-2663574D01*
X35566634Y-2590472D01*
X35764636Y-2483319D01*
X35942300Y-2345036D01*
X36063654Y-2213212D01*
X36094775Y-2179406D01*
X36094775Y-2179405D01*
X36094782Y-2179398D01*
X36185253Y-2040920D01*
X36238398Y-1995567D01*
X36307629Y-1986143D01*
X36370965Y-2015645D01*
X36392864Y-2040917D01*
X36483338Y-2179398D01*
X36483343Y-2179403D01*
X36483344Y-2179406D01*
X36635816Y-2345032D01*
X36635820Y-2345036D01*
X36813484Y-2483319D01*
X36813485Y-2483319D01*
X36813487Y-2483321D01*
X36935438Y-2549317D01*
X37011486Y-2590472D01*
X37224425Y-2663574D01*
X37446491Y-2700630D01*
X37671629Y-2700630D01*
X37893695Y-2663574D01*
X38106634Y-2590472D01*
X38304636Y-2483319D01*
X38482300Y-2345036D01*
X38603654Y-2213212D01*
X38634775Y-2179406D01*
X38634775Y-2179405D01*
X38634782Y-2179398D01*
X38725253Y-2040920D01*
X38778398Y-1995567D01*
X38847629Y-1986143D01*
X38910965Y-2015645D01*
X38932864Y-2040917D01*
X39023338Y-2179398D01*
X39023343Y-2179403D01*
X39023344Y-2179406D01*
X39175816Y-2345032D01*
X39175820Y-2345036D01*
X39353484Y-2483319D01*
X39353485Y-2483319D01*
X39353487Y-2483321D01*
X39475438Y-2549317D01*
X39551486Y-2590472D01*
X39764425Y-2663574D01*
X39986491Y-2700630D01*
X40211629Y-2700630D01*
X40433695Y-2663574D01*
X40646634Y-2590472D01*
X40844636Y-2483319D01*
X41022300Y-2345036D01*
X41143654Y-2213212D01*
X41174775Y-2179406D01*
X41174775Y-2179405D01*
X41174782Y-2179398D01*
X41260935Y-2047529D01*
X41314080Y-2002176D01*
X41383311Y-1992752D01*
X41446647Y-2022254D01*
X41475716Y-2060031D01*
X42017534Y-3146926D01*
X42017535Y-3146927D01*
X42030560Y-3202248D01*
X42030560Y-5195518D01*
X42024525Y-5233729D01*
X41922896Y-5547479D01*
X41919790Y-5558261D01*
X41913578Y-5579825D01*
X41912537Y-5585165D01*
X41912150Y-5585089D01*
X41907523Y-5605696D01*
X41894898Y-5641779D01*
X41894896Y-5641786D01*
X41875761Y-5811626D01*
X41875761Y-5811634D01*
X41883871Y-5883617D01*
X41871816Y-5952439D01*
X41824467Y-6003818D01*
X41760651Y-6021500D01*
X24236209Y-6021500D01*
X24169170Y-6001815D01*
X24123415Y-5949011D01*
X24112989Y-5911383D01*
X24093744Y-5740574D01*
X24093743Y-5740569D01*
X24037290Y-5579236D01*
X23946352Y-5434510D01*
X23825490Y-5313648D01*
X23825489Y-5313647D01*
X23680764Y-5222710D01*
X23519430Y-5166256D01*
X23519425Y-5166255D01*
X23349585Y-5147120D01*
X23349577Y-5147120D01*
X23179732Y-5166256D01*
X23179728Y-5166257D01*
X23123626Y-5185887D01*
X23103605Y-5191066D01*
X23085865Y-5194104D01*
X22771899Y-5295499D01*
X22733791Y-5301500D01*
X14500341Y-5301500D01*
X14433302Y-5281815D01*
X14412660Y-5265181D01*
X12059790Y-2912311D01*
X12026305Y-2850988D01*
X12031289Y-2781296D01*
X12073161Y-2725363D01*
X12138625Y-2700946D01*
X12147471Y-2700630D01*
X12271629Y-2700630D01*
X12493695Y-2663574D01*
X12706634Y-2590472D01*
X12904636Y-2483319D01*
X13082300Y-2345036D01*
X13203654Y-2213212D01*
X13234775Y-2179406D01*
X13234775Y-2179405D01*
X13234782Y-2179398D01*
X13325253Y-2040920D01*
X13378398Y-1995567D01*
X13447629Y-1986143D01*
X13510965Y-2015645D01*
X13532864Y-2040917D01*
X13623338Y-2179398D01*
X13623343Y-2179403D01*
X13623344Y-2179406D01*
X13775816Y-2345032D01*
X13775820Y-2345036D01*
X13953484Y-2483319D01*
X13953485Y-2483319D01*
X13953487Y-2483321D01*
X14075438Y-2549317D01*
X14151486Y-2590472D01*
X14364425Y-2663574D01*
X14586491Y-2700630D01*
X14811629Y-2700630D01*
X15033695Y-2663574D01*
X15246634Y-2590472D01*
X15444636Y-2483319D01*
X15622300Y-2345036D01*
X15743654Y-2213212D01*
X15774775Y-2179406D01*
X15774775Y-2179405D01*
X15774782Y-2179398D01*
X15865253Y-2040920D01*
X15918398Y-1995567D01*
X15987629Y-1986143D01*
X16050965Y-2015645D01*
X16072864Y-2040917D01*
X16163338Y-2179398D01*
X16163343Y-2179403D01*
X16163344Y-2179406D01*
X16315816Y-2345032D01*
X16315820Y-2345036D01*
X16493484Y-2483319D01*
X16493485Y-2483319D01*
X16493487Y-2483321D01*
X16615438Y-2549317D01*
X16691486Y-2590472D01*
X16904425Y-2663574D01*
X17126491Y-2700630D01*
X17351629Y-2700630D01*
X17573695Y-2663574D01*
X17786634Y-2590472D01*
X17984636Y-2483319D01*
X18162300Y-2345036D01*
X18283654Y-2213212D01*
X18314775Y-2179406D01*
X18314775Y-2179405D01*
X18314782Y-2179398D01*
X18405253Y-2040920D01*
X18458398Y-1995567D01*
X18527629Y-1986143D01*
X18590965Y-2015645D01*
X18612864Y-2040917D01*
X18703338Y-2179398D01*
X18703343Y-2179403D01*
X18703344Y-2179406D01*
X18855816Y-2345032D01*
X18855820Y-2345036D01*
X19033484Y-2483319D01*
X19033485Y-2483319D01*
X19033487Y-2483321D01*
X19155438Y-2549317D01*
X19231486Y-2590472D01*
X19444425Y-2663574D01*
X19666491Y-2700630D01*
X19891629Y-2700630D01*
X20113695Y-2663574D01*
X20326634Y-2590472D01*
X20524636Y-2483319D01*
X20702300Y-2345036D01*
X20823654Y-2213212D01*
X20854775Y-2179406D01*
X20854775Y-2179405D01*
X20854782Y-2179398D01*
X20945253Y-2040920D01*
X20998398Y-1995567D01*
X21067629Y-1986143D01*
X21130965Y-2015645D01*
X21152864Y-2040917D01*
X21243338Y-2179398D01*
X21243343Y-2179403D01*
X21243344Y-2179406D01*
X21395816Y-2345032D01*
X21395820Y-2345036D01*
X21573484Y-2483319D01*
X21573485Y-2483319D01*
X21573487Y-2483321D01*
X21695438Y-2549317D01*
X21771486Y-2590472D01*
X21984425Y-2663574D01*
X22206491Y-2700630D01*
X22431629Y-2700630D01*
X22653695Y-2663574D01*
X22866634Y-2590472D01*
X23064636Y-2483319D01*
X23242300Y-2345036D01*
X23363654Y-2213212D01*
X23394775Y-2179406D01*
X23394775Y-2179405D01*
X23394782Y-2179398D01*
X23485253Y-2040920D01*
X23538398Y-1995567D01*
X23607629Y-1986143D01*
X23670965Y-2015645D01*
X23692864Y-2040917D01*
X23783338Y-2179398D01*
X23783343Y-2179403D01*
X23783344Y-2179406D01*
X23935816Y-2345032D01*
X23935820Y-2345036D01*
X24113484Y-2483319D01*
X24113485Y-2483319D01*
X24113487Y-2483321D01*
X24235438Y-2549317D01*
X24311486Y-2590472D01*
X24524425Y-2663574D01*
X24746491Y-2700630D01*
X24971629Y-2700630D01*
X25193695Y-2663574D01*
X25406634Y-2590472D01*
X25604636Y-2483319D01*
X25782300Y-2345036D01*
X25903654Y-2213212D01*
X25934775Y-2179406D01*
X25934775Y-2179405D01*
X25934782Y-2179398D01*
X26025253Y-2040920D01*
X26078398Y-1995567D01*
X26147629Y-1986143D01*
X26210965Y-2015645D01*
X26232864Y-2040917D01*
X26323338Y-2179398D01*
X26323343Y-2179403D01*
X26323344Y-2179406D01*
X26475816Y-2345032D01*
X26475820Y-2345036D01*
X26653484Y-2483319D01*
X26653485Y-2483319D01*
X26653487Y-2483321D01*
X26775438Y-2549317D01*
X26851486Y-2590472D01*
X27064425Y-2663574D01*
X27286491Y-2700630D01*
X27511629Y-2700630D01*
X27733695Y-2663574D01*
X27946634Y-2590472D01*
X28144636Y-2483319D01*
X28322300Y-2345036D01*
X28443654Y-2213212D01*
X28474775Y-2179406D01*
X28474775Y-2179405D01*
X28474782Y-2179398D01*
X28565253Y-2040920D01*
X28618398Y-1995567D01*
X28687629Y-1986143D01*
X28750965Y-2015645D01*
X28772864Y-2040917D01*
X28863338Y-2179398D01*
X28863343Y-2179403D01*
X28863344Y-2179406D01*
X29015816Y-2345032D01*
X29015820Y-2345036D01*
X29193484Y-2483319D01*
X29193485Y-2483319D01*
X29193487Y-2483321D01*
X29315438Y-2549317D01*
X29391486Y-2590472D01*
X29604425Y-2663574D01*
X29826491Y-2700630D01*
X30051629Y-2700630D01*
X30273695Y-2663574D01*
X30486634Y-2590472D01*
X30684636Y-2483319D01*
X30862300Y-2345036D01*
X30983654Y-2213212D01*
X31014775Y-2179406D01*
X31014775Y-2179405D01*
X31014782Y-2179398D01*
X31108809Y-2035477D01*
X31161954Y-1990124D01*
X31231185Y-1980700D01*
X31294521Y-2010202D01*
X31314190Y-2032178D01*
X31440950Y-2213208D01*
X31607977Y-2380235D01*
X31801481Y-2515730D01*
X32015567Y-2615559D01*
X32015576Y-2615563D01*
X32229060Y-2672764D01*
X32229060Y-1777631D01*
X32336745Y-1826810D01*
X32443297Y-1842130D01*
X32514823Y-1842130D01*
X32621375Y-1826810D01*
X32729060Y-1777631D01*
X32729060Y-2672763D01*
G37*
%TD.AperFunction*%
%TD*%
%TA.AperFunction,Conductor*%
%TO.N,/PB2{slash}BOOT1*%
G36*
X42738824Y-5315057D02*
G01*
X42741682Y-5319725D01*
X42866712Y-5705717D01*
X42866001Y-5714643D01*
X42860098Y-5720115D01*
X42643577Y-5810739D01*
X42634623Y-5810772D01*
X42634543Y-5810739D01*
X42418021Y-5720115D01*
X42411712Y-5713759D01*
X42411407Y-5705718D01*
X42536438Y-5319725D01*
X42542248Y-5312910D01*
X42547569Y-5311630D01*
X42730551Y-5311630D01*
X42738824Y-5315057D01*
G37*
%TD.AperFunction*%
%TD*%
%TA.AperFunction,Conductor*%
%TO.N,/PB2{slash}BOOT1*%
G36*
X42643549Y-1342995D02*
G01*
X43412784Y-1662602D01*
X43419109Y-1668941D01*
X43419100Y-1677896D01*
X43418766Y-1678627D01*
X42742290Y-3035650D01*
X42735532Y-3041525D01*
X42731819Y-3042130D01*
X42546301Y-3042130D01*
X42538028Y-3038703D01*
X42535830Y-3035650D01*
X41859353Y-1678627D01*
X41858729Y-1669694D01*
X41864604Y-1662936D01*
X41865321Y-1662608D01*
X42634571Y-1342994D01*
X42643526Y-1342986D01*
X42643549Y-1342995D01*
G37*
%TD.AperFunction*%
%TD*%
%TA.AperFunction,Conductor*%
%TO.N,/VDD_5V*%
G36*
X6575709Y-7930548D02*
G01*
X6582028Y-7936893D01*
X6582617Y-7943946D01*
X6421133Y-8653028D01*
X6415955Y-8660334D01*
X6409725Y-8662130D01*
X5928395Y-8662130D01*
X5920122Y-8658703D01*
X5916987Y-8653028D01*
X5755502Y-7943946D01*
X5757006Y-7935118D01*
X5762409Y-7930548D01*
X6164561Y-7763003D01*
X6173512Y-7762985D01*
X6575709Y-7930548D01*
G37*
%TD.AperFunction*%
%TD*%
%TA.AperFunction,Conductor*%
%TO.N,/VDD_5V*%
G36*
X6417998Y-11665557D02*
G01*
X6421133Y-11671232D01*
X6582617Y-12380313D01*
X6581113Y-12389141D01*
X6575709Y-12393711D01*
X6173560Y-12561255D01*
X6164605Y-12561274D01*
X6164560Y-12561255D01*
X5762410Y-12393711D01*
X5756091Y-12387366D01*
X5755502Y-12380313D01*
X5916987Y-11671232D01*
X5922165Y-11663926D01*
X5928395Y-11662130D01*
X6409725Y-11662130D01*
X6417998Y-11665557D01*
G37*
%TD.AperFunction*%
%TD*%
%TA.AperFunction,Conductor*%
%TO.N,/VDD_3.3V*%
G36*
X9662196Y-6239552D02*
G01*
X10027000Y-6433298D01*
X10168038Y-6508203D01*
X10173737Y-6515110D01*
X10173371Y-6522985D01*
X10046028Y-6832726D01*
X10039713Y-6839075D01*
X10039656Y-6839098D01*
X9729915Y-6966441D01*
X9720960Y-6966418D01*
X9715133Y-6961108D01*
X9482447Y-6522985D01*
X9446482Y-6455267D01*
X9445629Y-6446355D01*
X9448541Y-6441510D01*
X9648439Y-6241612D01*
X9656711Y-6238186D01*
X9662196Y-6239552D01*
G37*
%TD.AperFunction*%
%TD*%
%TA.AperFunction,Conductor*%
%TO.N,/VDD_3.3V*%
G36*
X5322110Y-1021484D02*
G01*
X5328435Y-1027823D01*
X5328586Y-1028207D01*
X5848590Y-2425108D01*
X5848265Y-2434057D01*
X5845898Y-2437463D01*
X5644343Y-2639018D01*
X5636070Y-2642445D01*
X5632081Y-2641744D01*
X4225269Y-2131594D01*
X4218660Y-2125552D01*
X4218259Y-2116606D01*
X4218431Y-2116161D01*
X4536498Y-1345913D01*
X4542819Y-1339578D01*
X5313155Y-1021475D01*
X5322110Y-1021484D01*
G37*
%TD.AperFunction*%
%TD*%
%TA.AperFunction,Conductor*%
%TO.N,/VDD_3.3V*%
G36*
X16197820Y-12408606D02*
G01*
X16203929Y-12414472D01*
X16522476Y-13099444D01*
X16522857Y-13108391D01*
X16520140Y-13112651D01*
X16319581Y-13313210D01*
X16311308Y-13316637D01*
X16306374Y-13315546D01*
X15860928Y-13108391D01*
X15621401Y-12996998D01*
X15615346Y-12990403D01*
X15615516Y-12981936D01*
X15780902Y-12580333D01*
X15787219Y-12573990D01*
X16188866Y-12408587D01*
X16197820Y-12408606D01*
G37*
%TD.AperFunction*%
%TD*%
%TA.AperFunction,Conductor*%
%TO.N,/VDD_3.3V*%
G36*
X40315969Y-16206651D02*
G01*
X40321796Y-16211961D01*
X40590446Y-16717800D01*
X40591300Y-16726714D01*
X40588386Y-16731561D01*
X40388491Y-16931456D01*
X40380218Y-16934883D01*
X40374730Y-16933516D01*
X40370851Y-16931456D01*
X39994470Y-16731561D01*
X39868891Y-16664866D01*
X39863192Y-16657959D01*
X39863557Y-16650086D01*
X39990902Y-16340341D01*
X39997213Y-16333996D01*
X40307015Y-16206628D01*
X40315969Y-16206651D01*
G37*
%TD.AperFunction*%
%TD*%
%TA.AperFunction,Conductor*%
%TO.N,/VDD_3.3V*%
G36*
X41550061Y-17676564D02*
G01*
X42870346Y-18162254D01*
X42952921Y-18192631D01*
X42959503Y-18198704D01*
X42959863Y-18207651D01*
X42959696Y-18208078D01*
X42641622Y-18978344D01*
X42635297Y-18984683D01*
X42635274Y-18984692D01*
X41865008Y-19302766D01*
X41856053Y-19302757D01*
X41849728Y-19296418D01*
X41849561Y-19295991D01*
X41732709Y-18978344D01*
X41333495Y-17893134D01*
X41333855Y-17884189D01*
X41336200Y-17880827D01*
X41537755Y-17679272D01*
X41546027Y-17675846D01*
X41550061Y-17676564D01*
G37*
%TD.AperFunction*%
%TD*%
%TA.AperFunction,Conductor*%
%TO.N,/VDD_3.3V*%
G36*
X30898680Y-16415557D02*
G01*
X30901594Y-16420404D01*
X31069312Y-16968050D01*
X31068458Y-16976964D01*
X31062631Y-16982274D01*
X30753566Y-17111249D01*
X30744611Y-17111272D01*
X30744554Y-17111249D01*
X30435488Y-16982274D01*
X30429173Y-16975925D01*
X30428807Y-16968052D01*
X30596526Y-16420403D01*
X30602225Y-16413497D01*
X30607713Y-16412130D01*
X30890407Y-16412130D01*
X30898680Y-16415557D01*
G37*
%TD.AperFunction*%
%TD*%
%TA.AperFunction,Conductor*%
%TO.N,/VDD_3.3V*%
G36*
X39612196Y-15739552D02*
G01*
X39977000Y-15933298D01*
X40118038Y-16008203D01*
X40123737Y-16015110D01*
X40123371Y-16022985D01*
X39996028Y-16332726D01*
X39989713Y-16339075D01*
X39989656Y-16339098D01*
X39679915Y-16466441D01*
X39670960Y-16466418D01*
X39665133Y-16461108D01*
X39432447Y-16022985D01*
X39396482Y-15955267D01*
X39395629Y-15946355D01*
X39398541Y-15941510D01*
X39598439Y-15741612D01*
X39606711Y-15738186D01*
X39612196Y-15739552D01*
G37*
%TD.AperFunction*%
%TD*%
%TA.AperFunction,Conductor*%
%TO.N,/VDD_3.3V*%
G36*
X10365969Y-6706651D02*
G01*
X10371796Y-6711961D01*
X10640446Y-7217800D01*
X10641300Y-7226714D01*
X10638386Y-7231561D01*
X10438491Y-7431456D01*
X10430218Y-7434883D01*
X10424730Y-7433516D01*
X10420851Y-7431456D01*
X10044470Y-7231561D01*
X9918891Y-7164866D01*
X9913192Y-7157959D01*
X9913557Y-7150086D01*
X10040902Y-6840341D01*
X10047213Y-6833996D01*
X10357015Y-6706628D01*
X10365969Y-6706651D01*
G37*
%TD.AperFunction*%
%TD*%
%TA.AperFunction,Conductor*%
%TO.N,/VDD_3.3V*%
G36*
X15260552Y-11837522D02*
G01*
X15945527Y-12156071D01*
X15951583Y-12162666D01*
X15951412Y-12171134D01*
X15786028Y-12572734D01*
X15779709Y-12579079D01*
X15779664Y-12579098D01*
X15378064Y-12744482D01*
X15369109Y-12744463D01*
X15363001Y-12738598D01*
X15044452Y-12053623D01*
X15044072Y-12044678D01*
X15046787Y-12040420D01*
X15247349Y-11839858D01*
X15255621Y-11836432D01*
X15260552Y-11837522D01*
G37*
%TD.AperFunction*%
%TD*%
%TA.AperFunction,Conductor*%
%TO.N,/BOOT0*%
G36*
X31361906Y-10377378D02*
G01*
X31368720Y-10383187D01*
X31370000Y-10388508D01*
X31370000Y-10571491D01*
X31366573Y-10579764D01*
X31361905Y-10582622D01*
X30975912Y-10707652D01*
X30966986Y-10706941D01*
X30961514Y-10701038D01*
X30870889Y-10484515D01*
X30870857Y-10475563D01*
X30961514Y-10258960D01*
X30967870Y-10252652D01*
X30975911Y-10252347D01*
X31361906Y-10377378D01*
G37*
%TD.AperFunction*%
%TD*%
%TA.AperFunction,Conductor*%
%TO.N,/BOOT0*%
G36*
X45132981Y-12933081D02*
G01*
X45138506Y-12939011D01*
X45229109Y-13155483D01*
X45229142Y-13164437D01*
X45229109Y-13164517D01*
X45138467Y-13381082D01*
X45132111Y-13387391D01*
X45124118Y-13387712D01*
X44738568Y-13264727D01*
X44731728Y-13258948D01*
X44730424Y-13253580D01*
X44730424Y-13070593D01*
X44733851Y-13062320D01*
X44738461Y-13059481D01*
X45124053Y-12932416D01*
X45132981Y-12933081D01*
G37*
%TD.AperFunction*%
%TD*%
%TA.AperFunction,Conductor*%
%TO.N,/NRST*%
G36*
X29963013Y-11633058D02*
G01*
X29968485Y-11638961D01*
X30059109Y-11855483D01*
X30059142Y-11864437D01*
X30059109Y-11864517D01*
X29968485Y-12081038D01*
X29962129Y-12087347D01*
X29954087Y-12087652D01*
X29568095Y-11962622D01*
X29561280Y-11956812D01*
X29560000Y-11951491D01*
X29560000Y-11768508D01*
X29563427Y-11760235D01*
X29568091Y-11757378D01*
X29954088Y-11632347D01*
X29963013Y-11633058D01*
G37*
%TD.AperFunction*%
%TD*%
%TA.AperFunction,Conductor*%
%TO.N,/NRST*%
G36*
X21189023Y-7980574D02*
G01*
X21194926Y-7986046D01*
X21379454Y-8347395D01*
X21380165Y-8356321D01*
X21377307Y-8360989D01*
X21247919Y-8490377D01*
X21239646Y-8493804D01*
X21234325Y-8492524D01*
X20964968Y-8354973D01*
X20872975Y-8307995D01*
X20867166Y-8301181D01*
X20867470Y-8293141D01*
X20956496Y-8075951D01*
X20962803Y-8069598D01*
X21180071Y-7980541D01*
X21189023Y-7980574D01*
G37*
%TD.AperFunction*%
%TD*%
%TA.AperFunction,Conductor*%
%TO.N,/NRST*%
G36*
X30551906Y-11757378D02*
G01*
X30558720Y-11763187D01*
X30560000Y-11768508D01*
X30560000Y-11951491D01*
X30556573Y-11959764D01*
X30551905Y-11962622D01*
X30165912Y-12087652D01*
X30156986Y-12086941D01*
X30151514Y-12081038D01*
X30060889Y-11864515D01*
X30060857Y-11855563D01*
X30151514Y-11638960D01*
X30157870Y-11632652D01*
X30165911Y-11632347D01*
X30551906Y-11757378D01*
G37*
%TD.AperFunction*%
%TD*%
%TA.AperFunction,Conductor*%
%TO.N,/NRST*%
G36*
X46594550Y-17711634D02*
G01*
X48032456Y-18192854D01*
X48039214Y-18198729D01*
X48039838Y-18207662D01*
X48039557Y-18208415D01*
X47721622Y-18978344D01*
X47715297Y-18984683D01*
X47715274Y-18984692D01*
X46945345Y-19302627D01*
X46936390Y-19302618D01*
X46930065Y-19296279D01*
X46929784Y-19295526D01*
X46825755Y-18984683D01*
X46448565Y-17857622D01*
X46449189Y-17848692D01*
X46451384Y-17845642D01*
X46582570Y-17714456D01*
X46590842Y-17711030D01*
X46594550Y-17711634D01*
G37*
%TD.AperFunction*%
%TD*%
%TA.AperFunction,Conductor*%
%TO.N,/PA13{slash}SWDIO*%
G36*
X7861772Y-1021623D02*
G01*
X7868097Y-1027962D01*
X7868364Y-1028674D01*
X8353523Y-2460620D01*
X8352932Y-2469555D01*
X8350715Y-2472647D01*
X8219530Y-2603832D01*
X8211257Y-2607259D01*
X8207594Y-2606671D01*
X6765735Y-2131369D01*
X6758951Y-2125524D01*
X6758286Y-2116594D01*
X6758584Y-2115791D01*
X7076498Y-1345913D01*
X7082819Y-1339578D01*
X7852818Y-1021614D01*
X7861772Y-1021623D01*
G37*
%TD.AperFunction*%
%TD*%
%TA.AperFunction,Conductor*%
%TO.N,/PA13{slash}SWDIO*%
G36*
X23848836Y-6527378D02*
G01*
X23855650Y-6533187D01*
X23856930Y-6538508D01*
X23856930Y-6721491D01*
X23853503Y-6729764D01*
X23848835Y-6732622D01*
X23462842Y-6857652D01*
X23453916Y-6856941D01*
X23448444Y-6851038D01*
X23357819Y-6634515D01*
X23357787Y-6625563D01*
X23448444Y-6408960D01*
X23454800Y-6402652D01*
X23462841Y-6402347D01*
X23848836Y-6527378D01*
G37*
%TD.AperFunction*%
%TD*%
%TA.AperFunction,Conductor*%
%TO.N,/PA13{slash}SWDIO*%
G36*
X62833477Y-10179610D02*
G01*
X64273360Y-10657872D01*
X64280131Y-10663732D01*
X64280776Y-10672664D01*
X64280486Y-10673442D01*
X63962562Y-11443344D01*
X63956237Y-11449683D01*
X63956214Y-11449692D01*
X63186264Y-11767636D01*
X63177309Y-11767627D01*
X63170984Y-11761288D01*
X63170710Y-11760556D01*
X63065406Y-11447837D01*
X62687520Y-10325631D01*
X62688127Y-10316698D01*
X62690332Y-10313628D01*
X62821519Y-10182441D01*
X62829791Y-10179015D01*
X62833477Y-10179610D01*
G37*
%TD.AperFunction*%
%TD*%
%TA.AperFunction,Conductor*%
%TO.N,/PA13{slash}SWDIO*%
G36*
X23259943Y-6403058D02*
G01*
X23265415Y-6408961D01*
X23356039Y-6625483D01*
X23356072Y-6634437D01*
X23356039Y-6634517D01*
X23265415Y-6851038D01*
X23259059Y-6857347D01*
X23251017Y-6857652D01*
X22865025Y-6732622D01*
X22858210Y-6726812D01*
X22856930Y-6721491D01*
X22856930Y-6538508D01*
X22860357Y-6530235D01*
X22865021Y-6527378D01*
X23251018Y-6402347D01*
X23259943Y-6403058D01*
G37*
%TD.AperFunction*%
%TD*%
%TA.AperFunction,Conductor*%
%TO.N,/PA12*%
G36*
X10401772Y-1021623D02*
G01*
X10408097Y-1027962D01*
X10408364Y-1028674D01*
X10893523Y-2460620D01*
X10892932Y-2469555D01*
X10890715Y-2472647D01*
X10759530Y-2603832D01*
X10751257Y-2607259D01*
X10747594Y-2606671D01*
X9305735Y-2131369D01*
X9298951Y-2125524D01*
X9298286Y-2116594D01*
X9298584Y-2115791D01*
X9616498Y-1345913D01*
X9622819Y-1339578D01*
X10392818Y-1021614D01*
X10401772Y-1021623D01*
G37*
%TD.AperFunction*%
%TD*%
%TA.AperFunction,Conductor*%
%TO.N,/PA12*%
G36*
X23252600Y-5683473D02*
G01*
X23258063Y-5689371D01*
X23348690Y-5905902D01*
X23348723Y-5914857D01*
X23348690Y-5914936D01*
X23258070Y-6131447D01*
X23251714Y-6137756D01*
X23243660Y-6138057D01*
X22857747Y-6012627D01*
X22850939Y-6006811D01*
X22849664Y-6001500D01*
X22849664Y-5818516D01*
X22853091Y-5810243D01*
X22857765Y-5807383D01*
X23243675Y-5682754D01*
X23252600Y-5683473D01*
G37*
%TD.AperFunction*%
%TD*%
%TA.AperFunction,Conductor*%
%TO.N,/PA14{slash}SWCLK*%
G36*
X24692758Y-10207641D02*
G01*
X24822157Y-10337040D01*
X24825584Y-10345313D01*
X24824223Y-10350789D01*
X24635933Y-10706298D01*
X24629033Y-10712005D01*
X24621157Y-10711648D01*
X24403824Y-10622564D01*
X24397468Y-10616255D01*
X24397435Y-10616175D01*
X24308481Y-10399160D01*
X24308514Y-10390206D01*
X24314161Y-10384215D01*
X24679342Y-10205405D01*
X24688277Y-10204846D01*
X24692758Y-10207641D01*
G37*
%TD.AperFunction*%
%TD*%
%TA.AperFunction,Conductor*%
%TO.N,/PA14{slash}SWCLK*%
G36*
X55244732Y-8989604D02*
G01*
X55606084Y-9174134D01*
X55611893Y-9180948D01*
X55611588Y-9188991D01*
X55522564Y-9406176D01*
X55516255Y-9412531D01*
X55516176Y-9412564D01*
X55298991Y-9501588D01*
X55290036Y-9501555D01*
X55284134Y-9496084D01*
X55099604Y-9134733D01*
X55098894Y-9125808D01*
X55101750Y-9121142D01*
X55231141Y-8991751D01*
X55239413Y-8988325D01*
X55244732Y-8989604D01*
G37*
%TD.AperFunction*%
%TD*%
%TA.AperFunction,Conductor*%
%TO.N,/PA0*%
G36*
X34840674Y-12579216D02*
G01*
X34847488Y-12585025D01*
X34848768Y-12590346D01*
X34848768Y-12773329D01*
X34845341Y-12781602D01*
X34840673Y-12784460D01*
X34454680Y-12909490D01*
X34445754Y-12908779D01*
X34440282Y-12902876D01*
X34349657Y-12686353D01*
X34349625Y-12677401D01*
X34440282Y-12460798D01*
X34446638Y-12454490D01*
X34454679Y-12454185D01*
X34840674Y-12579216D01*
G37*
%TD.AperFunction*%
%TD*%
%TA.AperFunction,Conductor*%
%TO.N,/PA0*%
G36*
X54214550Y-17711634D02*
G01*
X55652456Y-18192854D01*
X55659214Y-18198729D01*
X55659838Y-18207662D01*
X55659557Y-18208415D01*
X55341622Y-18978344D01*
X55335297Y-18984683D01*
X55335274Y-18984692D01*
X54565345Y-19302627D01*
X54556390Y-19302618D01*
X54550065Y-19296279D01*
X54549784Y-19295526D01*
X54445755Y-18984683D01*
X54068565Y-17857622D01*
X54069189Y-17848692D01*
X54071384Y-17845642D01*
X54202570Y-17714456D01*
X54210842Y-17711030D01*
X54214550Y-17711634D01*
G37*
%TD.AperFunction*%
%TD*%
%TA.AperFunction,Conductor*%
%TO.N,/PA1*%
G36*
X56754550Y-17711634D02*
G01*
X58192456Y-18192854D01*
X58199214Y-18198729D01*
X58199838Y-18207662D01*
X58199557Y-18208415D01*
X57881622Y-18978344D01*
X57875297Y-18984683D01*
X57875274Y-18984692D01*
X57105345Y-19302627D01*
X57096390Y-19302618D01*
X57090065Y-19296279D01*
X57089784Y-19295526D01*
X56985755Y-18984683D01*
X56608565Y-17857622D01*
X56609189Y-17848692D01*
X56611384Y-17845642D01*
X56742570Y-17714456D01*
X56750842Y-17711030D01*
X56754550Y-17711634D01*
G37*
%TD.AperFunction*%
%TD*%
%TA.AperFunction,Conductor*%
%TO.N,/PA1*%
G36*
X35641906Y-12077378D02*
G01*
X35648720Y-12083187D01*
X35650000Y-12088508D01*
X35650000Y-12271491D01*
X35646573Y-12279764D01*
X35641905Y-12282622D01*
X35255912Y-12407652D01*
X35246986Y-12406941D01*
X35241514Y-12401038D01*
X35150889Y-12184515D01*
X35150857Y-12175563D01*
X35241514Y-11958960D01*
X35247870Y-11952652D01*
X35255911Y-11952347D01*
X35641906Y-12077378D01*
G37*
%TD.AperFunction*%
%TD*%
%TA.AperFunction,Conductor*%
%TO.N,/PA2*%
G36*
X59294550Y-17711634D02*
G01*
X60732456Y-18192854D01*
X60739214Y-18198729D01*
X60739838Y-18207662D01*
X60739557Y-18208415D01*
X60421622Y-18978344D01*
X60415297Y-18984683D01*
X60415274Y-18984692D01*
X59645345Y-19302627D01*
X59636390Y-19302618D01*
X59630065Y-19296279D01*
X59629784Y-19295526D01*
X59525755Y-18984683D01*
X59148565Y-17857622D01*
X59149189Y-17848692D01*
X59151384Y-17845642D01*
X59282570Y-17714456D01*
X59290842Y-17711030D01*
X59294550Y-17711634D01*
G37*
%TD.AperFunction*%
%TD*%
%TA.AperFunction,Conductor*%
%TO.N,/PA2*%
G36*
X35640966Y-10979508D02*
G01*
X35647780Y-10985317D01*
X35649060Y-10990638D01*
X35649060Y-11173621D01*
X35645633Y-11181894D01*
X35640965Y-11184752D01*
X35254972Y-11309782D01*
X35246046Y-11309071D01*
X35240574Y-11303168D01*
X35149949Y-11086645D01*
X35149917Y-11077693D01*
X35240574Y-10861090D01*
X35246930Y-10854782D01*
X35254971Y-10854477D01*
X35640966Y-10979508D01*
G37*
%TD.AperFunction*%
%TD*%
%TA.AperFunction,Conductor*%
%TO.N,Net-(U2-VDDA)*%
G36*
X43573722Y-9952645D02*
G01*
X43578027Y-9957865D01*
X43669109Y-10175483D01*
X43669142Y-10184438D01*
X43669109Y-10184517D01*
X43578027Y-10402134D01*
X43571671Y-10408443D01*
X43564937Y-10409089D01*
X43179403Y-10331883D01*
X43171963Y-10326899D01*
X43170000Y-10320411D01*
X43170000Y-10039588D01*
X43173427Y-10031315D01*
X43179400Y-10028117D01*
X43564939Y-9950910D01*
X43573722Y-9952645D01*
G37*
%TD.AperFunction*%
%TD*%
%TA.AperFunction,Conductor*%
%TO.N,Net-(U2-VDDA)*%
G36*
X32580599Y-10028117D02*
G01*
X32588037Y-10033100D01*
X32590000Y-10039588D01*
X32590000Y-10320411D01*
X32586573Y-10328684D01*
X32580597Y-10331883D01*
X32195062Y-10409089D01*
X32186277Y-10407354D01*
X32181973Y-10402135D01*
X32090889Y-10184515D01*
X32090857Y-10175563D01*
X32181973Y-9957863D01*
X32188327Y-9951556D01*
X32195059Y-9950910D01*
X32580599Y-10028117D01*
G37*
%TD.AperFunction*%
%TD*%
%TA.AperFunction,Conductor*%
%TO.N,/USB_Data-*%
G36*
X3120098Y-9513644D02*
G01*
X3126407Y-9520000D01*
X3126712Y-9528042D01*
X3001682Y-9914035D01*
X2995872Y-9920850D01*
X2990551Y-9922130D01*
X2807569Y-9922130D01*
X2799296Y-9918703D01*
X2796438Y-9914035D01*
X2671407Y-9528042D01*
X2672118Y-9519116D01*
X2678020Y-9513644D01*
X2894544Y-9423019D01*
X2903497Y-9422987D01*
X3120098Y-9513644D01*
G37*
%TD.AperFunction*%
%TD*%
%TA.AperFunction,Conductor*%
%TO.N,/USB_Data-*%
G36*
X2998824Y-9925557D02*
G01*
X3001682Y-9930225D01*
X3126712Y-10316217D01*
X3126001Y-10325143D01*
X3120098Y-10330615D01*
X2903577Y-10421239D01*
X2894623Y-10421272D01*
X2894543Y-10421239D01*
X2678021Y-10330615D01*
X2671712Y-10324259D01*
X2671407Y-10316218D01*
X2796438Y-9930225D01*
X2802248Y-9923410D01*
X2807569Y-9922130D01*
X2990551Y-9922130D01*
X2998824Y-9925557D01*
G37*
%TD.AperFunction*%
%TD*%
%TA.AperFunction,Conductor*%
%TO.N,Net-(USB1-CC2)*%
G36*
X13083013Y-10623058D02*
G01*
X13088485Y-10628961D01*
X13179109Y-10845483D01*
X13179142Y-10854437D01*
X13179109Y-10854517D01*
X13088485Y-11071038D01*
X13082129Y-11077347D01*
X13074087Y-11077652D01*
X12688095Y-10952622D01*
X12681280Y-10946812D01*
X12680000Y-10941491D01*
X12680000Y-10758508D01*
X12683427Y-10750235D01*
X12688091Y-10747378D01*
X13074088Y-10622347D01*
X13083013Y-10623058D01*
G37*
%TD.AperFunction*%
%TD*%
%TA.AperFunction,Conductor*%
%TO.N,Net-(USB1-CC2)*%
G36*
X10901906Y-10747378D02*
G01*
X10908720Y-10753187D01*
X10910000Y-10758508D01*
X10910000Y-10941491D01*
X10906573Y-10949764D01*
X10901905Y-10952622D01*
X10515912Y-11077652D01*
X10506986Y-11076941D01*
X10501514Y-11071038D01*
X10410889Y-10854515D01*
X10410857Y-10845563D01*
X10501514Y-10628960D01*
X10507870Y-10622652D01*
X10515911Y-10622347D01*
X10901906Y-10747378D01*
G37*
%TD.AperFunction*%
%TD*%
M02*
