%TF.GenerationSoftware,KiCad,Pcbnew,7.0.10*%
%TF.CreationDate,2024-02-06T11:27:38+08:00*%
%TF.ProjectId,UINIO-MCU-STM32F103C8T6,55494e49-4f2d-44d4-9355-2d53544d3332,Version 2.0.0*%
%TF.SameCoordinates,PX72c1710PY5584170*%
%TF.FileFunction,Soldermask,Bot*%
%TF.FilePolarity,Negative*%
%FSLAX46Y46*%
G04 Gerber Fmt 4.6, Leading zero omitted, Abs format (unit mm)*
G04 Created by KiCad (PCBNEW 7.0.10) date 2024-02-06 11:27:38*
%MOMM*%
%LPD*%
G01*
G04 APERTURE LIST*
%ADD10R,1.700000X1.700000*%
%ADD11O,1.700000X1.700000*%
%ADD12C,1.200000*%
%ADD13C,0.650000*%
%ADD14O,2.100000X1.000000*%
%ADD15O,1.900000X1.000000*%
G04 APERTURE END LIST*
D10*
%TO.C,J3*%
X63960000Y-6367130D03*
D11*
X63960000Y-8907130D03*
X63960000Y-11447130D03*
X63960000Y-13987130D03*
%TD*%
D12*
%TO.C,HOLE\u002A\u002A*%
X-920940Y-2190000D03*
%TD*%
%TO.C,HOLE\u002A\u002A*%
X63339060Y-2190000D03*
%TD*%
%TO.C,HOLE\u002A\u002A*%
X63290000Y-18130000D03*
%TD*%
D13*
%TO.C,USB1*%
X2568060Y-7282130D03*
X2568060Y-13062130D03*
D14*
X3068060Y-5847130D03*
X3068060Y-14497130D03*
D15*
X-1131940Y-5847130D03*
X-1131940Y-14497130D03*
%TD*%
D12*
%TO.C,HOLE\u002A\u002A*%
X-970000Y-18130000D03*
%TD*%
D10*
%TO.C,J1*%
X1999060Y-1342130D03*
D11*
X4539060Y-1342130D03*
X7079060Y-1342130D03*
X9619060Y-1342130D03*
X12159060Y-1342130D03*
X14699060Y-1342130D03*
X17239060Y-1342130D03*
X19779060Y-1342130D03*
X22319060Y-1342130D03*
X24859060Y-1342130D03*
X27399060Y-1342130D03*
X29939060Y-1342130D03*
X32479060Y-1342130D03*
X35019060Y-1342130D03*
X37559060Y-1342130D03*
X40099060Y-1342130D03*
X42639060Y-1342130D03*
X45179060Y-1342130D03*
X47719060Y-1342130D03*
X50259060Y-1342130D03*
X52799060Y-1342130D03*
X55339060Y-1342130D03*
X57879060Y-1342130D03*
X60419060Y-1342130D03*
%TD*%
D10*
%TO.C,J2*%
X1999060Y-18982130D03*
D11*
X4539060Y-18982130D03*
X7079060Y-18982130D03*
X9619060Y-18982130D03*
X12159060Y-18982130D03*
X14699060Y-18982130D03*
X17239060Y-18982130D03*
X19779060Y-18982130D03*
X22319060Y-18982130D03*
X24859060Y-18982130D03*
X27399060Y-18982130D03*
X29939060Y-18982130D03*
X32479060Y-18982130D03*
X35019060Y-18982130D03*
X37559060Y-18982130D03*
X40099060Y-18982130D03*
X42639060Y-18982130D03*
X45179060Y-18982130D03*
X47719060Y-18982130D03*
X50259060Y-18982130D03*
X52799060Y-18982130D03*
X55339060Y-18982130D03*
X57879060Y-18982130D03*
X60419060Y-18982130D03*
%TD*%
M02*
