M48
; DRILL file {KiCad 7.0.11} date Sat Apr 13 17:26:56 2024
; FORMAT={-:-/ absolute / metric / decimal}
; #@! TF.CreationDate,2024-04-13T17:26:56+08:00
; #@! TF.GenerationSoftware,Kicad,Pcbnew,7.0.11
; #@! TF.FileFunction,MixedPlating,1,2
FMAT,2
METRIC
; #@! TA.AperFunction,Plated,PTH,ViaDrill
T1C0.300
; #@! TA.AperFunction,Plated,PTH,ViaDrill
T2C0.400
; #@! TA.AperFunction,Plated,PTH,ComponentDrill
T3C0.600
; #@! TA.AperFunction,Plated,PTH,ComponentDrill
T4C1.000
; #@! TA.AperFunction,Plated,PTH,ComponentDrill
T5C1.200
; #@! TA.AperFunction,NonPlated,NPTH,ComponentDrill
T6C0.650
%
G90
G05
T1
X2.899Y-9.422
X2.899Y-10.422
X8.34Y-8.68
X8.34Y-10.88
X10.043Y-6.837
X10.41Y-10.85
X11.0Y-3.99
X13.18Y-10.85
X14.51Y-8.1
X14.94Y-15.25
X15.12Y-5.15
X15.79Y-14.472
X15.8Y-15.24
X16.41Y-5.86
X16.66Y-15.24
X17.2Y-4.45
X17.39Y-7.2
X17.39Y-8.1
X17.39Y-12.54
X18.56Y-10.12
X20.71Y-10.21
X21.84Y-6.08
X21.84Y-10.21
X23.102Y-10.552
X24.03Y-6.63
X24.1Y-8.25
X24.891Y-11.231
X26.09Y-2.89
X26.35Y-15.86
X28.939Y-9.072
X28.939Y-10.072
X28.939Y-11.072
X29.2Y-2.89
X29.939Y-9.072
X29.939Y-10.072
X29.939Y-11.072
X30.939Y-9.072
X30.939Y-10.072
X30.939Y-11.072
X31.24Y-4.25
X32.48Y-15.88
X33.833Y-12.2
X36.09Y-11.43
X36.1Y-12.067
X36.11Y-9.41
X36.11Y-10.81
X36.42Y-16.2
X36.97Y-13.21
X37.57Y-15.33
X37.6Y-17.38
X38.88Y-16.91
X39.83Y-17.38
X41.88Y-16.91
X42.469Y-7.162
X42.469Y-15.392
X43.35Y-5.77
X43.67Y-16.59
X45.23Y-5.43
X46.05Y-15.11
X46.8Y-15.108
X47.83Y-5.812
X48.93Y-15.11
X48.93Y-15.91
X49.467Y-3.322
X52.024Y-3.322
X52.15Y-12.0
X53.139Y-15.512
X54.582Y-3.322
X55.09Y-9.41
X55.51Y-10.19
X55.54Y-15.36
X56.527Y-10.19
X57.139Y-3.322
X57.543Y-10.19
X58.56Y-10.19
X59.577Y-10.19
X60.49Y-12.68
X60.49Y-15.65
X60.593Y-10.19
X61.61Y-10.19
T2
X6.169Y-7.762
X6.169Y-12.562
X15.783Y-12.577
T4
X1.999Y-1.342
X1.999Y-18.982
X4.539Y-1.342
X4.539Y-18.982
X7.079Y-1.342
X7.079Y-18.982
X9.619Y-1.342
X9.619Y-18.982
X12.159Y-1.342
X12.159Y-18.982
X14.699Y-1.342
X14.699Y-18.982
X17.239Y-1.342
X17.239Y-18.982
X19.779Y-1.342
X19.779Y-18.982
X22.319Y-1.342
X22.319Y-18.982
X24.859Y-1.342
X24.859Y-18.982
X27.399Y-1.342
X27.399Y-18.982
X29.939Y-1.342
X29.939Y-18.982
X32.479Y-1.342
X32.479Y-18.982
X35.019Y-1.342
X35.019Y-18.982
X37.559Y-1.342
X37.559Y-18.982
X40.099Y-1.342
X40.099Y-18.982
X42.639Y-1.342
X42.639Y-18.982
X45.179Y-1.342
X45.179Y-18.982
X47.719Y-1.342
X47.719Y-18.982
X50.259Y-1.342
X50.259Y-18.982
X52.799Y-1.342
X52.799Y-18.982
X55.339Y-1.342
X55.339Y-18.982
X57.879Y-1.342
X57.879Y-18.982
X60.419Y-1.342
X60.419Y-18.982
X63.96Y-6.367
X63.96Y-8.907
X63.96Y-11.447
X63.96Y-13.987
T5
X-0.97Y-18.13
X-0.921Y-2.19
X63.29Y-18.13
X63.339Y-2.19
T6
X2.568Y-7.282
X2.568Y-13.062
T3
G00X-0.682Y-5.847
M15
G01X-1.582Y-5.847
M16
G05
G00X-0.682Y-14.497
M15
G01X-1.582Y-14.497
M16
G05
G00X3.668Y-5.847
M15
G01X2.468Y-5.847
M16
G05
G00X3.668Y-14.497
M15
G01X2.468Y-14.497
M16
G05
M30
